{"glyphs":{"0":{"ha":853,"x_min":71,"x_max":782,"o":"m 782 407 q 735 190 782 285 q 609 40 689 94 q 426 -14 529 -14 q 244 40 325 -14 q 117 190 164 94 q 71 407 71 285 q 117 624 71 529 q 244 774 164 719 q 426 829 325 829 q 609 774 529 829 q 735 624 689 719 q 782 407 782 529 m 626 407 q 601 553 626 490 q 531 652 576 617 q 426 688 485 688 q 321 652 367 688 q 249 553 275 617 q 224 407 224 490 q 249 261 224 324 q 321 163 275 199 q 426 128 367 128 q 530 163 485 128 q 601 261 575 199 q 626 407 626 324 z "},"1":{"ha":654,"x_min":63,"x_max":621,"o":"m 621 138 l 621 0 l 90 0 l 90 138 l 288 138 l 288 622 q 249 588 275 606 q 190 553 222 569 q 124 528 157 538 q 63 518 90 518 l 63 661 q 126 678 90 661 q 198 717 163 694 q 258 762 233 740 q 288 793 283 783 l 444 793 l 444 138 l 621 138 z "},"2":{"ha":763,"x_min":56,"x_max":699,"o":"m 56 0 q 65 108 56 58 q 99 201 75 157 q 167 285 124 246 q 279 361 211 325 q 371 410 328 389 q 447 453 414 432 q 499 500 481 475 q 518 557 518 525 q 501 614 518 588 q 451 656 485 640 q 371 672 418 672 q 302 663 333 672 q 245 637 271 653 q 199 602 219 621 q 163 565 178 583 l 67 675 q 110 713 81 692 q 183 756 140 735 q 279 792 225 778 q 397 807 333 807 q 551 777 488 807 q 649 695 615 747 q 683 578 683 643 q 663 488 683 526 q 611 419 643 449 q 544 367 579 389 q 478 329 508 346 q 384 281 424 303 q 317 237 344 258 q 271 192 289 215 q 240 138 253 169 l 699 138 l 699 0 l 56 0 z "},"3":{"ha":763,"x_min":44,"x_max":706,"o":"m 513 328 q 615 284 571 318 q 682 198 658 250 q 706 81 706 146 q 663 -69 706 -6 q 543 -169 621 -133 q 360 -204 465 -204 q 174 -167 254 -204 q 44 -61 93 -131 l 138 44 q 224 -35 171 -6 q 357 -65 276 -65 q 497 -26 447 -65 q 547 90 547 13 q 492 217 547 171 q 328 263 438 263 l 290 263 l 290 382 l 332 382 q 475 426 425 382 q 525 536 525 469 q 505 609 525 581 q 449 651 485 638 q 365 665 413 665 q 240 635 294 665 q 154 547 186 604 l 58 651 q 135 729 86 696 q 247 781 183 763 q 381 800 310 800 q 542 769 472 800 q 649 683 611 739 q 688 553 688 628 q 667 451 688 499 q 606 370 646 403 q 513 328 565 338 z "},"4":{"ha":783,"x_min":31,"x_max":732,"o":"m 457 -176 l 457 44 l 31 44 l 31 181 l 506 793 l 610 793 l 610 183 l 732 183 l 732 44 l 610 44 l 610 -176 l 457 -176 m 186 183 l 474 183 l 474 560 l 186 183 z "},"5":{"ha":765,"x_min":43,"x_max":719,"o":"m 364 -207 q 172 -159 257 -207 q 43 -29 88 -111 l 135 58 q 235 -37 174 -1 q 365 -72 296 -72 q 467 -48 422 -72 q 537 20 511 -24 q 563 121 563 64 q 538 219 563 176 q 471 284 513 261 q 375 307 429 307 q 276 283 322 307 q 201 217 231 260 l 67 217 l 179 793 l 661 793 l 661 653 l 290 653 l 240 383 q 304 424 264 408 q 396 440 344 440 q 562 399 489 440 q 677 288 635 358 q 719 124 719 217 q 672 -49 719 25 q 544 -165 625 -124 q 364 -207 464 -207 z "},"6":{"ha":843,"x_min":67,"x_max":783,"o":"m 783 328 q 738 495 783 421 q 616 614 693 569 q 442 658 539 658 q 344 642 390 658 q 265 595 299 625 q 210 524 231 565 q 240 706 211 631 q 320 820 268 781 q 440 860 372 860 q 565 826 508 860 q 653 733 621 792 l 743 828 q 616 949 694 906 q 443 993 538 993 q 244 929 329 993 q 113 739 160 865 q 67 424 67 613 q 112 189 67 288 q 238 38 157 90 q 428 -14 319 -14 q 609 32 528 -14 q 737 156 690 78 q 783 328 783 233 m 428 117 q 324 146 372 117 q 247 223 276 175 q 218 328 218 271 q 247 432 218 385 q 324 508 275 479 q 428 536 372 536 q 533 508 486 536 q 609 432 581 479 q 638 328 638 385 q 609 222 638 271 q 533 145 581 174 q 428 117 485 117 z "},"7":{"ha":761,"x_min":39,"x_max":758,"o":"m 517 669 l 39 669 l 39 810 l 758 810 l 265 -176 l 92 -176 l 517 669 z "},"8":{"ha":835,"x_min":64,"x_max":769,"o":"m 769 285 q 722 129 769 196 q 592 26 674 63 q 415 -11 511 -11 q 238 28 317 -11 q 111 136 158 68 q 64 292 64 204 q 90 397 64 350 q 156 476 117 443 q 235 528 194 510 q 166 574 197 546 q 116 640 135 603 q 97 721 97 678 q 126 834 97 785 q 201 917 154 883 q 305 969 249 951 q 417 986 361 986 q 530 969 474 986 q 634 918 586 951 q 710 835 682 885 q 739 722 739 786 q 720 641 739 679 q 669 574 701 603 q 599 528 636 544 q 683 474 643 508 q 746 392 722 439 q 769 285 769 344 m 615 294 q 598 367 615 335 q 551 420 581 399 q 488 453 522 442 q 417 464 453 464 q 321 443 365 464 q 249 384 276 422 q 221 294 221 346 q 238 224 221 256 q 283 171 254 193 q 347 138 311 149 q 418 126 382 126 q 513 148 468 126 q 587 208 558 169 q 615 294 615 246 m 251 715 q 276 642 251 672 q 340 596 301 611 q 417 581 379 581 q 494 597 456 581 q 558 643 532 613 q 583 718 583 674 q 560 788 583 758 q 498 834 536 818 q 417 850 460 850 q 335 833 374 850 q 274 787 297 817 q 251 715 251 757 z "},"9":{"ha":818,"x_min":47,"x_max":764,"o":"m 47 451 q 92 284 47 358 q 215 165 138 210 q 389 121 293 121 q 487 138 442 121 q 567 185 532 154 q 621 256 601 215 q 591 74 619 149 q 511 -41 563 -1 q 390 -81 460 -81 q 267 -46 324 -81 q 178 46 210 -11 l 88 -49 q 215 -170 136 -126 q 388 -214 294 -214 q 586 -150 501 -214 q 717 40 671 -86 q 764 356 764 167 q 719 591 764 493 q 593 741 674 689 q 404 793 513 793 q 223 747 304 793 q 94 624 142 701 q 47 451 47 546 m 403 663 q 507 634 460 663 q 583 557 554 606 q 613 451 613 508 q 584 347 613 394 q 508 272 556 300 q 403 243 461 243 q 298 272 346 243 q 222 347 250 300 q 193 451 193 394 q 222 558 193 510 q 298 634 250 606 q 403 663 346 663 z "},"A":{"ha":938,"x_min":10,"x_max":926,"o":"m 396 986 l 543 986 l 926 0 l 763 0 l 658 268 l 278 268 l 175 0 l 10 0 l 396 986 m 628 383 l 469 815 l 306 383 l 628 383 z "},"Á":{"ha":938,"x_min":10,"x_max":926,"o":"m 396 986 l 543 986 l 926 0 l 763 0 l 658 268 l 278 268 l 175 0 l 10 0 l 396 986 m 628 383 l 469 815 l 306 383 l 628 383 m 521 1089 l 421 1119 l 500 1272 l 646 1272 l 521 1089 z "},"Ă":{"ha":938,"x_min":10,"x_max":926,"o":"m 396 986 l 543 986 l 926 0 l 763 0 l 658 268 l 278 268 l 175 0 l 10 0 l 396 986 m 628 383 l 469 815 l 306 383 l 628 383 m 469 1174 q 523 1202 500 1174 q 550 1272 546 1231 l 635 1272 q 588 1151 635 1200 q 469 1103 540 1103 q 351 1151 399 1103 q 304 1272 304 1200 l 389 1272 q 413 1203 389 1233 q 469 1174 438 1174 z "},"Ắ":{"ha":938,"x_min":10,"x_max":926,"o":"m 396 986 l 543 986 l 926 0 l 763 0 l 658 268 l 278 268 l 175 0 l 10 0 l 396 986 m 628 383 l 469 815 l 306 383 l 628 383 z "},"Ặ":{"ha":938,"x_min":10,"x_max":926,"o":"m 396 986 l 543 986 l 926 0 l 763 0 l 658 268 l 278 268 l 175 0 l 10 0 l 396 986 m 628 383 l 469 815 l 306 383 l 628 383 m 414 -268 l 414 -107 l 551 -107 l 551 -268 l 414 -268 m 469 1174 q 523 1202 500 1174 q 550 1272 546 1231 l 635 1272 q 588 1151 635 1200 q 469 1103 540 1103 q 351 1151 399 1103 q 304 1272 304 1200 l 389 1272 q 413 1203 389 1233 q 469 1174 438 1174 z "},"Ằ":{"ha":938,"x_min":10,"x_max":926,"o":"m 396 986 l 543 986 l 926 0 l 763 0 l 658 268 l 278 268 l 175 0 l 10 0 l 396 986 m 628 383 l 469 815 l 306 383 l 628 383 z "},"Ẳ":{"ha":938,"x_min":10,"x_max":926,"o":"m 396 986 l 543 986 l 926 0 l 763 0 l 658 268 l 278 268 l 175 0 l 10 0 l 396 986 m 628 383 l 469 815 l 306 383 l 628 383 z "},"Ẵ":{"ha":938,"x_min":10,"x_max":926,"o":"m 396 986 l 543 986 l 926 0 l 763 0 l 658 268 l 278 268 l 175 0 l 10 0 l 396 986 m 628 383 l 469 815 l 306 383 l 628 383 z "},"Â":{"ha":938,"x_min":10,"x_max":926,"o":"m 396 986 l 543 986 l 926 0 l 763 0 l 658 268 l 278 268 l 175 0 l 10 0 l 396 986 m 628 383 l 469 815 l 306 383 l 628 383 m 269 1140 l 414 1272 l 524 1272 l 668 1140 l 586 1101 l 468 1189 l 350 1101 l 269 1140 z "},"Ấ":{"ha":938,"x_min":10,"x_max":926,"o":"m 396 986 l 543 986 l 926 0 l 763 0 l 658 268 l 278 268 l 175 0 l 10 0 l 396 986 m 628 383 l 469 815 l 306 383 l 628 383 z "},"Ậ":{"ha":938,"x_min":10,"x_max":926,"o":"m 396 986 l 543 986 l 926 0 l 763 0 l 658 268 l 278 268 l 175 0 l 10 0 l 396 986 m 628 383 l 469 815 l 306 383 l 628 383 m 414 -268 l 414 -107 l 551 -107 l 551 -268 l 414 -268 m 269 1140 l 414 1272 l 524 1272 l 668 1140 l 586 1101 l 468 1189 l 350 1101 l 269 1140 z "},"Ầ":{"ha":938,"x_min":10,"x_max":926,"o":"m 396 986 l 543 986 l 926 0 l 763 0 l 658 268 l 278 268 l 175 0 l 10 0 l 396 986 m 628 383 l 469 815 l 306 383 l 628 383 z "},"Ẩ":{"ha":938,"x_min":10,"x_max":926,"o":"m 396 986 l 543 986 l 926 0 l 763 0 l 658 268 l 278 268 l 175 0 l 10 0 l 396 986 m 628 383 l 469 815 l 306 383 l 628 383 z "},"Ẫ":{"ha":938,"x_min":10,"x_max":926,"o":"m 396 986 l 543 986 l 926 0 l 763 0 l 658 268 l 278 268 l 175 0 l 10 0 l 396 986 m 628 383 l 469 815 l 306 383 l 628 383 z "},"Ȁ":{"ha":938,"x_min":10,"x_max":926,"o":"m 396 986 l 543 986 l 926 0 l 763 0 l 658 268 l 278 268 l 175 0 l 10 0 l 396 986 m 628 383 l 469 815 l 306 383 l 628 383 m 432 1274 l 556 1274 l 626 1121 l 550 1090 l 432 1274 m 226 1274 l 351 1274 l 422 1121 l 344 1090 l 226 1274 z "},"Ä":{"ha":938,"x_min":10,"x_max":926,"o":"m 396 986 l 543 986 l 926 0 l 763 0 l 658 268 l 278 268 l 175 0 l 10 0 l 396 986 m 628 383 l 469 815 l 306 383 l 628 383 m 283 1114 l 283 1267 l 411 1267 l 411 1114 l 283 1114 m 529 1114 l 529 1267 l 657 1267 l 657 1114 l 529 1114 z "},"Ạ":{"ha":938,"x_min":10,"x_max":926,"o":"m 396 986 l 543 986 l 926 0 l 763 0 l 658 268 l 278 268 l 175 0 l 10 0 l 396 986 m 628 383 l 469 815 l 306 383 l 628 383 m 414 -268 l 414 -107 l 551 -107 l 551 -268 l 414 -268 z "},"À":{"ha":938,"x_min":10,"x_max":926,"o":"m 396 986 l 543 986 l 926 0 l 763 0 l 658 268 l 278 268 l 175 0 l 10 0 l 396 986 m 628 383 l 469 815 l 306 383 l 628 383 m 311 1272 l 457 1272 l 536 1119 l 439 1089 l 311 1272 z "},"Ả":{"ha":938,"x_min":10,"x_max":926,"o":"m 396 986 l 543 986 l 926 0 l 763 0 l 658 268 l 278 268 l 175 0 l 10 0 l 396 986 m 628 383 l 469 815 l 306 383 l 628 383 m 403 1219 l 351 1269 q 413 1313 382 1299 q 482 1326 444 1326 q 560 1297 533 1326 q 588 1229 588 1268 q 567 1164 588 1196 q 504 1097 547 1132 l 464 1143 q 497 1180 488 1164 q 507 1213 507 1196 q 496 1240 507 1229 q 468 1251 485 1251 q 436 1244 450 1251 q 403 1219 422 1238 z "},"Ȃ":{"ha":938,"x_min":10,"x_max":926,"o":"m 396 986 l 543 986 l 926 0 l 763 0 l 658 268 l 278 268 l 175 0 l 10 0 l 396 986 m 628 383 l 469 815 l 306 383 l 628 383 m 469 1201 q 413 1172 438 1201 q 389 1103 389 1142 l 304 1103 q 351 1224 304 1175 q 469 1272 399 1272 q 588 1224 540 1272 q 635 1103 635 1175 l 550 1103 q 523 1173 546 1144 q 469 1201 500 1201 z "},"Ā":{"ha":938,"x_min":10,"x_max":926,"o":"m 396 986 l 543 986 l 926 0 l 763 0 l 658 268 l 278 268 l 175 0 l 10 0 l 396 986 m 628 383 l 469 815 l 306 383 l 628 383 m 265 1153 l 265 1250 l 676 1250 l 676 1153 l 265 1153 z "},"Ą":{"ha":938,"x_min":10,"x_max":926,"o":"m 396 986 l 543 986 l 926 0 l 763 0 l 658 268 l 278 268 l 175 0 l 10 0 l 396 986 m 628 383 l 469 815 l 306 383 l 628 383 m 721 -151 q 754 -60 721 -104 q 857 28 788 -15 l 901 28 l 928 0 q 847 -70 872 -39 q 821 -126 821 -101 q 849 -165 821 -153 q 926 -179 876 -176 l 894 -269 q 788 -245 825 -264 q 735 -201 750 -226 q 721 -151 721 -176 z "},"Å":{"ha":938,"x_min":10,"x_max":926,"o":"m 396 986 l 543 986 l 926 0 l 763 0 l 658 268 l 278 268 l 175 0 l 10 0 l 396 986 m 628 383 l 469 815 l 306 383 l 628 383 m 332 1175 q 371 1266 332 1232 q 469 1300 410 1300 q 570 1266 532 1300 q 608 1175 608 1232 q 570 1087 608 1119 q 469 1054 532 1054 q 371 1087 410 1054 q 332 1175 332 1119 m 471 1239 q 426 1222 444 1239 q 407 1176 407 1206 q 425 1131 407 1150 q 471 1113 443 1113 q 515 1131 496 1113 q 535 1175 535 1149 q 516 1222 535 1206 q 471 1239 497 1239 z "},"Ǻ":{"ha":938,"x_min":10,"x_max":926,"o":"m 513 1126 l 413 1156 l 492 1297 l 638 1297 l 513 1126 m 396 986 l 543 986 l 926 0 l 763 0 l 658 268 l 278 268 l 175 0 l 10 0 l 396 986 m 628 383 l 469 815 l 306 383 l 628 383 m 331 1064 q 369 1154 331 1121 q 469 1188 408 1188 q 569 1154 531 1188 q 608 1064 608 1121 q 569 975 608 1008 q 469 942 531 942 q 369 975 408 942 q 331 1064 331 1008 m 469 1128 q 424 1110 443 1128 q 406 1064 406 1093 q 424 1019 406 1038 q 469 1001 443 1001 q 514 1019 494 1001 q 533 1064 533 1036 q 515 1110 533 1093 q 469 1128 496 1128 z "},"Ã":{"ha":938,"x_min":10,"x_max":926,"o":"m 396 986 l 543 986 l 926 0 l 763 0 l 658 268 l 278 268 l 175 0 l 10 0 l 396 986 m 628 383 l 469 815 l 306 383 l 628 383 m 558 1113 q 487 1128 517 1113 q 433 1158 457 1143 q 378 1172 408 1172 q 333 1157 347 1172 q 314 1125 318 1142 q 310 1106 310 1108 l 224 1106 q 231 1142 224 1117 q 255 1197 238 1168 q 301 1245 272 1225 q 372 1265 329 1265 q 442 1250 414 1265 q 495 1219 469 1235 q 554 1204 521 1204 q 604 1220 589 1204 q 624 1253 619 1236 q 629 1272 629 1269 l 717 1272 q 709 1238 717 1263 q 683 1183 701 1213 q 635 1133 665 1154 q 558 1113 604 1113 z "},"Æ":{"ha":1338,"x_min":-35,"x_max":1289,"o":"m 588 986 l 1276 986 l 1276 849 l 785 849 l 785 571 l 1201 571 l 1201 433 l 785 433 l 785 138 l 1289 138 l 1289 0 l 629 0 l 629 268 l 297 268 l 133 0 l -35 0 l 588 986 m 618 407 l 618 807 l 365 407 l 618 407 z "},"Ǽ":{"ha":1338,"x_min":-35,"x_max":1289,"o":"m 588 986 l 1276 986 l 1276 849 l 785 849 l 785 571 l 1201 571 l 1201 433 l 785 433 l 785 138 l 1289 138 l 1289 0 l 629 0 l 629 268 l 297 268 l 133 0 l -35 0 l 588 986 m 618 407 l 618 807 l 365 407 l 618 407 m 894 1089 l 794 1119 l 874 1272 l 1019 1272 l 894 1089 z "},"B":{"ha":938,"x_min":111,"x_max":886,"o":"m 886 254 q 845 118 886 175 q 735 31 804 61 q 582 0 665 0 l 111 0 l 111 986 l 619 986 q 740 949 689 986 q 817 855 790 913 q 844 735 844 797 q 808 599 844 663 q 703 506 771 536 q 837 415 788 481 q 886 254 886 349 m 726 283 q 709 359 726 325 q 662 415 692 393 q 592 436 632 436 l 267 436 l 267 135 l 582 135 q 656 155 624 135 q 708 209 689 175 q 726 283 726 243 m 267 851 l 267 561 l 553 561 q 622 580 592 561 q 671 631 653 599 q 689 706 689 664 q 672 781 689 749 q 627 833 656 814 q 561 851 599 851 l 267 851 z "},"C":{"ha":950,"x_min":49,"x_max":917,"o":"m 49 500 q 81 677 49 590 q 174 835 113 764 q 325 949 236 907 q 526 992 414 992 q 757 931 660 992 q 901 776 854 871 l 779 694 q 709 789 751 754 q 617 838 667 824 q 521 851 568 851 q 385 820 443 851 q 287 738 326 789 q 227 622 247 686 q 207 494 207 558 q 231 358 207 424 q 297 241 254 292 q 397 161 339 190 q 525 132 456 132 q 624 149 572 132 q 719 201 675 165 q 788 294 763 236 l 917 221 q 822 96 886 147 q 677 18 757 44 q 519 -8 597 -8 q 329 35 415 -8 q 181 152 243 79 q 83 316 118 225 q 49 500 49 407 z "},"Ć":{"ha":950,"x_min":49,"x_max":917,"o":"m 49 500 q 81 677 49 590 q 174 835 113 764 q 325 949 236 907 q 526 992 414 992 q 757 931 660 992 q 901 776 854 871 l 779 694 q 709 789 751 754 q 617 838 667 824 q 521 851 568 851 q 385 820 443 851 q 287 738 326 789 q 227 622 247 686 q 207 494 207 558 q 231 358 207 424 q 297 241 254 292 q 397 161 339 190 q 525 132 456 132 q 624 149 572 132 q 719 201 675 165 q 788 294 763 236 l 917 221 q 822 96 886 147 q 677 18 757 44 q 519 -8 597 -8 q 329 35 415 -8 q 181 152 243 79 q 83 316 118 225 q 49 500 49 407 m 576 1089 l 476 1119 l 556 1272 l 701 1272 l 576 1089 z "},"Č":{"ha":950,"x_min":49,"x_max":917,"o":"m 49 500 q 81 677 49 590 q 174 835 113 764 q 325 949 236 907 q 526 992 414 992 q 757 931 660 992 q 901 776 854 871 l 779 694 q 709 789 751 754 q 617 838 667 824 q 521 851 568 851 q 385 820 443 851 q 287 738 326 789 q 227 622 247 686 q 207 494 207 558 q 231 358 207 424 q 297 241 254 292 q 397 161 339 190 q 525 132 456 132 q 624 149 572 132 q 719 201 675 165 q 788 294 763 236 l 917 221 q 822 96 886 147 q 677 18 757 44 q 519 -8 597 -8 q 329 35 415 -8 q 181 152 243 79 q 83 316 118 225 q 49 500 49 407 m 406 1272 l 524 1185 l 642 1272 l 724 1233 l 579 1101 l 469 1101 l 325 1233 l 406 1272 z "},"Ç":{"ha":950,"x_min":49,"x_max":917,"o":"m 49 500 q 81 677 49 590 q 174 835 113 764 q 325 949 236 907 q 526 992 414 992 q 757 931 660 992 q 901 776 854 871 l 779 694 q 709 789 751 754 q 617 838 667 824 q 521 851 568 851 q 385 820 443 851 q 287 738 326 789 q 227 622 247 686 q 207 494 207 558 q 231 358 207 424 q 297 241 254 292 q 397 161 339 190 q 525 132 456 132 q 624 149 572 132 q 719 201 675 165 q 788 294 763 236 l 917 221 q 822 96 886 147 q 677 18 757 44 q 519 -8 597 -8 q 329 35 415 -8 q 181 152 243 79 q 83 316 118 225 q 49 500 49 407 m 503 -268 q 422 -258 465 -268 q 339 -228 379 -249 l 378 -146 q 426 -167 403 -160 q 476 -175 449 -175 q 538 -158 515 -175 q 560 -110 560 -142 q 538 -52 560 -78 q 474 0 515 -26 l 526 36 q 619 -40 583 0 q 654 -137 654 -79 q 615 -232 654 -196 q 503 -268 575 -268 z "},"Ḉ":{"ha":950,"x_min":49,"x_max":917,"o":"m 49 500 q 81 677 49 590 q 174 835 113 764 q 325 949 236 907 q 526 992 414 992 q 757 931 660 992 q 901 776 854 871 l 779 694 q 709 789 751 754 q 617 838 667 824 q 521 851 568 851 q 385 820 443 851 q 287 738 326 789 q 227 622 247 686 q 207 494 207 558 q 231 358 207 424 q 297 241 254 292 q 397 161 339 190 q 525 132 456 132 q 624 149 572 132 q 719 201 675 165 q 788 294 763 236 l 917 221 q 822 96 886 147 q 677 18 757 44 q 519 -8 597 -8 q 329 35 415 -8 q 181 152 243 79 q 83 316 118 225 q 49 500 49 407 m 503 -268 q 422 -258 465 -268 q 339 -228 379 -249 l 378 -146 q 426 -167 403 -160 q 476 -175 449 -175 q 538 -158 515 -175 q 560 -110 560 -142 q 538 -52 560 -78 q 474 0 515 -26 l 526 36 q 619 -40 583 0 q 654 -137 654 -79 q 615 -232 654 -196 q 503 -268 575 -268 m 576 1089 l 476 1119 l 556 1272 l 701 1272 l 576 1089 z "},"Ĉ":{"ha":950,"x_min":49,"x_max":917,"o":"m 49 500 q 81 677 49 590 q 174 835 113 764 q 325 949 236 907 q 526 992 414 992 q 757 931 660 992 q 901 776 854 871 l 779 694 q 709 789 751 754 q 617 838 667 824 q 521 851 568 851 q 385 820 443 851 q 287 738 326 789 q 227 622 247 686 q 207 494 207 558 q 231 358 207 424 q 297 241 254 292 q 397 161 339 190 q 525 132 456 132 q 624 149 572 132 q 719 201 675 165 q 788 294 763 236 l 917 221 q 822 96 886 147 q 677 18 757 44 q 519 -8 597 -8 q 329 35 415 -8 q 181 152 243 79 q 83 316 118 225 q 49 500 49 407 m 325 1140 l 469 1272 l 579 1272 l 724 1140 l 642 1101 l 524 1189 l 406 1101 l 325 1140 z "},"Ċ":{"ha":950,"x_min":49,"x_max":917,"o":"m 49 500 q 81 677 49 590 q 174 835 113 764 q 325 949 236 907 q 526 992 414 992 q 757 931 660 992 q 901 776 854 871 l 779 694 q 709 789 751 754 q 617 838 667 824 q 521 851 568 851 q 385 820 443 851 q 287 738 326 789 q 227 622 247 686 q 207 494 207 558 q 231 358 207 424 q 297 241 254 292 q 397 161 339 190 q 525 132 456 132 q 624 149 572 132 q 719 201 675 165 q 788 294 763 236 l 917 221 q 822 96 886 147 q 677 18 757 44 q 519 -8 597 -8 q 329 35 415 -8 q 181 152 243 79 q 83 316 118 225 q 49 500 49 407 m 456 1113 l 456 1272 l 593 1272 l 593 1113 l 456 1113 z "},"D":{"ha":994,"x_min":111,"x_max":942,"o":"m 111 0 l 111 986 l 461 986 q 728 920 621 986 q 888 742 835 854 q 942 494 942 631 q 883 233 942 344 q 715 61 824 122 q 461 0 607 0 l 111 0 m 783 494 q 745 678 783 599 q 635 803 707 758 q 461 849 564 849 l 267 849 l 267 138 l 461 138 q 637 185 565 138 q 746 313 708 232 q 783 494 783 393 z "},"Ð":{"ha":1003,"x_min":46,"x_max":949,"o":"m 46 438 l 46 554 l 485 554 l 485 438 l 46 438 m 118 0 l 118 986 l 468 986 q 735 920 628 986 q 895 742 842 854 q 949 494 949 631 q 890 233 949 344 q 723 61 831 122 q 468 0 615 0 l 118 0 m 790 494 q 753 678 790 599 q 644 803 715 758 q 468 849 572 849 l 275 849 l 275 138 l 468 138 q 645 185 574 138 q 753 313 717 232 q 790 494 790 393 z "},"Ď":{"ha":994,"x_min":111,"x_max":942,"o":"m 111 0 l 111 986 l 461 986 q 728 920 621 986 q 888 742 835 854 q 942 494 942 631 q 883 233 942 344 q 715 61 824 122 q 461 0 607 0 l 111 0 m 783 494 q 745 678 783 599 q 635 803 707 758 q 461 849 564 849 l 267 849 l 267 138 l 461 138 q 637 185 565 138 q 746 313 708 232 q 783 494 783 393 m 347 1272 l 465 1185 l 583 1272 l 665 1233 l 521 1101 l 411 1101 l 267 1233 l 347 1272 z "},"Đ":{"ha":1003,"x_min":46,"x_max":949,"o":"m 46 438 l 46 554 l 485 554 l 485 438 l 46 438 m 118 0 l 118 986 l 468 986 q 735 920 628 986 q 895 742 842 854 q 949 494 949 631 q 890 233 949 344 q 723 61 831 122 q 468 0 615 0 l 118 0 m 790 494 q 753 678 790 599 q 644 803 715 758 q 468 849 572 849 l 275 849 l 275 138 l 468 138 q 645 185 574 138 q 753 313 717 232 q 790 494 790 393 z "},"Ḍ":{"ha":994,"x_min":111,"x_max":942,"o":"m 111 0 l 111 986 l 461 986 q 728 920 621 986 q 888 742 835 854 q 942 494 942 631 q 883 233 942 344 q 715 61 824 122 q 461 0 607 0 l 111 0 m 783 494 q 745 678 783 599 q 635 803 707 758 q 461 849 564 849 l 267 849 l 267 138 l 461 138 q 637 185 565 138 q 746 313 708 232 q 783 494 783 393 m 428 -268 l 428 -107 l 565 -107 l 565 -268 l 428 -268 z "},"Ḏ":{"ha":994,"x_min":111,"x_max":942,"o":"m 111 0 l 111 986 l 461 986 q 728 920 621 986 q 888 742 835 854 q 942 494 942 631 q 883 233 942 344 q 715 61 824 122 q 461 0 607 0 l 111 0 m 783 494 q 745 678 783 599 q 635 803 707 758 q 461 849 564 849 l 267 849 l 267 138 l 461 138 q 637 185 565 138 q 746 313 708 232 q 783 494 783 393 m 292 -211 l 292 -115 l 703 -115 l 703 -211 l 292 -211 z "},"E":{"ha":838,"x_min":111,"x_max":788,"o":"m 788 138 l 788 0 l 111 0 l 111 986 l 775 986 l 775 849 l 267 849 l 267 568 l 707 568 l 707 439 l 267 439 l 267 138 l 788 138 z "},"É":{"ha":838,"x_min":111,"x_max":788,"o":"m 788 138 l 788 0 l 111 0 l 111 986 l 775 986 l 775 849 l 267 849 l 267 568 l 707 568 l 707 439 l 267 439 l 267 138 l 788 138 m 511 1089 l 411 1119 l 490 1272 l 636 1272 l 511 1089 z "},"Ĕ":{"ha":838,"x_min":111,"x_max":788,"o":"m 788 138 l 788 0 l 111 0 l 111 986 l 775 986 l 775 849 l 267 849 l 267 568 l 707 568 l 707 439 l 267 439 l 267 138 l 788 138 m 458 1174 q 512 1202 489 1174 q 539 1272 535 1231 l 624 1272 q 576 1151 624 1200 q 458 1103 529 1103 q 340 1151 388 1103 q 293 1272 293 1200 l 378 1272 q 402 1203 378 1233 q 458 1174 426 1174 z "},"Ě":{"ha":838,"x_min":111,"x_max":788,"o":"m 788 138 l 788 0 l 111 0 l 111 986 l 775 986 l 775 849 l 267 849 l 267 568 l 707 568 l 707 439 l 267 439 l 267 138 l 788 138 m 340 1272 l 458 1185 l 576 1272 l 658 1233 l 514 1101 l 404 1101 l 260 1233 l 340 1272 z "},"Ḝ":{"ha":838,"x_min":111,"x_max":788,"o":"m 788 138 l 788 0 l 111 0 l 111 986 l 775 986 l 775 849 l 267 849 l 267 568 l 707 568 l 707 439 l 267 439 l 267 138 l 788 138 m 442 -268 q 361 -258 404 -268 q 278 -228 318 -249 l 317 -146 q 365 -167 342 -160 q 415 -175 388 -175 q 476 -158 454 -175 q 499 -110 499 -142 q 476 -52 499 -78 q 413 0 454 -26 l 465 36 q 558 -40 522 0 q 593 -137 593 -79 q 553 -232 593 -196 q 442 -268 514 -268 m 458 1174 q 512 1202 489 1174 q 539 1272 535 1231 l 624 1272 q 576 1151 624 1200 q 458 1103 529 1103 q 340 1151 388 1103 q 293 1272 293 1200 l 378 1272 q 402 1203 378 1233 q 458 1174 426 1174 z "},"Ê":{"ha":838,"x_min":111,"x_max":788,"o":"m 788 138 l 788 0 l 111 0 l 111 986 l 775 986 l 775 849 l 267 849 l 267 568 l 707 568 l 707 439 l 267 439 l 267 138 l 788 138 m 260 1140 l 404 1272 l 514 1272 l 658 1140 l 576 1101 l 458 1189 l 340 1101 l 260 1140 z "},"Ế":{"ha":838,"x_min":111,"x_max":808,"o":"m 788 138 l 788 0 l 111 0 l 111 986 l 775 986 l 775 849 l 267 849 l 267 568 l 707 568 l 707 439 l 267 439 l 267 138 l 788 138 z "},"Ệ":{"ha":838,"x_min":111,"x_max":788,"o":"m 788 138 l 788 0 l 111 0 l 111 986 l 775 986 l 775 849 l 267 849 l 267 568 l 707 568 l 707 439 l 267 439 l 267 138 l 788 138 m 389 -268 l 389 -107 l 526 -107 l 526 -268 l 389 -268 m 260 1140 l 404 1272 l 514 1272 l 658 1140 l 576 1101 l 458 1189 l 340 1101 l 260 1140 z "},"Ề":{"ha":838,"x_min":100,"x_max":788,"o":"m 788 138 l 788 0 l 111 0 l 111 986 l 775 986 l 775 849 l 267 849 l 267 568 l 707 568 l 707 439 l 267 439 l 267 138 l 788 138 z "},"Ể":{"ha":838,"x_min":111,"x_max":788,"o":"m 788 138 l 788 0 l 111 0 l 111 986 l 775 986 l 775 849 l 267 849 l 267 568 l 707 568 l 707 439 l 267 439 l 267 138 l 788 138 z "},"Ễ":{"ha":838,"x_min":111,"x_max":788,"o":"m 788 138 l 788 0 l 111 0 l 111 986 l 775 986 l 775 849 l 267 849 l 267 568 l 707 568 l 707 439 l 267 439 l 267 138 l 788 138 z "},"Ȅ":{"ha":838,"x_min":111,"x_max":788,"o":"m 788 138 l 788 0 l 111 0 l 111 986 l 775 986 l 775 849 l 267 849 l 267 568 l 707 568 l 707 439 l 267 439 l 267 138 l 788 138 m 421 1274 l 544 1274 l 615 1121 l 539 1090 l 421 1274 m 215 1274 l 340 1274 l 411 1121 l 333 1090 l 215 1274 z "},"Ë":{"ha":838,"x_min":111,"x_max":788,"o":"m 788 138 l 788 0 l 111 0 l 111 986 l 775 986 l 775 849 l 267 849 l 267 568 l 707 568 l 707 439 l 267 439 l 267 138 l 788 138 m 272 1114 l 272 1267 l 400 1267 l 400 1114 l 272 1114 m 518 1114 l 518 1267 l 646 1267 l 646 1114 l 518 1114 z "},"Ė":{"ha":838,"x_min":111,"x_max":788,"o":"m 788 138 l 788 0 l 111 0 l 111 986 l 775 986 l 775 849 l 267 849 l 267 568 l 707 568 l 707 439 l 267 439 l 267 138 l 788 138 m 389 1113 l 389 1272 l 526 1272 l 526 1113 l 389 1113 z "},"Ẹ":{"ha":838,"x_min":111,"x_max":788,"o":"m 788 138 l 788 0 l 111 0 l 111 986 l 775 986 l 775 849 l 267 849 l 267 568 l 707 568 l 707 439 l 267 439 l 267 138 l 788 138 m 389 -268 l 389 -107 l 526 -107 l 526 -268 l 389 -268 z "},"È":{"ha":838,"x_min":111,"x_max":788,"o":"m 788 138 l 788 0 l 111 0 l 111 986 l 775 986 l 775 849 l 267 849 l 267 568 l 707 568 l 707 439 l 267 439 l 267 138 l 788 138 m 300 1272 l 446 1272 l 525 1119 l 428 1089 l 300 1272 z "},"Ẻ":{"ha":838,"x_min":111,"x_max":788,"o":"m 788 138 l 788 0 l 111 0 l 111 986 l 775 986 l 775 849 l 267 849 l 267 568 l 707 568 l 707 439 l 267 439 l 267 138 l 788 138 m 392 1219 l 340 1269 q 402 1313 371 1299 q 471 1326 433 1326 q 549 1297 522 1326 q 576 1229 576 1268 q 556 1164 576 1196 q 493 1097 536 1132 l 453 1143 q 486 1180 476 1164 q 496 1213 496 1196 q 485 1240 496 1229 q 457 1251 474 1251 q 425 1244 439 1251 q 392 1219 411 1238 z "},"Ȇ":{"ha":838,"x_min":111,"x_max":788,"o":"m 788 138 l 788 0 l 111 0 l 111 986 l 775 986 l 775 849 l 267 849 l 267 568 l 707 568 l 707 439 l 267 439 l 267 138 l 788 138 m 458 1201 q 402 1172 426 1201 q 378 1103 378 1142 l 293 1103 q 340 1224 293 1175 q 458 1272 388 1272 q 576 1224 529 1272 q 624 1103 624 1175 l 539 1103 q 512 1173 535 1144 q 458 1201 489 1201 z "},"Ē":{"ha":838,"x_min":111,"x_max":788,"o":"m 788 138 l 788 0 l 111 0 l 111 986 l 775 986 l 775 849 l 267 849 l 267 568 l 707 568 l 707 439 l 267 439 l 267 138 l 788 138 m 254 1153 l 254 1250 l 665 1250 l 665 1153 l 254 1153 z "},"Ḗ":{"ha":838,"x_min":111,"x_max":788,"o":"m 788 138 l 788 0 l 111 0 l 111 986 l 775 986 l 775 849 l 267 849 l 267 568 l 707 568 l 707 439 l 267 439 l 267 138 l 788 138 m 254 1153 l 254 1250 l 665 1250 l 665 1153 l 254 1153 m 513 1353 l 413 1383 l 492 1536 l 638 1536 l 513 1353 z "},"Ḕ":{"ha":838,"x_min":111,"x_max":788,"o":"m 788 138 l 788 0 l 111 0 l 111 986 l 775 986 l 775 849 l 267 849 l 267 568 l 707 568 l 707 439 l 267 439 l 267 138 l 788 138 m 254 1153 l 254 1250 l 665 1250 l 665 1153 l 254 1153 m 301 1538 l 447 1538 l 526 1385 l 429 1354 l 301 1538 z "},"Ę":{"ha":838,"x_min":111,"x_max":788,"o":"m 788 138 l 788 0 l 111 0 l 111 986 l 775 986 l 775 849 l 267 849 l 267 568 l 707 568 l 707 439 l 267 439 l 267 138 l 788 138 m 581 -151 q 614 -60 581 -104 q 717 28 647 -15 l 761 28 l 788 0 q 706 -70 732 -39 q 681 -126 681 -101 q 708 -165 681 -153 q 786 -179 736 -176 l 754 -269 q 647 -245 685 -264 q 595 -201 610 -226 q 581 -151 581 -176 z "},"Ẽ":{"ha":838,"x_min":111,"x_max":788,"o":"m 788 138 l 788 0 l 111 0 l 111 986 l 775 986 l 775 849 l 267 849 l 267 568 l 707 568 l 707 439 l 267 439 l 267 138 l 788 138 m 547 1113 q 476 1128 506 1113 q 422 1158 446 1143 q 367 1172 397 1172 q 322 1157 336 1172 q 303 1125 307 1142 q 299 1106 299 1108 l 213 1106 q 219 1142 213 1117 q 244 1197 226 1168 q 290 1245 261 1225 q 361 1265 318 1265 q 431 1250 403 1265 q 484 1219 458 1235 q 543 1204 510 1204 q 593 1220 578 1204 q 613 1253 608 1236 q 618 1272 618 1269 l 706 1272 q 698 1238 706 1263 q 672 1183 690 1213 q 624 1133 654 1154 q 547 1113 593 1113 z "},"F":{"ha":804,"x_min":111,"x_max":768,"o":"m 111 0 l 111 986 l 768 986 l 768 849 l 267 849 l 267 554 l 686 554 l 686 425 l 267 425 l 267 0 l 111 0 z "},"G":{"ha":999,"x_min":50,"x_max":932,"o":"m 514 -7 q 332 33 417 -7 q 184 144 247 74 q 85 306 121 215 q 50 497 50 396 q 85 688 50 599 q 184 846 121 776 q 333 954 247 915 q 519 993 418 993 q 756 934 660 993 q 901 778 853 875 l 782 692 q 672 813 743 772 q 515 853 600 853 q 389 824 446 853 q 291 744 332 794 q 229 628 250 693 q 208 493 208 564 q 232 353 208 418 q 299 238 256 288 q 400 161 342 189 q 526 133 458 133 q 680 174 607 133 q 817 297 753 215 l 817 139 q 514 -7 688 -7 m 801 383 l 594 383 l 594 499 l 932 499 l 932 0 l 801 0 l 801 383 z "},"Ğ":{"ha":999,"x_min":50,"x_max":932,"o":"m 514 -7 q 332 33 417 -7 q 184 144 247 74 q 85 306 121 215 q 50 497 50 396 q 85 688 50 599 q 184 846 121 776 q 333 954 247 915 q 519 993 418 993 q 756 934 660 993 q 901 778 853 875 l 782 692 q 672 813 743 772 q 515 853 600 853 q 389 824 446 853 q 291 744 332 794 q 229 628 250 693 q 208 493 208 564 q 232 353 208 418 q 299 238 256 288 q 400 161 342 189 q 526 133 458 133 q 680 174 607 133 q 817 297 753 215 l 817 139 q 514 -7 688 -7 m 801 383 l 594 383 l 594 499 l 932 499 l 932 0 l 801 0 l 801 383 m 518 1174 q 572 1202 549 1174 q 599 1272 594 1231 l 683 1272 q 636 1151 683 1200 q 518 1103 589 1103 q 400 1151 447 1103 q 353 1272 353 1200 l 438 1272 q 462 1203 438 1233 q 518 1174 486 1174 z "},"Ǧ":{"ha":999,"x_min":50,"x_max":932,"o":"m 514 -7 q 332 33 417 -7 q 184 144 247 74 q 85 306 121 215 q 50 497 50 396 q 85 688 50 599 q 184 846 121 776 q 333 954 247 915 q 519 993 418 993 q 756 934 660 993 q 901 778 853 875 l 782 692 q 672 813 743 772 q 515 853 600 853 q 389 824 446 853 q 291 744 332 794 q 229 628 250 693 q 208 493 208 564 q 232 353 208 418 q 299 238 256 288 q 400 161 342 189 q 526 133 458 133 q 680 174 607 133 q 817 297 753 215 l 817 139 q 514 -7 688 -7 m 801 383 l 594 383 l 594 499 l 932 499 l 932 0 l 801 0 l 801 383 m 399 1272 l 517 1185 l 635 1272 l 717 1233 l 572 1101 l 463 1101 l 318 1233 l 399 1272 z "},"Ĝ":{"ha":999,"x_min":50,"x_max":932,"o":"m 514 -7 q 332 33 417 -7 q 184 144 247 74 q 85 306 121 215 q 50 497 50 396 q 85 688 50 599 q 184 846 121 776 q 333 954 247 915 q 519 993 418 993 q 756 934 660 993 q 901 778 853 875 l 782 692 q 672 813 743 772 q 515 853 600 853 q 389 824 446 853 q 291 744 332 794 q 229 628 250 693 q 208 493 208 564 q 232 353 208 418 q 299 238 256 288 q 400 161 342 189 q 526 133 458 133 q 680 174 607 133 q 817 297 753 215 l 817 139 q 514 -7 688 -7 m 801 383 l 594 383 l 594 499 l 932 499 l 932 0 l 801 0 l 801 383 m 318 1140 l 463 1272 l 572 1272 l 717 1140 l 635 1101 l 517 1189 l 399 1101 l 318 1140 z "},"Ģ":{"ha":999,"x_min":50,"x_max":932,"o":"m 514 -7 q 332 33 417 -7 q 184 144 247 74 q 85 306 121 215 q 50 497 50 396 q 85 688 50 599 q 184 846 121 776 q 333 954 247 915 q 519 993 418 993 q 756 934 660 993 q 901 778 853 875 l 782 692 q 672 813 743 772 q 515 853 600 853 q 389 824 446 853 q 291 744 332 794 q 229 628 250 693 q 208 493 208 564 q 232 353 208 418 q 299 238 256 288 q 400 161 342 189 q 526 133 458 133 q 680 174 607 133 q 817 297 753 215 l 817 139 q 514 -7 688 -7 m 801 383 l 594 383 l 594 499 l 932 499 l 932 0 l 801 0 l 801 383 m 461 -296 l 493 -189 l 449 -189 l 449 -67 l 581 -67 l 581 -189 l 532 -296 l 461 -296 z "},"Ġ":{"ha":999,"x_min":50,"x_max":932,"o":"m 514 -7 q 332 33 417 -7 q 184 144 247 74 q 85 306 121 215 q 50 497 50 396 q 85 688 50 599 q 184 846 121 776 q 333 954 247 915 q 519 993 418 993 q 756 934 660 993 q 901 778 853 875 l 782 692 q 672 813 743 772 q 515 853 600 853 q 389 824 446 853 q 291 744 332 794 q 229 628 250 693 q 208 493 208 564 q 232 353 208 418 q 299 238 256 288 q 400 161 342 189 q 526 133 458 133 q 680 174 607 133 q 817 297 753 215 l 817 139 q 514 -7 688 -7 m 801 383 l 594 383 l 594 499 l 932 499 l 932 0 l 801 0 l 801 383 m 449 1113 l 449 1272 l 586 1272 l 586 1113 l 449 1113 z "},"Ḡ":{"ha":999,"x_min":50,"x_max":932,"o":"m 514 -7 q 332 33 417 -7 q 184 144 247 74 q 85 306 121 215 q 50 497 50 396 q 85 688 50 599 q 184 846 121 776 q 333 954 247 915 q 519 993 418 993 q 756 934 660 993 q 901 778 853 875 l 782 692 q 672 813 743 772 q 515 853 600 853 q 389 824 446 853 q 291 744 332 794 q 229 628 250 693 q 208 493 208 564 q 232 353 208 418 q 299 238 256 288 q 400 161 342 189 q 526 133 458 133 q 680 174 607 133 q 817 297 753 215 l 817 139 q 514 -7 688 -7 m 801 383 l 594 383 l 594 499 l 932 499 l 932 0 l 801 0 l 801 383 m 314 1153 l 314 1250 l 725 1250 l 725 1153 l 314 1153 z "},"H":{"ha":1032,"x_min":111,"x_max":921,"o":"m 921 986 l 921 0 l 764 0 l 764 435 l 267 435 l 267 0 l 111 0 l 111 986 l 267 986 l 267 574 l 764 574 l 764 986 l 921 986 z "},"Ħ":{"ha":1044,"x_min":47,"x_max":997,"o":"m 47 738 l 47 836 l 997 836 l 997 738 l 47 738 m 928 986 l 928 0 l 771 0 l 771 435 l 274 435 l 274 0 l 117 0 l 117 986 l 274 986 l 274 574 l 771 574 l 771 986 l 928 986 z "},"Ḫ":{"ha":1032,"x_min":111,"x_max":921,"o":"m 921 986 l 921 0 l 764 0 l 764 435 l 267 435 l 267 0 l 111 0 l 111 986 l 267 986 l 267 574 l 764 574 l 764 986 l 921 986 m 517 -174 q 570 -145 547 -174 q 597 -75 593 -117 l 682 -75 q 635 -196 682 -147 q 517 -244 588 -244 q 399 -196 446 -244 q 351 -75 351 -147 l 436 -75 q 460 -144 436 -114 q 517 -174 485 -174 z "},"Ĥ":{"ha":1032,"x_min":111,"x_max":921,"o":"m 921 986 l 921 0 l 764 0 l 764 435 l 267 435 l 267 0 l 111 0 l 111 986 l 267 986 l 267 574 l 764 574 l 764 986 l 921 986 m 321 1139 l 465 1271 l 575 1271 l 719 1139 l 638 1100 l 519 1188 l 401 1100 l 321 1139 z "},"Ḥ":{"ha":1032,"x_min":111,"x_max":921,"o":"m 921 986 l 921 0 l 764 0 l 764 435 l 267 435 l 267 0 l 111 0 l 111 986 l 267 986 l 267 574 l 764 574 l 764 986 l 921 986 m 447 -268 l 447 -107 l 585 -107 l 585 -268 l 447 -268 z "},"I":{"ha":378,"x_min":111,"x_max":267,"o":"m 111 0 l 111 986 l 267 986 l 267 0 l 111 0 z "},"Í":{"ha":378,"x_min":111,"x_max":367,"o":"m 111 0 l 111 986 l 267 986 l 267 0 l 111 0 m 242 1089 l 142 1119 l 221 1272 l 367 1272 l 242 1089 z "},"Ĭ":{"ha":378,"x_min":24,"x_max":354,"o":"m 111 0 l 111 986 l 267 986 l 267 0 l 111 0 m 189 1174 q 242 1202 219 1174 q 269 1272 265 1231 l 354 1272 q 307 1151 354 1200 q 189 1103 260 1103 q 71 1151 118 1103 q 24 1272 24 1200 l 108 1272 q 133 1203 108 1233 q 189 1174 157 1174 z "},"Î":{"ha":378,"x_min":-10,"x_max":388,"o":"m 111 0 l 111 986 l 267 986 l 267 0 l 111 0 m -10 1140 l 135 1272 l 244 1272 l 389 1140 l 307 1101 l 189 1189 l 71 1101 l -10 1140 z "},"Ȉ":{"ha":378,"x_min":-54,"x_max":347,"o":"m 111 0 l 111 986 l 267 986 l 267 0 l 111 0 m 151 1274 l 275 1274 l 346 1121 l 269 1090 l 151 1274 m -54 1274 l 71 1274 l 142 1121 l 64 1090 l -54 1274 z "},"Ï":{"ha":378,"x_min":3,"x_max":375,"o":"m 111 0 l 111 986 l 267 986 l 267 0 l 111 0 m 3 1114 l 3 1267 l 131 1267 l 131 1114 l 3 1114 m 249 1114 l 249 1267 l 376 1267 l 376 1114 l 249 1114 z "},"Ḯ":{"ha":378,"x_min":3,"x_max":375,"o":"m 111 0 l 111 986 l 267 986 l 267 0 l 111 0 m 3 1114 l 3 1267 l 131 1267 l 131 1114 l 3 1114 m 249 1114 l 249 1267 l 376 1267 l 376 1114 l 249 1114 m 242 1364 l 142 1394 l 221 1547 l 367 1547 l 242 1364 z "},"İ":{"ha":378,"x_min":111,"x_max":267,"o":"m 111 0 l 111 986 l 267 986 l 267 0 l 111 0 m 119 1113 l 119 1272 l 257 1272 l 257 1113 l 119 1113 z "},"Ị":{"ha":378,"x_min":111,"x_max":267,"o":"m 111 0 l 111 986 l 267 986 l 267 0 l 111 0 m 119 -268 l 119 -107 l 257 -107 l 257 -268 l 119 -268 z "},"Ì":{"ha":378,"x_min":31,"x_max":267,"o":"m 111 0 l 111 986 l 267 986 l 267 0 l 111 0 m 31 1272 l 176 1272 l 256 1119 l 158 1089 l 31 1272 z "},"Ỉ":{"ha":378,"x_min":71,"x_max":307,"o":"m 111 0 l 111 986 l 267 986 l 267 0 l 111 0 m 122 1219 l 71 1269 q 133 1313 101 1299 q 201 1326 164 1326 q 280 1297 253 1326 q 307 1229 307 1268 q 287 1164 307 1196 q 224 1097 267 1132 l 183 1143 q 217 1180 207 1164 q 226 1213 226 1196 q 215 1240 226 1229 q 188 1251 204 1251 q 156 1244 169 1251 q 122 1219 142 1238 z "},"Ȋ":{"ha":378,"x_min":24,"x_max":354,"o":"m 111 0 l 111 986 l 267 986 l 267 0 l 111 0 m 189 1201 q 133 1172 157 1201 q 108 1103 108 1142 l 24 1103 q 71 1224 24 1175 q 189 1272 118 1272 q 307 1224 260 1272 q 354 1103 354 1175 l 269 1103 q 242 1173 265 1144 q 189 1201 219 1201 z "},"Ī":{"ha":378,"x_min":-15,"x_max":396,"o":"m 111 0 l 111 986 l 267 986 l 267 0 l 111 0 m -15 1153 l -15 1250 l 396 1250 l 396 1153 l -15 1153 z "},"Į":{"ha":378,"x_min":61,"x_max":267,"o":"m 111 0 l 111 986 l 267 986 l 267 0 l 111 0 m 61 -151 q 94 -60 61 -104 q 197 28 128 -15 l 242 28 l 268 0 q 187 -70 213 -39 q 161 -126 161 -101 q 189 -165 161 -153 q 267 -179 217 -176 l 235 -269 q 128 -245 165 -264 q 76 -201 90 -226 q 61 -151 61 -176 z "},"Ĩ":{"ha":378,"x_min":-57,"x_max":436,"o":"m 111 0 l 111 986 l 267 986 l 267 0 l 111 0 m 278 1113 q 206 1128 236 1113 q 152 1158 176 1143 q 97 1172 128 1172 q 52 1157 67 1172 q 33 1125 38 1142 q 29 1106 29 1108 l -57 1106 q -50 1142 -57 1117 q -26 1197 -43 1168 q 20 1245 -8 1225 q 92 1265 49 1265 q 161 1250 133 1265 q 215 1219 189 1235 q 274 1204 240 1204 q 324 1220 308 1204 q 344 1253 339 1236 q 349 1272 349 1269 l 436 1272 q 428 1238 436 1263 q 403 1183 421 1213 q 354 1133 385 1154 q 278 1113 324 1113 z "},"J":{"ha":678,"x_min":14,"x_max":578,"o":"m 51 174 q 119 141 74 157 q 228 125 165 125 q 327 145 289 125 q 385 206 365 165 q 413 311 406 247 q 421 463 421 375 l 421 986 l 578 986 l 578 485 q 566 283 578 375 q 519 124 554 192 q 416 21 485 57 q 232 -15 347 -15 q 111 0 164 -15 q 14 46 58 15 l 51 174 z "},"Ĵ":{"ha":678,"x_min":14,"x_max":700,"o":"m 51 174 q 119 141 74 157 q 228 125 165 125 q 327 145 289 125 q 385 206 365 165 q 413 311 406 247 q 421 463 421 375 l 421 986 l 578 986 l 578 485 q 566 283 578 375 q 519 124 554 192 q 416 21 485 57 q 232 -15 347 -15 q 111 0 164 -15 q 14 46 58 15 l 51 174 m 303 1140 l 447 1272 l 557 1272 l 701 1140 l 619 1101 l 501 1189 l 383 1101 l 303 1140 z "},"K":{"ha":917,"x_min":111,"x_max":925,"o":"m 111 0 l 111 985 l 267 985 l 267 478 l 731 986 l 903 986 l 514 550 l 925 0 l 749 0 l 415 451 l 267 297 l 267 0 l 111 0 z "},"Ķ":{"ha":917,"x_min":111,"x_max":925,"o":"m 111 0 l 111 985 l 267 985 l 267 478 l 731 986 l 903 986 l 514 550 l 925 0 l 749 0 l 415 451 l 267 297 l 267 0 l 111 0 m 421 -296 l 453 -189 l 408 -189 l 408 -67 l 540 -67 l 540 -189 l 492 -296 l 421 -296 z "},"L":{"ha":811,"x_min":111,"x_max":796,"o":"m 111 0 l 111 986 l 267 986 l 267 138 l 796 138 l 796 0 l 111 0 z "},"Ĺ":{"ha":811,"x_min":111,"x_max":796,"o":"m 111 0 l 111 986 l 267 986 l 267 138 l 796 138 l 796 0 l 111 0 m 239 1089 l 139 1119 l 218 1272 l 364 1272 l 239 1089 z "},"Ľ":{"ha":811,"x_min":111,"x_max":796,"o":"m 111 0 l 111 986 l 267 986 l 267 138 l 796 138 l 796 0 l 111 0 m 608 835 l 508 865 l 588 1018 l 733 1018 l 608 835 z "},"Ļ":{"ha":811,"x_min":111,"x_max":796,"o":"m 111 0 l 111 986 l 267 986 l 267 138 l 796 138 l 796 0 l 111 0 m 408 -296 l 440 -189 l 396 -189 l 396 -67 l 528 -67 l 528 -189 l 479 -296 l 408 -296 z "},"Ŀ":{"ha":811,"x_min":111,"x_max":796,"o":"m 111 0 l 111 986 l 267 986 l 267 138 l 796 138 l 796 0 l 111 0 m 508 468 l 508 658 l 635 658 l 635 468 l 508 468 z "},"Ḷ":{"ha":811,"x_min":111,"x_max":796,"o":"m 111 0 l 111 986 l 267 986 l 267 138 l 796 138 l 796 0 l 111 0 m 397 -268 l 397 -107 l 535 -107 l 535 -268 l 397 -268 z "},"Ḻ":{"ha":811,"x_min":111,"x_max":796,"o":"m 111 0 l 111 986 l 267 986 l 267 138 l 796 138 l 796 0 l 111 0 m 261 -211 l 261 -115 l 672 -115 l 672 -211 l 261 -211 z "},"Ł":{"ha":822,"x_min":6,"x_max":807,"o":"m 47 329 l 6 414 l 454 728 l 494 644 l 47 329 m 122 0 l 122 986 l 279 986 l 279 138 l 807 138 l 807 0 l 122 0 z "},"M":{"ha":1208,"x_min":111,"x_max":1097,"o":"m 940 0 l 940 703 l 650 169 l 558 169 l 267 703 l 267 0 l 111 0 l 111 986 l 278 986 l 604 383 l 931 986 l 1097 986 l 1097 0 l 940 0 z "},"Ṃ":{"ha":1208,"x_min":111,"x_max":1097,"o":"m 940 0 l 940 703 l 650 169 l 558 169 l 267 703 l 267 0 l 111 0 l 111 986 l 278 986 l 604 383 l 931 986 l 1097 986 l 1097 0 l 940 0 m 535 -268 l 535 -107 l 672 -107 l 672 -268 l 535 -268 z "},"N":{"ha":1065,"x_min":111,"x_max":954,"o":"m 267 697 l 267 0 l 111 0 l 111 986 l 239 986 l 797 274 l 797 985 l 954 985 l 954 0 l 818 0 l 267 697 z "},"Ń":{"ha":1065,"x_min":111,"x_max":954,"o":"m 267 697 l 267 0 l 111 0 l 111 986 l 239 986 l 797 274 l 797 985 l 954 985 l 954 0 l 818 0 l 267 697 m 586 1088 l 486 1118 l 565 1271 l 711 1271 l 586 1088 z "},"Ň":{"ha":1065,"x_min":111,"x_max":954,"o":"m 267 697 l 267 0 l 111 0 l 111 986 l 239 986 l 797 274 l 797 985 l 954 985 l 954 0 l 818 0 l 267 697 m 415 1271 l 533 1183 l 651 1271 l 733 1232 l 589 1100 l 479 1100 l 335 1232 l 415 1271 z "},"Ņ":{"ha":1065,"x_min":111,"x_max":954,"o":"m 267 697 l 267 0 l 111 0 l 111 986 l 239 986 l 797 274 l 797 985 l 954 985 l 954 0 l 818 0 l 267 697 m 475 -296 l 507 -189 l 463 -189 l 463 -67 l 594 -67 l 594 -189 l 546 -296 l 475 -296 z "},"Ṅ":{"ha":1065,"x_min":111,"x_max":954,"o":"m 267 697 l 267 0 l 111 0 l 111 986 l 239 986 l 797 274 l 797 985 l 954 985 l 954 0 l 818 0 l 267 697 m 464 1111 l 464 1271 l 601 1271 l 601 1111 l 464 1111 z "},"Ṇ":{"ha":1065,"x_min":111,"x_max":954,"o":"m 267 697 l 267 0 l 111 0 l 111 986 l 239 986 l 797 274 l 797 985 l 954 985 l 954 0 l 818 0 l 267 697 m 464 -268 l 464 -107 l 601 -107 l 601 -268 l 464 -268 z "},"Ŋ":{"ha":1050,"x_min":111,"x_max":939,"o":"m 267 692 l 267 0 l 111 0 l 111 986 l 231 986 l 782 283 l 782 985 l 939 985 l 939 -21 q 906 -149 939 -93 q 818 -235 872 -204 q 700 -265 764 -265 q 606 -250 650 -265 q 525 -203 561 -235 l 593 -100 q 635 -124 611 -117 q 682 -132 658 -132 q 733 -118 710 -132 q 771 -80 756 -104 q 786 -26 786 -56 l 786 29 l 267 692 z "},"Ṉ":{"ha":1065,"x_min":111,"x_max":954,"o":"m 267 697 l 267 0 l 111 0 l 111 986 l 239 986 l 797 274 l 797 985 l 954 985 l 954 0 l 818 0 l 267 697 m 329 -211 l 329 -115 l 740 -115 l 740 -211 l 329 -211 z "},"Ñ":{"ha":1065,"x_min":111,"x_max":954,"o":"m 267 697 l 267 0 l 111 0 l 111 986 l 239 986 l 797 274 l 797 985 l 954 985 l 954 0 l 818 0 l 267 697 m 622 1111 q 551 1126 581 1111 q 497 1156 521 1142 q 442 1171 472 1171 q 397 1156 411 1171 q 378 1124 382 1140 q 374 1104 374 1107 l 288 1104 q 294 1141 288 1115 q 319 1195 301 1167 q 365 1244 336 1224 q 436 1264 393 1264 q 506 1249 478 1264 q 559 1218 533 1233 q 618 1203 585 1203 q 668 1219 653 1203 q 688 1251 683 1235 q 693 1271 693 1268 l 781 1271 q 773 1236 781 1261 q 747 1182 765 1211 q 699 1132 729 1153 q 622 1111 668 1111 z "},"O":{"ha":1044,"x_min":49,"x_max":994,"o":"m 521 -7 q 328 35 414 -7 q 179 148 242 76 q 83 309 117 219 q 49 493 49 399 q 85 681 49 592 q 185 841 121 771 q 335 952 249 911 q 524 993 422 993 q 716 950 629 993 q 865 835 803 907 q 960 674 926 763 q 994 492 994 585 q 959 303 994 393 q 860 144 924 214 q 709 33 796 74 q 521 -7 622 -7 m 207 493 q 229 358 207 424 q 292 242 251 293 q 392 163 333 192 q 522 133 450 133 q 656 164 597 133 q 753 247 714 194 q 814 363 793 299 q 835 493 835 428 q 813 627 835 563 q 750 742 792 692 q 651 822 708 793 q 522 851 593 851 q 389 821 447 851 q 290 739 331 790 q 228 624 250 688 q 207 493 207 560 z "},"Ó":{"ha":1044,"x_min":49,"x_max":994,"o":"m 521 -7 q 328 35 414 -7 q 179 148 242 76 q 83 309 117 219 q 49 493 49 399 q 85 681 49 592 q 185 841 121 771 q 335 952 249 911 q 524 993 422 993 q 716 950 629 993 q 865 835 803 907 q 960 674 926 763 q 994 492 994 585 q 959 303 994 393 q 860 144 924 214 q 709 33 796 74 q 521 -7 622 -7 m 207 493 q 229 358 207 424 q 292 242 251 293 q 392 163 333 192 q 522 133 450 133 q 656 164 597 133 q 753 247 714 194 q 814 363 793 299 q 835 493 835 428 q 813 627 835 563 q 750 742 792 692 q 651 822 708 793 q 522 851 593 851 q 389 821 447 851 q 290 739 331 790 q 228 624 250 688 q 207 493 207 560 m 576 1089 l 476 1119 l 556 1272 l 701 1272 l 576 1089 z "},"Ŏ":{"ha":1044,"x_min":49,"x_max":994,"o":"m 521 -7 q 328 35 414 -7 q 179 148 242 76 q 83 309 117 219 q 49 493 49 399 q 85 681 49 592 q 185 841 121 771 q 335 952 249 911 q 524 993 422 993 q 716 950 629 993 q 865 835 803 907 q 960 674 926 763 q 994 492 994 585 q 959 303 994 393 q 860 144 924 214 q 709 33 796 74 q 521 -7 622 -7 m 207 493 q 229 358 207 424 q 292 242 251 293 q 392 163 333 192 q 522 133 450 133 q 656 164 597 133 q 753 247 714 194 q 814 363 793 299 q 835 493 835 428 q 813 627 835 563 q 750 742 792 692 q 651 822 708 793 q 522 851 593 851 q 389 821 447 851 q 290 739 331 790 q 228 624 250 688 q 207 493 207 560 m 524 1174 q 577 1202 554 1174 q 604 1272 600 1231 l 689 1272 q 642 1151 689 1200 q 524 1103 594 1103 q 406 1151 453 1103 q 358 1272 358 1200 l 443 1272 q 467 1203 443 1233 q 524 1174 492 1174 z "},"Ô":{"ha":1044,"x_min":49,"x_max":994,"o":"m 521 -7 q 328 35 414 -7 q 179 148 242 76 q 83 309 117 219 q 49 493 49 399 q 85 681 49 592 q 185 841 121 771 q 335 952 249 911 q 524 993 422 993 q 716 950 629 993 q 865 835 803 907 q 960 674 926 763 q 994 492 994 585 q 959 303 994 393 q 860 144 924 214 q 709 33 796 74 q 521 -7 622 -7 m 207 493 q 229 358 207 424 q 292 242 251 293 q 392 163 333 192 q 522 133 450 133 q 656 164 597 133 q 753 247 714 194 q 814 363 793 299 q 835 493 835 428 q 813 627 835 563 q 750 742 792 692 q 651 822 708 793 q 522 851 593 851 q 389 821 447 851 q 290 739 331 790 q 228 624 250 688 q 207 493 207 560 m 325 1140 l 469 1272 l 579 1272 l 724 1140 l 642 1101 l 524 1189 l 406 1101 l 325 1140 z "},"Ố":{"ha":1044,"x_min":49,"x_max":994,"o":"m 521 -7 q 328 35 414 -7 q 179 148 242 76 q 83 309 117 219 q 49 493 49 399 q 85 681 49 592 q 185 841 121 771 q 335 952 249 911 q 524 993 422 993 q 716 950 629 993 q 865 835 803 907 q 960 674 926 763 q 994 492 994 585 q 959 303 994 393 q 860 144 924 214 q 709 33 796 74 q 521 -7 622 -7 m 207 493 q 229 358 207 424 q 292 242 251 293 q 392 163 333 192 q 522 133 450 133 q 656 164 597 133 q 753 247 714 194 q 814 363 793 299 q 835 493 835 428 q 813 627 835 563 q 750 742 792 692 q 651 822 708 793 q 522 851 593 851 q 389 821 447 851 q 290 739 331 790 q 228 624 250 688 q 207 493 207 560 z "},"Ộ":{"ha":1044,"x_min":49,"x_max":994,"o":"m 521 -7 q 328 35 414 -7 q 179 148 242 76 q 83 309 117 219 q 49 493 49 399 q 85 681 49 592 q 185 841 121 771 q 335 952 249 911 q 524 993 422 993 q 716 950 629 993 q 865 835 803 907 q 960 674 926 763 q 994 492 994 585 q 959 303 994 393 q 860 144 924 214 q 709 33 796 74 q 521 -7 622 -7 m 207 493 q 229 358 207 424 q 292 242 251 293 q 392 163 333 192 q 522 133 450 133 q 656 164 597 133 q 753 247 714 194 q 814 363 793 299 q 835 493 835 428 q 813 627 835 563 q 750 742 792 692 q 651 822 708 793 q 522 851 593 851 q 389 821 447 851 q 290 739 331 790 q 228 624 250 688 q 207 493 207 560 m 451 -268 l 451 -107 l 589 -107 l 589 -268 l 451 -268 m 325 1140 l 469 1272 l 579 1272 l 724 1140 l 642 1101 l 524 1189 l 406 1101 l 325 1140 z "},"Ồ":{"ha":1044,"x_min":49,"x_max":994,"o":"m 521 -7 q 328 35 414 -7 q 179 148 242 76 q 83 309 117 219 q 49 493 49 399 q 85 681 49 592 q 185 841 121 771 q 335 952 249 911 q 524 993 422 993 q 716 950 629 993 q 865 835 803 907 q 960 674 926 763 q 994 492 994 585 q 959 303 994 393 q 860 144 924 214 q 709 33 796 74 q 521 -7 622 -7 m 207 493 q 229 358 207 424 q 292 242 251 293 q 392 163 333 192 q 522 133 450 133 q 656 164 597 133 q 753 247 714 194 q 814 363 793 299 q 835 493 835 428 q 813 627 835 563 q 750 742 792 692 q 651 822 708 793 q 522 851 593 851 q 389 821 447 851 q 290 739 331 790 q 228 624 250 688 q 207 493 207 560 z "},"Ổ":{"ha":1044,"x_min":49,"x_max":994,"o":"m 521 -7 q 328 35 414 -7 q 179 148 242 76 q 83 309 117 219 q 49 493 49 399 q 85 681 49 592 q 185 841 121 771 q 335 952 249 911 q 524 993 422 993 q 716 950 629 993 q 865 835 803 907 q 960 674 926 763 q 994 492 994 585 q 959 303 994 393 q 860 144 924 214 q 709 33 796 74 q 521 -7 622 -7 m 207 493 q 229 358 207 424 q 292 242 251 293 q 392 163 333 192 q 522 133 450 133 q 656 164 597 133 q 753 247 714 194 q 814 363 793 299 q 835 493 835 428 q 813 627 835 563 q 750 742 792 692 q 651 822 708 793 q 522 851 593 851 q 389 821 447 851 q 290 739 331 790 q 228 624 250 688 q 207 493 207 560 z "},"Ỗ":{"ha":1044,"x_min":49,"x_max":994,"o":"m 521 -7 q 328 35 414 -7 q 179 148 242 76 q 83 309 117 219 q 49 493 49 399 q 85 681 49 592 q 185 841 121 771 q 335 952 249 911 q 524 993 422 993 q 716 950 629 993 q 865 835 803 907 q 960 674 926 763 q 994 492 994 585 q 959 303 994 393 q 860 144 924 214 q 709 33 796 74 q 521 -7 622 -7 m 207 493 q 229 358 207 424 q 292 242 251 293 q 392 163 333 192 q 522 133 450 133 q 656 164 597 133 q 753 247 714 194 q 814 363 793 299 q 835 493 835 428 q 813 627 835 563 q 750 742 792 692 q 651 822 708 793 q 522 851 593 851 q 389 821 447 851 q 290 739 331 790 q 228 624 250 688 q 207 493 207 560 z "},"Ȍ":{"ha":1044,"x_min":49,"x_max":994,"o":"m 521 -7 q 328 35 414 -7 q 179 148 242 76 q 83 309 117 219 q 49 493 49 399 q 85 681 49 592 q 185 841 121 771 q 335 952 249 911 q 524 993 422 993 q 716 950 629 993 q 865 835 803 907 q 960 674 926 763 q 994 492 994 585 q 959 303 994 393 q 860 144 924 214 q 709 33 796 74 q 521 -7 622 -7 m 207 493 q 229 358 207 424 q 292 242 251 293 q 392 163 333 192 q 522 133 450 133 q 656 164 597 133 q 753 247 714 194 q 814 363 793 299 q 835 493 835 428 q 813 627 835 563 q 750 742 792 692 q 651 822 708 793 q 522 851 593 851 q 389 821 447 851 q 290 739 331 790 q 228 624 250 688 q 207 493 207 560 m 486 1274 l 610 1274 l 681 1121 l 604 1090 l 486 1274 m 281 1274 l 406 1274 l 476 1121 l 399 1090 l 281 1274 z "},"Ö":{"ha":1044,"x_min":49,"x_max":994,"o":"m 521 -7 q 328 35 414 -7 q 179 148 242 76 q 83 309 117 219 q 49 493 49 399 q 85 681 49 592 q 185 841 121 771 q 335 952 249 911 q 524 993 422 993 q 716 950 629 993 q 865 835 803 907 q 960 674 926 763 q 994 492 994 585 q 959 303 994 393 q 860 144 924 214 q 709 33 796 74 q 521 -7 622 -7 m 207 493 q 229 358 207 424 q 292 242 251 293 q 392 163 333 192 q 522 133 450 133 q 656 164 597 133 q 753 247 714 194 q 814 363 793 299 q 835 493 835 428 q 813 627 835 563 q 750 742 792 692 q 651 822 708 793 q 522 851 593 851 q 389 821 447 851 q 290 739 331 790 q 228 624 250 688 q 207 493 207 560 m 338 1114 l 338 1267 l 465 1267 l 465 1114 l 338 1114 m 583 1114 l 583 1267 l 711 1267 l 711 1114 l 583 1114 z "},"Ȫ":{"ha":1044,"x_min":49,"x_max":994,"o":"m 521 -7 q 328 35 414 -7 q 179 148 242 76 q 83 309 117 219 q 49 493 49 399 q 85 681 49 592 q 185 841 121 771 q 335 952 249 911 q 524 993 422 993 q 716 950 629 993 q 865 835 803 907 q 960 674 926 763 q 994 492 994 585 q 959 303 994 393 q 860 144 924 214 q 709 33 796 74 q 521 -7 622 -7 m 207 493 q 229 358 207 424 q 292 242 251 293 q 392 163 333 192 q 522 133 450 133 q 656 164 597 133 q 753 247 714 194 q 814 363 793 299 q 835 493 835 428 q 813 627 835 563 q 750 742 792 692 q 651 822 708 793 q 522 851 593 851 q 389 821 447 851 q 290 739 331 790 q 228 624 250 688 q 207 493 207 560 m 338 1114 l 338 1267 l 465 1267 l 465 1114 l 338 1114 m 583 1114 l 583 1267 l 711 1267 l 711 1114 l 583 1114 m 319 1428 l 319 1525 l 731 1525 l 731 1428 l 319 1428 z "},"Ȱ":{"ha":1044,"x_min":49,"x_max":994,"o":"m 521 -7 q 328 35 414 -7 q 179 148 242 76 q 83 309 117 219 q 49 493 49 399 q 85 681 49 592 q 185 841 121 771 q 335 952 249 911 q 524 993 422 993 q 716 950 629 993 q 865 835 803 907 q 960 674 926 763 q 994 492 994 585 q 959 303 994 393 q 860 144 924 214 q 709 33 796 74 q 521 -7 622 -7 m 207 493 q 229 358 207 424 q 292 242 251 293 q 392 163 333 192 q 522 133 450 133 q 656 164 597 133 q 753 247 714 194 q 814 363 793 299 q 835 493 835 428 q 813 627 835 563 q 750 742 792 692 q 651 822 708 793 q 522 851 593 851 q 389 821 447 851 q 290 739 331 790 q 228 624 250 688 q 207 493 207 560 m 454 1113 l 454 1272 l 592 1272 l 592 1113 l 454 1113 m 319 1440 l 319 1538 l 731 1538 l 731 1440 l 319 1440 z "},"Ọ":{"ha":1044,"x_min":49,"x_max":994,"o":"m 521 -7 q 328 35 414 -7 q 179 148 242 76 q 83 309 117 219 q 49 493 49 399 q 85 681 49 592 q 185 841 121 771 q 335 952 249 911 q 524 993 422 993 q 716 950 629 993 q 865 835 803 907 q 960 674 926 763 q 994 492 994 585 q 959 303 994 393 q 860 144 924 214 q 709 33 796 74 q 521 -7 622 -7 m 207 493 q 229 358 207 424 q 292 242 251 293 q 392 163 333 192 q 522 133 450 133 q 656 164 597 133 q 753 247 714 194 q 814 363 793 299 q 835 493 835 428 q 813 627 835 563 q 750 742 792 692 q 651 822 708 793 q 522 851 593 851 q 389 821 447 851 q 290 739 331 790 q 228 624 250 688 q 207 493 207 560 m 451 -268 l 451 -107 l 589 -107 l 589 -268 l 451 -268 z "},"Ò":{"ha":1044,"x_min":49,"x_max":994,"o":"m 521 -7 q 328 35 414 -7 q 179 148 242 76 q 83 309 117 219 q 49 493 49 399 q 85 681 49 592 q 185 841 121 771 q 335 952 249 911 q 524 993 422 993 q 716 950 629 993 q 865 835 803 907 q 960 674 926 763 q 994 492 994 585 q 959 303 994 393 q 860 144 924 214 q 709 33 796 74 q 521 -7 622 -7 m 207 493 q 229 358 207 424 q 292 242 251 293 q 392 163 333 192 q 522 133 450 133 q 656 164 597 133 q 753 247 714 194 q 814 363 793 299 q 835 493 835 428 q 813 627 835 563 q 750 742 792 692 q 651 822 708 793 q 522 851 593 851 q 389 821 447 851 q 290 739 331 790 q 228 624 250 688 q 207 493 207 560 m 365 1272 l 511 1272 l 590 1119 l 493 1089 l 365 1272 z "},"Ỏ":{"ha":1044,"x_min":49,"x_max":994,"o":"m 521 -7 q 328 35 414 -7 q 179 148 242 76 q 83 309 117 219 q 49 493 49 399 q 85 681 49 592 q 185 841 121 771 q 335 952 249 911 q 524 993 422 993 q 716 950 629 993 q 865 835 803 907 q 960 674 926 763 q 994 492 994 585 q 959 303 994 393 q 860 144 924 214 q 709 33 796 74 q 521 -7 622 -7 m 207 493 q 229 358 207 424 q 292 242 251 293 q 392 163 333 192 q 522 133 450 133 q 656 164 597 133 q 753 247 714 194 q 814 363 793 299 q 835 493 835 428 q 813 627 835 563 q 750 742 792 692 q 651 822 708 793 q 522 851 593 851 q 389 821 447 851 q 290 739 331 790 q 228 624 250 688 q 207 493 207 560 m 457 1219 l 406 1269 q 467 1313 436 1299 q 536 1326 499 1326 q 615 1297 588 1326 q 642 1229 642 1268 q 622 1164 642 1196 q 558 1097 601 1132 l 518 1143 q 551 1180 542 1164 q 561 1213 561 1196 q 550 1240 561 1229 q 522 1251 539 1251 q 490 1244 504 1251 q 457 1219 476 1238 z "},"Ơ":{"ha":1044,"x_min":49,"x_max":994,"o":"m 521 -7 q 328 35 414 -7 q 179 148 242 76 q 83 309 117 219 q 49 493 49 399 q 85 681 49 592 q 185 841 121 771 q 335 952 249 911 q 524 993 422 993 q 716 950 629 993 q 865 835 803 907 q 960 674 926 763 q 994 492 994 585 q 959 303 994 393 q 860 144 924 214 q 709 33 796 74 q 521 -7 622 -7 m 207 493 q 229 358 207 424 q 292 242 251 293 q 392 163 333 192 q 522 133 450 133 q 656 164 597 133 q 753 247 714 194 q 814 363 793 299 q 835 493 835 428 q 813 627 835 563 q 750 742 792 692 q 651 822 708 793 q 522 851 593 851 q 389 821 447 851 q 290 739 331 790 q 228 624 250 688 q 207 493 207 560 m 600 878 l 603 986 q 678 994 651 986 q 719 1018 704 1001 q 738 1058 735 1036 q 743 1106 742 1079 l 860 1106 q 855 1050 860 1078 q 840 995 850 1022 q 807 944 829 968 q 756 908 788 924 q 684 885 724 893 q 600 878 644 878 z "},"Ớ":{"ha":1044,"x_min":49,"x_max":994,"o":"m 521 -7 q 328 35 414 -7 q 179 148 242 76 q 83 309 117 219 q 49 493 49 399 q 85 681 49 592 q 185 841 121 771 q 335 952 249 911 q 524 993 422 993 q 716 950 629 993 q 865 835 803 907 q 960 674 926 763 q 994 492 994 585 q 959 303 994 393 q 860 144 924 214 q 709 33 796 74 q 521 -7 622 -7 m 207 493 q 229 358 207 424 q 292 242 251 293 q 392 163 333 192 q 522 133 450 133 q 656 164 597 133 q 753 247 714 194 q 814 363 793 299 q 835 493 835 428 q 813 627 835 563 q 750 742 792 692 q 651 822 708 793 q 522 851 593 851 q 389 821 447 851 q 290 739 331 790 q 228 624 250 688 q 207 493 207 560 m 600 878 l 603 986 q 678 994 651 986 q 719 1018 704 1001 q 738 1058 735 1036 q 743 1106 742 1079 l 860 1106 q 855 1050 860 1078 q 840 995 850 1022 q 807 944 829 968 q 756 908 788 924 q 684 885 724 893 q 600 878 644 878 m 576 1089 l 476 1119 l 556 1272 l 701 1272 l 576 1089 z "},"Ợ":{"ha":1044,"x_min":49,"x_max":994,"o":"m 521 -7 q 328 35 414 -7 q 179 148 242 76 q 83 309 117 219 q 49 493 49 399 q 85 681 49 592 q 185 841 121 771 q 335 952 249 911 q 524 993 422 993 q 716 950 629 993 q 865 835 803 907 q 960 674 926 763 q 994 492 994 585 q 959 303 994 393 q 860 144 924 214 q 709 33 796 74 q 521 -7 622 -7 m 207 493 q 229 358 207 424 q 292 242 251 293 q 392 163 333 192 q 522 133 450 133 q 656 164 597 133 q 753 247 714 194 q 814 363 793 299 q 835 493 835 428 q 813 627 835 563 q 750 742 792 692 q 651 822 708 793 q 522 851 593 851 q 389 821 447 851 q 290 739 331 790 q 228 624 250 688 q 207 493 207 560 m 600 878 l 603 986 q 678 994 651 986 q 719 1018 704 1001 q 738 1058 735 1036 q 743 1106 742 1079 l 860 1106 q 855 1050 860 1078 q 840 995 850 1022 q 807 944 829 968 q 756 908 788 924 q 684 885 724 893 q 600 878 644 878 m 451 -268 l 451 -107 l 589 -107 l 589 -268 l 451 -268 z "},"Ờ":{"ha":1044,"x_min":49,"x_max":994,"o":"m 521 -7 q 328 35 414 -7 q 179 148 242 76 q 83 309 117 219 q 49 493 49 399 q 85 681 49 592 q 185 841 121 771 q 335 952 249 911 q 524 993 422 993 q 716 950 629 993 q 865 835 803 907 q 960 674 926 763 q 994 492 994 585 q 959 303 994 393 q 860 144 924 214 q 709 33 796 74 q 521 -7 622 -7 m 207 493 q 229 358 207 424 q 292 242 251 293 q 392 163 333 192 q 522 133 450 133 q 656 164 597 133 q 753 247 714 194 q 814 363 793 299 q 835 493 835 428 q 813 627 835 563 q 750 742 792 692 q 651 822 708 793 q 522 851 593 851 q 389 821 447 851 q 290 739 331 790 q 228 624 250 688 q 207 493 207 560 m 600 878 l 603 986 q 678 994 651 986 q 719 1018 704 1001 q 738 1058 735 1036 q 743 1106 742 1079 l 860 1106 q 855 1050 860 1078 q 840 995 850 1022 q 807 944 829 968 q 756 908 788 924 q 684 885 724 893 q 600 878 644 878 m 365 1272 l 511 1272 l 590 1119 l 493 1089 l 365 1272 z "},"Ở":{"ha":1044,"x_min":49,"x_max":994,"o":"m 521 -7 q 328 35 414 -7 q 179 148 242 76 q 83 309 117 219 q 49 493 49 399 q 85 681 49 592 q 185 841 121 771 q 335 952 249 911 q 524 993 422 993 q 716 950 629 993 q 865 835 803 907 q 960 674 926 763 q 994 492 994 585 q 959 303 994 393 q 860 144 924 214 q 709 33 796 74 q 521 -7 622 -7 m 207 493 q 229 358 207 424 q 292 242 251 293 q 392 163 333 192 q 522 133 450 133 q 656 164 597 133 q 753 247 714 194 q 814 363 793 299 q 835 493 835 428 q 813 627 835 563 q 750 742 792 692 q 651 822 708 793 q 522 851 593 851 q 389 821 447 851 q 290 739 331 790 q 228 624 250 688 q 207 493 207 560 m 600 878 l 603 986 q 678 994 651 986 q 719 1018 704 1001 q 738 1058 735 1036 q 743 1106 742 1079 l 860 1106 q 855 1050 860 1078 q 840 995 850 1022 q 807 944 829 968 q 756 908 788 924 q 684 885 724 893 q 600 878 644 878 m 457 1219 l 406 1269 q 467 1313 436 1299 q 536 1326 499 1326 q 615 1297 588 1326 q 642 1229 642 1268 q 622 1164 642 1196 q 558 1097 601 1132 l 518 1143 q 551 1180 542 1164 q 561 1213 561 1196 q 550 1240 561 1229 q 522 1251 539 1251 q 490 1244 504 1251 q 457 1219 476 1238 z "},"Ỡ":{"ha":1044,"x_min":49,"x_max":994,"o":"m 521 -7 q 328 35 414 -7 q 179 148 242 76 q 83 309 117 219 q 49 493 49 399 q 85 681 49 592 q 185 841 121 771 q 335 952 249 911 q 524 993 422 993 q 716 950 629 993 q 865 835 803 907 q 960 674 926 763 q 994 492 994 585 q 959 303 994 393 q 860 144 924 214 q 709 33 796 74 q 521 -7 622 -7 m 207 493 q 229 358 207 424 q 292 242 251 293 q 392 163 333 192 q 522 133 450 133 q 656 164 597 133 q 753 247 714 194 q 814 363 793 299 q 835 493 835 428 q 813 627 835 563 q 750 742 792 692 q 651 822 708 793 q 522 851 593 851 q 389 821 447 851 q 290 739 331 790 q 228 624 250 688 q 207 493 207 560 m 600 878 l 603 986 q 678 994 651 986 q 719 1018 704 1001 q 738 1058 735 1036 q 743 1106 742 1079 l 860 1106 q 855 1050 860 1078 q 840 995 850 1022 q 807 944 829 968 q 756 908 788 924 q 684 885 724 893 q 600 878 644 878 m 613 1113 q 541 1128 571 1113 q 487 1158 511 1143 q 432 1172 463 1172 q 387 1157 401 1172 q 368 1125 372 1142 q 364 1106 364 1108 l 278 1106 q 285 1142 278 1117 q 309 1197 292 1168 q 355 1245 326 1225 q 426 1265 383 1265 q 496 1250 468 1265 q 549 1219 524 1235 q 608 1204 575 1204 q 658 1220 643 1204 q 678 1253 674 1236 q 683 1272 683 1269 l 771 1272 q 763 1238 771 1263 q 738 1183 756 1213 q 689 1133 719 1154 q 613 1113 658 1113 z "},"Ő":{"ha":1044,"x_min":49,"x_max":994,"o":"m 521 -7 q 328 35 414 -7 q 179 148 242 76 q 83 309 117 219 q 49 493 49 399 q 85 681 49 592 q 185 841 121 771 q 335 952 249 911 q 524 993 422 993 q 716 950 629 993 q 865 835 803 907 q 960 674 926 763 q 994 492 994 585 q 959 303 994 393 q 860 144 924 214 q 709 33 796 74 q 521 -7 622 -7 m 207 493 q 229 358 207 424 q 292 242 251 293 q 392 163 333 192 q 522 133 450 133 q 656 164 597 133 q 753 247 714 194 q 814 363 793 299 q 835 493 835 428 q 813 627 835 563 q 750 742 792 692 q 651 822 708 793 q 522 851 593 851 q 389 821 447 851 q 290 739 331 790 q 228 624 250 688 q 207 493 207 560 m 436 1090 l 360 1121 l 431 1274 l 554 1274 l 436 1090 m 642 1090 l 564 1121 l 635 1274 l 760 1274 l 642 1090 z "},"Ȏ":{"ha":1044,"x_min":49,"x_max":994,"o":"m 521 -7 q 328 35 414 -7 q 179 148 242 76 q 83 309 117 219 q 49 493 49 399 q 85 681 49 592 q 185 841 121 771 q 335 952 249 911 q 524 993 422 993 q 716 950 629 993 q 865 835 803 907 q 960 674 926 763 q 994 492 994 585 q 959 303 994 393 q 860 144 924 214 q 709 33 796 74 q 521 -7 622 -7 m 207 493 q 229 358 207 424 q 292 242 251 293 q 392 163 333 192 q 522 133 450 133 q 656 164 597 133 q 753 247 714 194 q 814 363 793 299 q 835 493 835 428 q 813 627 835 563 q 750 742 792 692 q 651 822 708 793 q 522 851 593 851 q 389 821 447 851 q 290 739 331 790 q 228 624 250 688 q 207 493 207 560 m 524 1201 q 467 1172 492 1201 q 443 1103 443 1142 l 358 1103 q 406 1224 358 1175 q 524 1272 453 1272 q 642 1224 594 1272 q 689 1103 689 1175 l 604 1103 q 577 1173 600 1144 q 524 1201 554 1201 z "},"Ō":{"ha":1044,"x_min":49,"x_max":994,"o":"m 521 -7 q 328 35 414 -7 q 179 148 242 76 q 83 309 117 219 q 49 493 49 399 q 85 681 49 592 q 185 841 121 771 q 335 952 249 911 q 524 993 422 993 q 716 950 629 993 q 865 835 803 907 q 960 674 926 763 q 994 492 994 585 q 959 303 994 393 q 860 144 924 214 q 709 33 796 74 q 521 -7 622 -7 m 207 493 q 229 358 207 424 q 292 242 251 293 q 392 163 333 192 q 522 133 450 133 q 656 164 597 133 q 753 247 714 194 q 814 363 793 299 q 835 493 835 428 q 813 627 835 563 q 750 742 792 692 q 651 822 708 793 q 522 851 593 851 q 389 821 447 851 q 290 739 331 790 q 228 624 250 688 q 207 493 207 560 m 319 1153 l 319 1250 l 731 1250 l 731 1153 l 319 1153 z "},"Ṓ":{"ha":1044,"x_min":49,"x_max":994,"o":"m 521 -7 q 328 35 414 -7 q 179 148 242 76 q 83 309 117 219 q 49 493 49 399 q 85 681 49 592 q 185 841 121 771 q 335 952 249 911 q 524 993 422 993 q 716 950 629 993 q 865 835 803 907 q 960 674 926 763 q 994 492 994 585 q 959 303 994 393 q 860 144 924 214 q 709 33 796 74 q 521 -7 622 -7 m 207 493 q 229 358 207 424 q 292 242 251 293 q 392 163 333 192 q 522 133 450 133 q 656 164 597 133 q 753 247 714 194 q 814 363 793 299 q 835 493 835 428 q 813 627 835 563 q 750 742 792 692 q 651 822 708 793 q 522 851 593 851 q 389 821 447 851 q 290 739 331 790 q 228 624 250 688 q 207 493 207 560 m 319 1153 l 319 1250 l 731 1250 l 731 1153 l 319 1153 m 578 1353 l 478 1383 l 557 1536 l 703 1536 l 578 1353 z "},"Ṑ":{"ha":1044,"x_min":49,"x_max":994,"o":"m 521 -7 q 328 35 414 -7 q 179 148 242 76 q 83 309 117 219 q 49 493 49 399 q 85 681 49 592 q 185 841 121 771 q 335 952 249 911 q 524 993 422 993 q 716 950 629 993 q 865 835 803 907 q 960 674 926 763 q 994 492 994 585 q 959 303 994 393 q 860 144 924 214 q 709 33 796 74 q 521 -7 622 -7 m 207 493 q 229 358 207 424 q 292 242 251 293 q 392 163 333 192 q 522 133 450 133 q 656 164 597 133 q 753 247 714 194 q 814 363 793 299 q 835 493 835 428 q 813 627 835 563 q 750 742 792 692 q 651 822 708 793 q 522 851 593 851 q 389 821 447 851 q 290 739 331 790 q 228 624 250 688 q 207 493 207 560 m 319 1153 l 319 1250 l 731 1250 l 731 1153 l 319 1153 m 367 1538 l 513 1538 l 592 1385 l 494 1354 l 367 1538 z "},"Ǫ":{"ha":1044,"x_min":49,"x_max":994,"o":"m 521 -7 q 328 35 414 -7 q 179 148 242 76 q 83 309 117 219 q 49 493 49 399 q 85 681 49 592 q 185 841 121 771 q 335 952 249 911 q 524 993 422 993 q 716 950 629 993 q 865 835 803 907 q 960 674 926 763 q 994 492 994 585 q 959 303 994 393 q 860 144 924 214 q 709 33 796 74 q 521 -7 622 -7 m 207 493 q 229 358 207 424 q 292 242 251 293 q 392 163 333 192 q 522 133 450 133 q 656 164 597 133 q 753 247 714 194 q 814 363 793 299 q 835 493 835 428 q 813 627 835 563 q 750 742 792 692 q 651 822 708 793 q 522 851 593 851 q 389 821 447 851 q 290 739 331 790 q 228 624 250 688 q 207 493 207 560 m 428 -142 q 461 -50 428 -94 q 564 38 494 -6 l 608 38 l 635 10 q 553 -60 579 -29 q 528 -117 528 -92 q 556 -155 528 -143 q 633 -169 583 -167 l 601 -260 q 494 -235 532 -254 q 442 -192 457 -217 q 428 -142 428 -167 z "},"Ø":{"ha":1043,"x_min":49,"x_max":994,"o":"m 521 -7 q 328 35 414 -7 q 179 148 242 76 q 83 309 117 219 q 49 493 49 399 q 85 681 49 592 q 185 841 121 771 q 335 952 249 911 q 524 993 422 993 q 716 950 629 993 q 865 835 803 907 q 960 674 926 763 q 994 492 994 585 q 959 303 994 393 q 860 144 924 214 q 709 33 796 74 q 521 -7 622 -7 m 207 493 q 229 358 207 424 q 292 242 251 293 q 392 163 333 192 q 522 133 450 133 q 656 164 597 133 q 753 247 714 194 q 814 363 793 299 q 835 493 835 428 q 813 627 835 563 q 750 742 792 692 q 651 822 708 793 q 522 851 593 851 q 389 821 447 851 q 290 739 331 790 q 228 624 250 688 q 207 493 207 560 m 944 986 l 268 0 l 99 0 l 775 986 l 944 986 z "},"Ǿ":{"ha":1043,"x_min":49,"x_max":994,"o":"m 521 -7 q 328 35 414 -7 q 179 148 242 76 q 83 309 117 219 q 49 493 49 399 q 85 681 49 592 q 185 841 121 771 q 335 952 249 911 q 524 993 422 993 q 716 950 629 993 q 865 835 803 907 q 960 674 926 763 q 994 492 994 585 q 959 303 994 393 q 860 144 924 214 q 709 33 796 74 q 521 -7 622 -7 m 207 493 q 229 358 207 424 q 292 242 251 293 q 392 163 333 192 q 522 133 450 133 q 656 164 597 133 q 753 247 714 194 q 814 363 793 299 q 835 493 835 428 q 813 627 835 563 q 750 742 792 692 q 651 822 708 793 q 522 851 593 851 q 389 821 447 851 q 290 739 331 790 q 228 624 250 688 q 207 493 207 560 m 944 986 l 268 0 l 99 0 l 775 986 l 944 986 m 576 1089 l 476 1119 l 556 1272 l 701 1272 l 576 1089 z "},"Õ":{"ha":1044,"x_min":49,"x_max":994,"o":"m 521 -7 q 328 35 414 -7 q 179 148 242 76 q 83 309 117 219 q 49 493 49 399 q 85 681 49 592 q 185 841 121 771 q 335 952 249 911 q 524 993 422 993 q 716 950 629 993 q 865 835 803 907 q 960 674 926 763 q 994 492 994 585 q 959 303 994 393 q 860 144 924 214 q 709 33 796 74 q 521 -7 622 -7 m 207 493 q 229 358 207 424 q 292 242 251 293 q 392 163 333 192 q 522 133 450 133 q 656 164 597 133 q 753 247 714 194 q 814 363 793 299 q 835 493 835 428 q 813 627 835 563 q 750 742 792 692 q 651 822 708 793 q 522 851 593 851 q 389 821 447 851 q 290 739 331 790 q 228 624 250 688 q 207 493 207 560 m 613 1113 q 541 1128 571 1113 q 487 1158 511 1143 q 432 1172 463 1172 q 387 1157 401 1172 q 368 1125 372 1142 q 364 1106 364 1108 l 278 1106 q 285 1142 278 1117 q 309 1197 292 1168 q 355 1245 326 1225 q 426 1265 383 1265 q 496 1250 468 1265 q 549 1219 524 1235 q 608 1204 575 1204 q 658 1220 643 1204 q 678 1253 674 1236 q 683 1272 683 1269 l 771 1272 q 763 1238 771 1263 q 738 1183 756 1213 q 689 1133 719 1154 q 613 1113 658 1113 z "},"Ṍ":{"ha":1044,"x_min":49,"x_max":994,"o":"m 521 -7 q 328 35 414 -7 q 179 148 242 76 q 83 309 117 219 q 49 493 49 399 q 85 681 49 592 q 185 841 121 771 q 335 952 249 911 q 524 993 422 993 q 716 950 629 993 q 865 835 803 907 q 960 674 926 763 q 994 492 994 585 q 959 303 994 393 q 860 144 924 214 q 709 33 796 74 q 521 -7 622 -7 m 207 493 q 229 358 207 424 q 292 242 251 293 q 392 163 333 192 q 522 133 450 133 q 656 164 597 133 q 753 247 714 194 q 814 363 793 299 q 835 493 835 428 q 813 627 835 563 q 750 742 792 692 q 651 822 708 793 q 522 851 593 851 q 389 821 447 851 q 290 739 331 790 q 228 624 250 688 q 207 493 207 560 m 613 1113 q 541 1128 571 1113 q 487 1158 511 1143 q 432 1172 463 1172 q 387 1157 401 1172 q 368 1125 372 1142 q 364 1106 364 1108 l 278 1106 q 285 1142 278 1117 q 309 1197 292 1168 q 355 1245 326 1225 q 426 1265 383 1265 q 496 1250 468 1265 q 549 1219 524 1235 q 608 1204 575 1204 q 658 1220 643 1204 q 678 1253 674 1236 q 683 1272 683 1269 l 771 1272 q 763 1238 771 1263 q 738 1183 756 1213 q 689 1133 719 1154 q 613 1113 658 1113 m 576 1376 l 476 1407 l 556 1560 l 701 1560 l 576 1376 z "},"Ṏ":{"ha":1044,"x_min":49,"x_max":994,"o":"m 521 -7 q 328 35 414 -7 q 179 148 242 76 q 83 309 117 219 q 49 493 49 399 q 85 681 49 592 q 185 841 121 771 q 335 952 249 911 q 524 993 422 993 q 716 950 629 993 q 865 835 803 907 q 960 674 926 763 q 994 492 994 585 q 959 303 994 393 q 860 144 924 214 q 709 33 796 74 q 521 -7 622 -7 m 207 493 q 229 358 207 424 q 292 242 251 293 q 392 163 333 192 q 522 133 450 133 q 656 164 597 133 q 753 247 714 194 q 814 363 793 299 q 835 493 835 428 q 813 627 835 563 q 750 742 792 692 q 651 822 708 793 q 522 851 593 851 q 389 821 447 851 q 290 739 331 790 q 228 624 250 688 q 207 493 207 560 m 613 1113 q 541 1128 571 1113 q 487 1158 511 1143 q 432 1172 463 1172 q 387 1157 401 1172 q 368 1125 372 1142 q 364 1106 364 1108 l 278 1106 q 285 1142 278 1117 q 309 1197 292 1168 q 355 1245 326 1225 q 426 1265 383 1265 q 496 1250 468 1265 q 549 1219 524 1235 q 608 1204 575 1204 q 658 1220 643 1204 q 678 1253 674 1236 q 683 1272 683 1269 l 771 1272 q 763 1238 771 1263 q 738 1183 756 1213 q 689 1133 719 1154 q 613 1113 658 1113 m 338 1401 l 338 1554 l 465 1554 l 465 1401 l 338 1401 m 583 1401 l 583 1554 l 711 1554 l 711 1401 l 583 1401 z "},"Ȭ":{"ha":1044,"x_min":49,"x_max":994,"o":"m 521 -7 q 328 35 414 -7 q 179 148 242 76 q 83 309 117 219 q 49 493 49 399 q 85 681 49 592 q 185 841 121 771 q 335 952 249 911 q 524 993 422 993 q 716 950 629 993 q 865 835 803 907 q 960 674 926 763 q 994 492 994 585 q 959 303 994 393 q 860 144 924 214 q 709 33 796 74 q 521 -7 622 -7 m 207 493 q 229 358 207 424 q 292 242 251 293 q 392 163 333 192 q 522 133 450 133 q 656 164 597 133 q 753 247 714 194 q 814 363 793 299 q 835 493 835 428 q 813 627 835 563 q 750 742 792 692 q 651 822 708 793 q 522 851 593 851 q 389 821 447 851 q 290 739 331 790 q 228 624 250 688 q 207 493 207 560 m 613 1113 q 541 1128 571 1113 q 487 1158 511 1143 q 432 1172 463 1172 q 387 1157 401 1172 q 368 1125 372 1142 q 364 1106 364 1108 l 278 1106 q 285 1142 278 1117 q 309 1197 292 1168 q 355 1245 326 1225 q 426 1265 383 1265 q 496 1250 468 1265 q 549 1219 524 1235 q 608 1204 575 1204 q 658 1220 643 1204 q 678 1253 674 1236 q 683 1272 683 1269 l 771 1272 q 763 1238 771 1263 q 738 1183 756 1213 q 689 1133 719 1154 q 613 1113 658 1113 m 319 1440 l 319 1538 l 731 1538 l 731 1440 l 319 1440 z "},"Œ":{"ha":1540,"x_min":49,"x_max":1492,"o":"m 1492 138 l 1492 0 l 829 0 l 829 183 q 751 86 799 129 q 644 18 703 43 q 515 -7 585 -7 q 326 35 411 -7 q 178 148 240 76 q 82 309 115 219 q 49 493 49 399 q 84 681 49 592 q 183 841 119 771 q 331 952 246 911 q 518 993 417 993 q 647 968 588 993 q 752 900 706 943 q 829 803 799 857 l 829 986 l 1479 986 l 1479 849 l 986 849 l 986 571 l 1404 571 l 1404 433 l 986 433 l 986 138 l 1492 138 m 517 133 q 647 164 589 133 q 743 247 704 194 q 803 363 782 299 q 824 494 824 428 q 802 628 824 564 q 740 743 781 693 q 642 823 699 793 q 515 853 586 853 q 386 822 443 853 q 290 740 329 792 q 228 624 250 688 q 207 493 207 560 q 229 358 207 424 q 291 243 251 293 q 388 163 331 193 q 517 133 446 133 z "},"P":{"ha":865,"x_min":111,"x_max":831,"o":"m 111 0 l 111 986 l 525 986 q 647 958 592 986 q 744 885 703 931 q 808 782 786 839 q 831 665 831 725 q 794 509 831 583 q 690 389 757 435 q 533 343 622 343 l 267 343 l 267 0 l 111 0 m 267 481 l 524 481 q 601 505 568 481 q 653 571 635 529 q 672 665 672 613 q 650 761 672 719 q 592 826 628 803 q 515 849 557 849 l 267 849 l 267 481 z "},"Þ":{"ha":839,"x_min":111,"x_max":807,"o":"m 501 801 q 624 774 568 801 q 720 700 679 746 q 784 597 761 654 q 807 481 807 540 q 769 324 807 397 q 665 204 732 250 q 508 158 599 158 l 267 158 l 267 0 l 111 0 l 111 986 l 267 986 l 267 801 l 501 801 m 501 297 q 581 323 547 297 q 632 390 614 349 q 650 481 650 432 q 628 574 650 532 q 572 640 607 615 q 493 664 536 664 l 267 664 l 267 297 l 501 297 z "},"Q":{"ha":1042,"x_min":49,"x_max":994,"o":"m 521 -7 q 328 35 414 -7 q 179 149 242 78 q 83 309 117 219 q 49 493 49 399 q 85 681 49 592 q 185 841 121 771 q 335 952 249 911 q 524 993 422 993 q 716 950 629 993 q 865 835 803 907 q 960 674 926 763 q 994 492 994 585 q 959 303 994 393 q 860 144 924 214 q 709 33 796 74 q 521 -7 622 -7 m 522 133 q 656 164 597 133 q 753 247 714 194 q 814 363 793 299 q 835 493 835 428 q 813 628 835 563 q 750 743 792 693 q 651 823 708 793 q 522 853 593 853 q 389 822 447 853 q 290 740 331 792 q 228 624 250 688 q 207 493 207 560 q 229 358 207 424 q 292 243 251 293 q 392 163 333 193 q 522 133 450 133 m 542 343 l 692 343 l 992 0 l 842 0 l 542 343 z "},"R":{"ha":918,"x_min":111,"x_max":885,"o":"m 111 0 l 111 986 l 540 986 q 663 958 607 986 q 759 885 718 931 q 823 782 800 839 q 846 665 846 725 q 822 540 846 600 q 755 438 799 481 q 653 375 711 394 l 885 0 l 710 0 l 496 343 l 267 343 l 267 0 l 111 0 m 267 481 l 539 481 q 615 506 582 481 q 668 573 649 531 q 688 665 688 615 q 665 758 688 717 q 608 824 643 799 q 531 849 572 849 l 267 849 l 267 481 z "},"Ŕ":{"ha":918,"x_min":111,"x_max":885,"o":"m 111 0 l 111 986 l 540 986 q 663 958 607 986 q 759 885 718 931 q 823 782 800 839 q 846 665 846 725 q 822 540 846 600 q 755 438 799 481 q 653 375 711 394 l 885 0 l 710 0 l 496 343 l 267 343 l 267 0 l 111 0 m 267 481 l 539 481 q 615 506 582 481 q 668 573 649 531 q 688 665 688 615 q 665 758 688 717 q 608 824 643 799 q 531 849 572 849 l 267 849 l 267 481 m 483 1090 l 383 1121 l 463 1274 l 608 1274 l 483 1090 z "},"Ř":{"ha":918,"x_min":111,"x_max":885,"o":"m 111 0 l 111 986 l 540 986 q 663 958 607 986 q 759 885 718 931 q 823 782 800 839 q 846 665 846 725 q 822 540 846 600 q 755 438 799 481 q 653 375 711 394 l 885 0 l 710 0 l 496 343 l 267 343 l 267 0 l 111 0 m 267 481 l 539 481 q 615 506 582 481 q 668 573 649 531 q 688 665 688 615 q 665 758 688 717 q 608 824 643 799 q 531 849 572 849 l 267 849 l 267 481 m 313 1274 l 431 1186 l 549 1274 l 631 1235 l 486 1103 l 376 1103 l 232 1235 l 313 1274 z "},"Ŗ":{"ha":918,"x_min":111,"x_max":885,"o":"m 111 0 l 111 986 l 540 986 q 663 958 607 986 q 759 885 718 931 q 823 782 800 839 q 846 665 846 725 q 822 540 846 600 q 755 438 799 481 q 653 375 711 394 l 885 0 l 710 0 l 496 343 l 267 343 l 267 0 l 111 0 m 267 481 l 539 481 q 615 506 582 481 q 668 573 649 531 q 688 665 688 615 q 665 758 688 717 q 608 824 643 799 q 531 849 572 849 l 267 849 l 267 481 m 410 -296 l 442 -189 l 397 -189 l 397 -67 l 529 -67 l 529 -189 l 481 -296 l 410 -296 z "},"Ȑ":{"ha":918,"x_min":111,"x_max":885,"o":"m 111 0 l 111 986 l 540 986 q 663 958 607 986 q 759 885 718 931 q 823 782 800 839 q 846 665 846 725 q 822 540 846 600 q 755 438 799 481 q 653 375 711 394 l 885 0 l 710 0 l 496 343 l 267 343 l 267 0 l 111 0 m 267 481 l 539 481 q 615 506 582 481 q 668 573 649 531 q 688 665 688 615 q 665 758 688 717 q 608 824 643 799 q 531 849 572 849 l 267 849 l 267 481 m 394 1275 l 518 1275 l 589 1122 l 513 1092 l 394 1275 m 189 1275 l 314 1275 l 385 1122 l 307 1092 l 189 1275 z "},"Ṛ":{"ha":918,"x_min":111,"x_max":885,"o":"m 111 0 l 111 986 l 540 986 q 663 958 607 986 q 759 885 718 931 q 823 782 800 839 q 846 665 846 725 q 822 540 846 600 q 755 438 799 481 q 653 375 711 394 l 885 0 l 710 0 l 496 343 l 267 343 l 267 0 l 111 0 m 267 481 l 539 481 q 615 506 582 481 q 668 573 649 531 q 688 665 688 615 q 665 758 688 717 q 608 824 643 799 q 531 849 572 849 l 267 849 l 267 481 m 399 -268 l 399 -107 l 536 -107 l 536 -268 l 399 -268 z "},"Ȓ":{"ha":918,"x_min":111,"x_max":885,"o":"m 111 0 l 111 986 l 540 986 q 663 958 607 986 q 759 885 718 931 q 823 782 800 839 q 846 665 846 725 q 822 540 846 600 q 755 438 799 481 q 653 375 711 394 l 885 0 l 710 0 l 496 343 l 267 343 l 267 0 l 111 0 m 267 481 l 539 481 q 615 506 582 481 q 668 573 649 531 q 688 665 688 615 q 665 758 688 717 q 608 824 643 799 q 531 849 572 849 l 267 849 l 267 481 m 432 1203 q 376 1173 400 1203 q 351 1104 351 1143 l 267 1104 q 314 1225 267 1176 q 432 1274 361 1274 q 550 1225 503 1274 q 597 1104 597 1176 l 513 1104 q 485 1174 508 1146 q 432 1203 463 1203 z "},"Ṟ":{"ha":918,"x_min":111,"x_max":885,"o":"m 111 0 l 111 986 l 540 986 q 663 958 607 986 q 759 885 718 931 q 823 782 800 839 q 846 665 846 725 q 822 540 846 600 q 755 438 799 481 q 653 375 711 394 l 885 0 l 710 0 l 496 343 l 267 343 l 267 0 l 111 0 m 267 481 l 539 481 q 615 506 582 481 q 668 573 649 531 q 688 665 688 615 q 665 758 688 717 q 608 824 643 799 q 531 849 572 849 l 267 849 l 267 481 m 263 -211 l 263 -115 l 674 -115 l 674 -211 l 263 -211 z "},"S":{"ha":849,"x_min":36,"x_max":804,"o":"m 694 754 q 654 787 681 769 q 592 819 628 804 q 514 844 556 835 q 428 854 472 854 q 283 818 331 854 q 236 718 236 782 q 263 644 236 671 q 343 599 289 617 q 479 560 397 581 q 653 503 579 536 q 765 417 726 471 q 804 274 804 363 q 776 144 804 199 q 699 56 749 90 q 583 6 649 22 q 443 -10 518 -10 q 297 6 369 -10 q 158 51 224 21 q 36 124 92 81 l 107 257 q 159 217 125 239 q 238 176 193 196 q 337 144 283 157 q 446 131 390 131 q 588 163 539 131 q 638 257 638 196 q 606 337 638 307 q 513 388 574 367 q 367 429 451 408 q 204 487 269 456 q 106 567 139 518 q 74 693 74 617 q 121 858 74 790 q 249 959 168 925 q 432 993 331 993 q 558 978 499 993 q 670 939 618 964 q 765 882 722 914 l 694 754 z "},"Ś":{"ha":849,"x_min":36,"x_max":804,"o":"m 694 754 q 654 787 681 769 q 592 819 628 804 q 514 844 556 835 q 428 854 472 854 q 283 818 331 854 q 236 718 236 782 q 263 644 236 671 q 343 599 289 617 q 479 560 397 581 q 653 503 579 536 q 765 417 726 471 q 804 274 804 363 q 776 144 804 199 q 699 56 749 90 q 583 6 649 22 q 443 -10 518 -10 q 297 6 369 -10 q 158 51 224 21 q 36 124 92 81 l 107 257 q 159 217 125 239 q 238 176 193 196 q 337 144 283 157 q 446 131 390 131 q 588 163 539 131 q 638 257 638 196 q 606 337 638 307 q 513 388 574 367 q 367 429 451 408 q 204 487 269 456 q 106 567 139 518 q 74 693 74 617 q 121 858 74 790 q 249 959 168 925 q 432 993 331 993 q 558 978 499 993 q 670 939 618 964 q 765 882 722 914 l 694 754 m 489 1103 l 389 1133 l 468 1286 l 614 1286 l 489 1103 z "},"Ṥ":{"ha":849,"x_min":36,"x_max":804,"o":"m 694 754 q 654 787 681 769 q 592 819 628 804 q 514 844 556 835 q 428 854 472 854 q 283 818 331 854 q 236 718 236 782 q 263 644 236 671 q 343 599 289 617 q 479 560 397 581 q 653 503 579 536 q 765 417 726 471 q 804 274 804 363 q 776 144 804 199 q 699 56 749 90 q 583 6 649 22 q 443 -10 518 -10 q 297 6 369 -10 q 158 51 224 21 q 36 124 92 81 l 107 257 q 159 217 125 239 q 238 176 193 196 q 337 144 283 157 q 446 131 390 131 q 588 163 539 131 q 638 257 638 196 q 606 337 638 307 q 513 388 574 367 q 367 429 451 408 q 204 487 269 456 q 106 567 139 518 q 74 693 74 617 q 121 858 74 790 q 249 959 168 925 q 432 993 331 993 q 558 978 499 993 q 670 939 618 964 q 765 882 722 914 l 694 754 m 489 1103 l 389 1133 l 468 1286 l 614 1286 l 489 1103 m 432 1414 l 432 1574 l 569 1574 l 569 1414 l 432 1414 z "},"Š":{"ha":849,"x_min":36,"x_max":804,"o":"m 694 754 q 654 787 681 769 q 592 819 628 804 q 514 844 556 835 q 428 854 472 854 q 283 818 331 854 q 236 718 236 782 q 263 644 236 671 q 343 599 289 617 q 479 560 397 581 q 653 503 579 536 q 765 417 726 471 q 804 274 804 363 q 776 144 804 199 q 699 56 749 90 q 583 6 649 22 q 443 -10 518 -10 q 297 6 369 -10 q 158 51 224 21 q 36 124 92 81 l 107 257 q 159 217 125 239 q 238 176 193 196 q 337 144 283 157 q 446 131 390 131 q 588 163 539 131 q 638 257 638 196 q 606 337 638 307 q 513 388 574 367 q 367 429 451 408 q 204 487 269 456 q 106 567 139 518 q 74 693 74 617 q 121 858 74 790 q 249 959 168 925 q 432 993 331 993 q 558 978 499 993 q 670 939 618 964 q 765 882 722 914 l 694 754 m 318 1286 l 436 1199 l 554 1286 l 636 1247 l 492 1115 l 382 1115 l 238 1247 l 318 1286 z "},"Ṧ":{"ha":849,"x_min":36,"x_max":804,"o":"m 694 754 q 654 787 681 769 q 592 819 628 804 q 514 844 556 835 q 428 854 472 854 q 283 818 331 854 q 236 718 236 782 q 263 644 236 671 q 343 599 289 617 q 479 560 397 581 q 653 503 579 536 q 765 417 726 471 q 804 274 804 363 q 776 144 804 199 q 699 56 749 90 q 583 6 649 22 q 443 -10 518 -10 q 297 6 369 -10 q 158 51 224 21 q 36 124 92 81 l 107 257 q 159 217 125 239 q 238 176 193 196 q 337 144 283 157 q 446 131 390 131 q 588 163 539 131 q 638 257 638 196 q 606 337 638 307 q 513 388 574 367 q 367 429 451 408 q 204 487 269 456 q 106 567 139 518 q 74 693 74 617 q 121 858 74 790 q 249 959 168 925 q 432 993 331 993 q 558 978 499 993 q 670 939 618 964 q 765 882 722 914 l 694 754 m 318 1286 l 436 1199 l 554 1286 l 636 1247 l 492 1115 l 382 1115 l 238 1247 l 318 1286 m 367 1414 l 367 1574 l 504 1574 l 504 1414 l 367 1414 z "},"Ş":{"ha":849,"x_min":36,"x_max":804,"o":"m 694 754 q 654 787 681 769 q 592 819 628 804 q 514 844 556 835 q 428 854 472 854 q 283 818 331 854 q 236 718 236 782 q 263 644 236 671 q 343 599 289 617 q 479 560 397 581 q 653 503 579 536 q 765 417 726 471 q 804 274 804 363 q 776 144 804 199 q 699 56 749 90 q 583 6 649 22 q 443 -10 518 -10 q 297 6 369 -10 q 158 51 224 21 q 36 124 92 81 l 107 257 q 159 217 125 239 q 238 176 193 196 q 337 144 283 157 q 446 131 390 131 q 588 163 539 131 q 638 257 638 196 q 606 337 638 307 q 513 388 574 367 q 367 429 451 408 q 204 487 269 456 q 106 567 139 518 q 74 693 74 617 q 121 858 74 790 q 249 959 168 925 q 432 993 331 993 q 558 978 499 993 q 670 939 618 964 q 765 882 722 914 l 694 754 m 425 -268 q 344 -258 388 -268 q 261 -228 301 -249 l 300 -146 q 348 -167 325 -160 q 399 -175 371 -175 q 460 -158 438 -175 q 482 -110 482 -142 q 460 -52 482 -78 q 396 0 438 -26 l 449 36 q 541 -40 506 0 q 576 -137 576 -79 q 537 -232 576 -196 q 425 -268 497 -268 z "},"Ŝ":{"ha":849,"x_min":36,"x_max":804,"o":"m 694 754 q 654 787 681 769 q 592 819 628 804 q 514 844 556 835 q 428 854 472 854 q 283 818 331 854 q 236 718 236 782 q 263 644 236 671 q 343 599 289 617 q 479 560 397 581 q 653 503 579 536 q 765 417 726 471 q 804 274 804 363 q 776 144 804 199 q 699 56 749 90 q 583 6 649 22 q 443 -10 518 -10 q 297 6 369 -10 q 158 51 224 21 q 36 124 92 81 l 107 257 q 159 217 125 239 q 238 176 193 196 q 337 144 283 157 q 446 131 390 131 q 588 163 539 131 q 638 257 638 196 q 606 337 638 307 q 513 388 574 367 q 367 429 451 408 q 204 487 269 456 q 106 567 139 518 q 74 693 74 617 q 121 858 74 790 q 249 959 168 925 q 432 993 331 993 q 558 978 499 993 q 670 939 618 964 q 765 882 722 914 l 694 754 m 238 1154 l 382 1286 l 492 1286 l 636 1154 l 554 1115 l 436 1203 l 318 1115 l 238 1154 z "},"Ș":{"ha":849,"x_min":36,"x_max":804,"o":"m 694 754 q 654 787 681 769 q 592 819 628 804 q 514 844 556 835 q 428 854 472 854 q 283 818 331 854 q 236 718 236 782 q 263 644 236 671 q 343 599 289 617 q 479 560 397 581 q 653 503 579 536 q 765 417 726 471 q 804 274 804 363 q 776 144 804 199 q 699 56 749 90 q 583 6 649 22 q 443 -10 518 -10 q 297 6 369 -10 q 158 51 224 21 q 36 124 92 81 l 107 257 q 159 217 125 239 q 238 176 193 196 q 337 144 283 157 q 446 131 390 131 q 588 163 539 131 q 638 257 638 196 q 606 337 638 307 q 513 388 574 367 q 367 429 451 408 q 204 487 269 456 q 106 567 139 518 q 74 693 74 617 q 121 858 74 790 q 249 959 168 925 q 432 993 331 993 q 558 978 499 993 q 670 939 618 964 q 765 882 722 914 l 694 754 m 385 -296 l 417 -189 l 372 -189 l 372 -67 l 504 -67 l 504 -189 l 456 -296 l 385 -296 z "},"Ṡ":{"ha":849,"x_min":36,"x_max":804,"o":"m 694 754 q 654 787 681 769 q 592 819 628 804 q 514 844 556 835 q 428 854 472 854 q 283 818 331 854 q 236 718 236 782 q 263 644 236 671 q 343 599 289 617 q 479 560 397 581 q 653 503 579 536 q 765 417 726 471 q 804 274 804 363 q 776 144 804 199 q 699 56 749 90 q 583 6 649 22 q 443 -10 518 -10 q 297 6 369 -10 q 158 51 224 21 q 36 124 92 81 l 107 257 q 159 217 125 239 q 238 176 193 196 q 337 144 283 157 q 446 131 390 131 q 588 163 539 131 q 638 257 638 196 q 606 337 638 307 q 513 388 574 367 q 367 429 451 408 q 204 487 269 456 q 106 567 139 518 q 74 693 74 617 q 121 858 74 790 q 249 959 168 925 q 432 993 331 993 q 558 978 499 993 q 670 939 618 964 q 765 882 722 914 l 694 754 m 367 1126 l 367 1286 l 504 1286 l 504 1126 l 367 1126 z "},"Ṣ":{"ha":849,"x_min":36,"x_max":804,"o":"m 694 754 q 654 787 681 769 q 592 819 628 804 q 514 844 556 835 q 428 854 472 854 q 283 818 331 854 q 236 718 236 782 q 263 644 236 671 q 343 599 289 617 q 479 560 397 581 q 653 503 579 536 q 765 417 726 471 q 804 274 804 363 q 776 144 804 199 q 699 56 749 90 q 583 6 649 22 q 443 -10 518 -10 q 297 6 369 -10 q 158 51 224 21 q 36 124 92 81 l 107 257 q 159 217 125 239 q 238 176 193 196 q 337 144 283 157 q 446 131 390 131 q 588 163 539 131 q 638 257 638 196 q 606 337 638 307 q 513 388 574 367 q 367 429 451 408 q 204 487 269 456 q 106 567 139 518 q 74 693 74 617 q 121 858 74 790 q 249 959 168 925 q 432 993 331 993 q 558 978 499 993 q 670 939 618 964 q 765 882 722 914 l 694 754 m 374 -268 l 374 -107 l 511 -107 l 511 -268 l 374 -268 z "},"Ṩ":{"ha":849,"x_min":36,"x_max":804,"o":"m 694 754 q 654 787 681 769 q 592 819 628 804 q 514 844 556 835 q 428 854 472 854 q 283 818 331 854 q 236 718 236 782 q 263 644 236 671 q 343 599 289 617 q 479 560 397 581 q 653 503 579 536 q 765 417 726 471 q 804 274 804 363 q 776 144 804 199 q 699 56 749 90 q 583 6 649 22 q 443 -10 518 -10 q 297 6 369 -10 q 158 51 224 21 q 36 124 92 81 l 107 257 q 159 217 125 239 q 238 176 193 196 q 337 144 283 157 q 446 131 390 131 q 588 163 539 131 q 638 257 638 196 q 606 337 638 307 q 513 388 574 367 q 367 429 451 408 q 204 487 269 456 q 106 567 139 518 q 74 693 74 617 q 121 858 74 790 q 249 959 168 925 q 432 993 331 993 q 558 978 499 993 q 670 939 618 964 q 765 882 722 914 l 694 754 m 374 -268 l 374 -107 l 511 -107 l 511 -268 l 374 -268 m 367 1126 l 367 1286 l 504 1286 l 504 1126 l 367 1126 z "},"ẞ":{"ha":922,"x_min":92,"x_max":878,"o":"m 596 -14 q 422 16 504 -14 q 282 106 340 46 l 339 208 q 462 128 401 153 q 585 103 522 103 q 689 127 649 103 q 729 199 729 151 q 709 250 729 233 q 651 279 689 267 q 558 307 613 292 q 426 356 479 331 q 348 420 374 382 q 322 518 322 458 q 353 633 322 588 q 438 706 385 678 q 558 748 490 733 q 700 769 626 763 l 667 715 q 630 801 660 768 q 557 849 600 833 q 461 864 514 864 q 335 833 385 864 q 261 751 285 803 q 238 638 238 700 l 238 0 l 92 0 l 92 664 q 120 800 92 739 q 199 903 149 861 q 317 969 250 946 q 461 992 383 992 q 628 959 554 992 q 749 866 701 926 q 808 722 796 806 l 815 676 q 681 655 744 665 q 569 631 618 644 q 493 594 521 617 q 465 532 465 571 q 483 483 465 501 q 533 451 500 464 q 614 425 567 439 q 757 376 699 400 q 847 315 815 353 q 878 211 878 278 q 801 46 878 106 q 596 -14 724 -14 z "},"Ə":{"ha":1029,"x_min":33,"x_max":979,"o":"m 508 -7 q 319 33 406 -7 q 168 141 232 72 q 69 297 104 210 q 33 482 33 385 q 35 520 33 501 q 38 550 36 539 l 807 550 q 774 672 800 617 q 706 767 747 726 q 614 829 665 807 q 504 851 563 851 q 393 830 446 851 q 301 770 340 808 q 246 682 263 732 l 93 742 q 193 873 129 817 q 340 961 257 929 q 513 993 422 993 q 699 953 614 993 q 846 843 783 913 q 944 684 908 774 q 979 494 979 594 q 944 301 979 393 q 846 141 910 210 q 697 33 782 72 q 508 -7 611 -7 m 513 132 q 656 169 592 132 q 761 272 721 207 q 808 422 801 338 l 203 422 q 252 274 210 340 q 363 170 294 208 q 513 132 431 132 z "},"T":{"ha":856,"x_min":21,"x_max":835,"o":"m 835 849 l 507 849 l 507 0 l 350 0 l 350 849 l 21 849 l 21 986 l 835 986 l 835 849 z "},"Ŧ":{"ha":893,"x_min":40,"x_max":853,"o":"m 103 417 l 103 515 l 790 515 l 790 417 l 103 417 m 853 849 l 525 849 l 525 0 l 368 0 l 368 849 l 40 849 l 40 986 l 853 986 l 853 849 z "},"Ť":{"ha":856,"x_min":21,"x_max":835,"o":"m 835 849 l 507 849 l 507 0 l 350 0 l 350 849 l 21 849 l 21 986 l 835 986 l 835 849 m 315 1272 l 433 1185 l 551 1272 l 633 1233 l 489 1101 l 379 1101 l 235 1233 l 315 1272 z "},"Ţ":{"ha":856,"x_min":21,"x_max":835,"o":"m 835 849 l 507 849 l 507 0 l 350 0 l 350 849 l 21 849 l 21 986 l 835 986 l 835 849 m 414 -268 q 333 -258 376 -268 q 250 -228 290 -249 l 289 -146 q 337 -167 314 -160 q 388 -175 360 -175 q 449 -158 426 -175 q 471 -110 471 -142 q 449 -52 471 -78 q 385 0 426 -26 l 438 36 q 530 -40 494 0 q 565 -137 565 -79 q 526 -232 565 -196 q 414 -268 486 -268 z "},"Ț":{"ha":856,"x_min":21,"x_max":835,"o":"m 835 849 l 507 849 l 507 0 l 350 0 l 350 849 l 21 849 l 21 986 l 835 986 l 835 849 m 372 -296 l 404 -189 l 360 -189 l 360 -67 l 492 -67 l 492 -189 l 443 -296 l 372 -296 z "},"Ṭ":{"ha":856,"x_min":21,"x_max":835,"o":"m 835 849 l 507 849 l 507 0 l 350 0 l 350 849 l 21 849 l 21 986 l 835 986 l 835 849 m 363 -268 l 363 -107 l 500 -107 l 500 -268 l 363 -268 z "},"Ṯ":{"ha":856,"x_min":21,"x_max":835,"o":"m 835 849 l 507 849 l 507 0 l 350 0 l 350 849 l 21 849 l 21 986 l 835 986 l 835 849 m 226 -211 l 226 -115 l 638 -115 l 638 -211 l 226 -211 z "},"U":{"ha":1044,"x_min":97,"x_max":949,"o":"m 522 -7 q 323 33 404 -7 q 192 143 242 74 q 120 301 143 213 q 97 486 97 390 l 97 986 l 253 986 l 253 486 q 267 355 253 418 q 311 242 281 292 q 394 163 342 192 q 522 133 446 133 q 652 163 600 133 q 734 244 704 193 q 778 357 764 294 q 792 486 792 419 l 792 986 l 949 986 l 949 486 q 924 295 949 385 q 849 138 900 206 q 718 32 799 71 q 522 -7 638 -7 z "},"Ú":{"ha":1044,"x_min":97,"x_max":949,"o":"m 522 -7 q 323 33 404 -7 q 192 143 242 74 q 120 301 143 213 q 97 486 97 390 l 97 986 l 253 986 l 253 486 q 267 355 253 418 q 311 242 281 292 q 394 163 342 192 q 522 133 446 133 q 652 163 600 133 q 734 244 704 193 q 778 357 764 294 q 792 486 792 419 l 792 986 l 949 986 l 949 486 q 924 295 949 385 q 849 138 900 206 q 718 32 799 71 q 522 -7 638 -7 m 575 1089 l 475 1119 l 554 1272 l 700 1272 l 575 1089 z "},"Ŭ":{"ha":1044,"x_min":97,"x_max":949,"o":"m 522 -7 q 323 33 404 -7 q 192 143 242 74 q 120 301 143 213 q 97 486 97 390 l 97 986 l 253 986 l 253 486 q 267 355 253 418 q 311 242 281 292 q 394 163 342 192 q 522 133 446 133 q 652 163 600 133 q 734 244 704 193 q 778 357 764 294 q 792 486 792 419 l 792 986 l 949 986 l 949 486 q 924 295 949 385 q 849 138 900 206 q 718 32 799 71 q 522 -7 638 -7 m 524 1174 q 577 1202 554 1174 q 604 1272 600 1231 l 689 1272 q 642 1151 689 1200 q 524 1103 594 1103 q 406 1151 453 1103 q 358 1272 358 1200 l 443 1272 q 467 1203 443 1233 q 524 1174 492 1174 z "},"Û":{"ha":1044,"x_min":97,"x_max":949,"o":"m 522 -7 q 323 33 404 -7 q 192 143 242 74 q 120 301 143 213 q 97 486 97 390 l 97 986 l 253 986 l 253 486 q 267 355 253 418 q 311 242 281 292 q 394 163 342 192 q 522 133 446 133 q 652 163 600 133 q 734 244 704 193 q 778 357 764 294 q 792 486 792 419 l 792 986 l 949 986 l 949 486 q 924 295 949 385 q 849 138 900 206 q 718 32 799 71 q 522 -7 638 -7 m 324 1140 l 468 1272 l 578 1272 l 722 1140 l 640 1101 l 522 1189 l 404 1101 l 324 1140 z "},"Ȕ":{"ha":1044,"x_min":97,"x_max":949,"o":"m 522 -7 q 323 33 404 -7 q 192 143 242 74 q 120 301 143 213 q 97 486 97 390 l 97 986 l 253 986 l 253 486 q 267 355 253 418 q 311 242 281 292 q 394 163 342 192 q 522 133 446 133 q 652 163 600 133 q 734 244 704 193 q 778 357 764 294 q 792 486 792 419 l 792 986 l 949 986 l 949 486 q 924 295 949 385 q 849 138 900 206 q 718 32 799 71 q 522 -7 638 -7 m 486 1274 l 610 1274 l 681 1121 l 604 1090 l 486 1274 m 281 1274 l 406 1274 l 476 1121 l 399 1090 l 281 1274 z "},"Ü":{"ha":1044,"x_min":97,"x_max":949,"o":"m 522 -7 q 323 33 404 -7 q 192 143 242 74 q 120 301 143 213 q 97 486 97 390 l 97 986 l 253 986 l 253 486 q 267 355 253 418 q 311 242 281 292 q 394 163 342 192 q 522 133 446 133 q 652 163 600 133 q 734 244 704 193 q 778 357 764 294 q 792 486 792 419 l 792 986 l 949 986 l 949 486 q 924 295 949 385 q 849 138 900 206 q 718 32 799 71 q 522 -7 638 -7 m 336 1114 l 336 1267 l 464 1267 l 464 1114 l 336 1114 m 582 1114 l 582 1267 l 710 1267 l 710 1114 l 582 1114 z "},"Ụ":{"ha":1044,"x_min":97,"x_max":949,"o":"m 522 -7 q 323 33 404 -7 q 192 143 242 74 q 120 301 143 213 q 97 486 97 390 l 97 986 l 253 986 l 253 486 q 267 355 253 418 q 311 242 281 292 q 394 163 342 192 q 522 133 446 133 q 652 163 600 133 q 734 244 704 193 q 778 357 764 294 q 792 486 792 419 l 792 986 l 949 986 l 949 486 q 924 295 949 385 q 849 138 900 206 q 718 32 799 71 q 522 -7 638 -7 m 454 -268 l 454 -107 l 592 -107 l 592 -268 l 454 -268 z "},"Ù":{"ha":1044,"x_min":97,"x_max":949,"o":"m 522 -7 q 323 33 404 -7 q 192 143 242 74 q 120 301 143 213 q 97 486 97 390 l 97 986 l 253 986 l 253 486 q 267 355 253 418 q 311 242 281 292 q 394 163 342 192 q 522 133 446 133 q 652 163 600 133 q 734 244 704 193 q 778 357 764 294 q 792 486 792 419 l 792 986 l 949 986 l 949 486 q 924 295 949 385 q 849 138 900 206 q 718 32 799 71 q 522 -7 638 -7 m 364 1272 l 510 1272 l 589 1119 l 492 1089 l 364 1272 z "},"Ủ":{"ha":1044,"x_min":97,"x_max":949,"o":"m 522 -7 q 323 33 404 -7 q 192 143 242 74 q 120 301 143 213 q 97 486 97 390 l 97 986 l 253 986 l 253 486 q 267 355 253 418 q 311 242 281 292 q 394 163 342 192 q 522 133 446 133 q 652 163 600 133 q 734 244 704 193 q 778 357 764 294 q 792 486 792 419 l 792 986 l 949 986 l 949 486 q 924 295 949 385 q 849 138 900 206 q 718 32 799 71 q 522 -7 638 -7 m 456 1219 l 404 1269 q 466 1313 435 1299 q 535 1326 497 1326 q 613 1297 586 1326 q 640 1229 640 1268 q 620 1164 640 1196 q 557 1097 600 1132 l 517 1143 q 550 1180 540 1164 q 560 1213 560 1196 q 549 1240 560 1229 q 521 1251 538 1251 q 489 1244 503 1251 q 456 1219 475 1238 z "},"Ư":{"ha":1044,"x_min":97,"x_max":1113,"o":"m 522 -7 q 323 33 404 -7 q 192 143 242 74 q 120 301 143 213 q 97 486 97 390 l 97 986 l 253 986 l 253 486 q 267 355 253 418 q 311 242 281 292 q 394 163 342 192 q 522 133 446 133 q 652 163 600 133 q 734 244 704 193 q 778 357 764 294 q 792 486 792 419 l 792 986 l 949 986 l 949 486 q 924 295 949 385 q 849 138 900 206 q 718 32 799 71 q 522 -7 638 -7 m 853 879 l 856 988 q 931 995 904 988 q 972 1019 957 1003 q 991 1059 988 1038 q 996 1107 994 1081 l 1113 1107 q 1108 1051 1113 1079 q 1092 997 1103 1024 q 1060 946 1082 969 q 1008 910 1040 925 q 937 887 976 894 q 853 879 897 879 z "},"Ứ":{"ha":1044,"x_min":97,"x_max":1113,"o":"m 522 -7 q 323 33 404 -7 q 192 143 242 74 q 120 301 143 213 q 97 486 97 390 l 97 986 l 253 986 l 253 486 q 267 355 253 418 q 311 242 281 292 q 394 163 342 192 q 522 133 446 133 q 652 163 600 133 q 734 244 704 193 q 778 357 764 294 q 792 486 792 419 l 792 986 l 949 986 l 949 486 q 924 295 949 385 q 849 138 900 206 q 718 32 799 71 q 522 -7 638 -7 m 853 879 l 856 988 q 931 995 904 988 q 972 1019 957 1003 q 991 1059 988 1038 q 996 1107 994 1081 l 1113 1107 q 1108 1051 1113 1079 q 1092 997 1103 1024 q 1060 946 1082 969 q 1008 910 1040 925 q 937 887 976 894 q 853 879 897 879 m 575 1089 l 475 1119 l 554 1272 l 700 1272 l 575 1089 z "},"Ự":{"ha":1044,"x_min":97,"x_max":1113,"o":"m 522 -7 q 323 33 404 -7 q 192 143 242 74 q 120 301 143 213 q 97 486 97 390 l 97 986 l 253 986 l 253 486 q 267 355 253 418 q 311 242 281 292 q 394 163 342 192 q 522 133 446 133 q 652 163 600 133 q 734 244 704 193 q 778 357 764 294 q 792 486 792 419 l 792 986 l 949 986 l 949 486 q 924 295 949 385 q 849 138 900 206 q 718 32 799 71 q 522 -7 638 -7 m 853 879 l 856 988 q 931 995 904 988 q 972 1019 957 1003 q 991 1059 988 1038 q 996 1107 994 1081 l 1113 1107 q 1108 1051 1113 1079 q 1092 997 1103 1024 q 1060 946 1082 969 q 1008 910 1040 925 q 937 887 976 894 q 853 879 897 879 m 454 -268 l 454 -107 l 592 -107 l 592 -268 l 454 -268 z "},"Ừ":{"ha":1044,"x_min":97,"x_max":1113,"o":"m 522 -7 q 323 33 404 -7 q 192 143 242 74 q 120 301 143 213 q 97 486 97 390 l 97 986 l 253 986 l 253 486 q 267 355 253 418 q 311 242 281 292 q 394 163 342 192 q 522 133 446 133 q 652 163 600 133 q 734 244 704 193 q 778 357 764 294 q 792 486 792 419 l 792 986 l 949 986 l 949 486 q 924 295 949 385 q 849 138 900 206 q 718 32 799 71 q 522 -7 638 -7 m 853 879 l 856 988 q 931 995 904 988 q 972 1019 957 1003 q 991 1059 988 1038 q 996 1107 994 1081 l 1113 1107 q 1108 1051 1113 1079 q 1092 997 1103 1024 q 1060 946 1082 969 q 1008 910 1040 925 q 937 887 976 894 q 853 879 897 879 m 364 1272 l 510 1272 l 589 1119 l 492 1089 l 364 1272 z "},"Ử":{"ha":1044,"x_min":97,"x_max":1113,"o":"m 522 -7 q 323 33 404 -7 q 192 143 242 74 q 120 301 143 213 q 97 486 97 390 l 97 986 l 253 986 l 253 486 q 267 355 253 418 q 311 242 281 292 q 394 163 342 192 q 522 133 446 133 q 652 163 600 133 q 734 244 704 193 q 778 357 764 294 q 792 486 792 419 l 792 986 l 949 986 l 949 486 q 924 295 949 385 q 849 138 900 206 q 718 32 799 71 q 522 -7 638 -7 m 853 879 l 856 988 q 931 995 904 988 q 972 1019 957 1003 q 991 1059 988 1038 q 996 1107 994 1081 l 1113 1107 q 1108 1051 1113 1079 q 1092 997 1103 1024 q 1060 946 1082 969 q 1008 910 1040 925 q 937 887 976 894 q 853 879 897 879 m 456 1219 l 404 1269 q 466 1313 435 1299 q 535 1326 497 1326 q 613 1297 586 1326 q 640 1229 640 1268 q 620 1164 640 1196 q 557 1097 600 1132 l 517 1143 q 550 1180 540 1164 q 560 1213 560 1196 q 549 1240 560 1229 q 521 1251 538 1251 q 489 1244 503 1251 q 456 1219 475 1238 z "},"Ữ":{"ha":1044,"x_min":97,"x_max":1113,"o":"m 522 -7 q 323 33 404 -7 q 192 143 242 74 q 120 301 143 213 q 97 486 97 390 l 97 986 l 253 986 l 253 486 q 267 355 253 418 q 311 242 281 292 q 394 163 342 192 q 522 133 446 133 q 652 163 600 133 q 734 244 704 193 q 778 357 764 294 q 792 486 792 419 l 792 986 l 949 986 l 949 486 q 924 295 949 385 q 849 138 900 206 q 718 32 799 71 q 522 -7 638 -7 m 853 879 l 856 988 q 931 995 904 988 q 972 1019 957 1003 q 991 1059 988 1038 q 996 1107 994 1081 l 1113 1107 q 1108 1051 1113 1079 q 1092 997 1103 1024 q 1060 946 1082 969 q 1008 910 1040 925 q 937 887 976 894 q 853 879 897 879 m 611 1113 q 540 1128 569 1113 q 485 1158 510 1143 q 431 1172 461 1172 q 385 1157 400 1172 q 367 1125 371 1142 q 363 1106 363 1108 l 276 1106 q 283 1142 276 1117 q 308 1197 290 1168 q 353 1245 325 1225 q 425 1265 382 1265 q 494 1250 467 1265 q 548 1219 522 1235 q 607 1204 574 1204 q 657 1220 642 1204 q 677 1253 672 1236 q 682 1272 682 1269 l 769 1272 q 762 1238 769 1263 q 736 1183 754 1213 q 688 1133 718 1154 q 611 1113 657 1113 z "},"Ű":{"ha":1044,"x_min":97,"x_max":949,"o":"m 522 -7 q 323 33 404 -7 q 192 143 242 74 q 120 301 143 213 q 97 486 97 390 l 97 986 l 253 986 l 253 486 q 267 355 253 418 q 311 242 281 292 q 394 163 342 192 q 522 133 446 133 q 652 163 600 133 q 734 244 704 193 q 778 357 764 294 q 792 486 792 419 l 792 986 l 949 986 l 949 486 q 924 295 949 385 q 849 138 900 206 q 718 32 799 71 q 522 -7 638 -7 m 435 1090 l 358 1121 l 429 1274 l 553 1274 l 435 1090 m 640 1090 l 563 1121 l 633 1274 l 758 1274 l 640 1090 z "},"Ȗ":{"ha":1044,"x_min":97,"x_max":949,"o":"m 522 -7 q 323 33 404 -7 q 192 143 242 74 q 120 301 143 213 q 97 486 97 390 l 97 986 l 253 986 l 253 486 q 267 355 253 418 q 311 242 281 292 q 394 163 342 192 q 522 133 446 133 q 652 163 600 133 q 734 244 704 193 q 778 357 764 294 q 792 486 792 419 l 792 986 l 949 986 l 949 486 q 924 295 949 385 q 849 138 900 206 q 718 32 799 71 q 522 -7 638 -7 m 524 1201 q 467 1172 492 1201 q 443 1103 443 1142 l 358 1103 q 406 1224 358 1175 q 524 1272 453 1272 q 642 1224 594 1272 q 689 1103 689 1175 l 604 1103 q 577 1173 600 1144 q 524 1201 554 1201 z "},"Ū":{"ha":1044,"x_min":97,"x_max":949,"o":"m 522 -7 q 323 33 404 -7 q 192 143 242 74 q 120 301 143 213 q 97 486 97 390 l 97 986 l 253 986 l 253 486 q 267 355 253 418 q 311 242 281 292 q 394 163 342 192 q 522 133 446 133 q 652 163 600 133 q 734 244 704 193 q 778 357 764 294 q 792 486 792 419 l 792 986 l 949 986 l 949 486 q 924 295 949 385 q 849 138 900 206 q 718 32 799 71 q 522 -7 638 -7 m 319 1153 l 319 1250 l 731 1250 l 731 1153 l 319 1153 z "},"Ṻ":{"ha":1044,"x_min":97,"x_max":949,"o":"m 522 -7 q 323 33 404 -7 q 192 143 242 74 q 120 301 143 213 q 97 486 97 390 l 97 986 l 253 986 l 253 486 q 267 355 253 418 q 311 242 281 292 q 394 163 342 192 q 522 133 446 133 q 652 163 600 133 q 734 244 704 193 q 778 357 764 294 q 792 486 792 419 l 792 986 l 949 986 l 949 486 q 924 295 949 385 q 849 138 900 206 q 718 32 799 71 q 522 -7 638 -7 m 319 1153 l 319 1250 l 731 1250 l 731 1153 l 319 1153 m 338 1378 l 338 1531 l 465 1531 l 465 1378 l 338 1378 m 583 1378 l 583 1531 l 711 1531 l 711 1378 l 583 1378 z "},"Ų":{"ha":1044,"x_min":97,"x_max":949,"o":"m 522 -7 q 323 33 404 -7 q 192 143 242 74 q 120 301 143 213 q 97 486 97 390 l 97 986 l 253 986 l 253 486 q 267 355 253 418 q 311 242 281 292 q 394 163 342 192 q 522 133 446 133 q 652 163 600 133 q 734 244 704 193 q 778 357 764 294 q 792 486 792 419 l 792 986 l 949 986 l 949 486 q 924 295 949 385 q 849 138 900 206 q 718 32 799 71 q 522 -7 638 -7 m 415 -149 q 449 -57 415 -101 q 551 31 482 -12 l 596 31 l 622 3 q 541 -67 567 -36 q 515 -124 515 -99 q 543 -162 515 -150 q 621 -176 571 -174 l 589 -267 q 482 -242 519 -261 q 430 -199 444 -224 q 415 -149 415 -174 z "},"Ů":{"ha":1044,"x_min":97,"x_max":949,"o":"m 522 -7 q 323 33 404 -7 q 192 143 242 74 q 120 301 143 213 q 97 486 97 390 l 97 986 l 253 986 l 253 486 q 267 355 253 418 q 311 242 281 292 q 394 163 342 192 q 522 133 446 133 q 652 163 600 133 q 734 244 704 193 q 778 357 764 294 q 792 486 792 419 l 792 986 l 949 986 l 949 486 q 924 295 949 385 q 849 138 900 206 q 718 32 799 71 q 522 -7 638 -7 m 385 1175 q 424 1266 385 1232 q 522 1300 463 1300 q 623 1266 585 1300 q 661 1175 661 1232 q 623 1087 661 1119 q 522 1054 585 1054 q 424 1087 463 1054 q 385 1175 385 1119 m 524 1239 q 478 1222 497 1239 q 460 1176 460 1206 q 478 1131 460 1150 q 524 1113 496 1113 q 568 1131 549 1113 q 588 1175 588 1149 q 569 1222 588 1206 q 524 1239 550 1239 z "},"Ũ":{"ha":1044,"x_min":97,"x_max":949,"o":"m 522 -7 q 323 33 404 -7 q 192 143 242 74 q 120 301 143 213 q 97 486 97 390 l 97 986 l 253 986 l 253 486 q 267 355 253 418 q 311 242 281 292 q 394 163 342 192 q 522 133 446 133 q 652 163 600 133 q 734 244 704 193 q 778 357 764 294 q 792 486 792 419 l 792 986 l 949 986 l 949 486 q 924 295 949 385 q 849 138 900 206 q 718 32 799 71 q 522 -7 638 -7 m 611 1113 q 540 1128 569 1113 q 485 1158 510 1143 q 431 1172 461 1172 q 385 1157 400 1172 q 367 1125 371 1142 q 363 1106 363 1108 l 276 1106 q 283 1142 276 1117 q 308 1197 290 1168 q 353 1245 325 1225 q 425 1265 382 1265 q 494 1250 467 1265 q 548 1219 522 1235 q 607 1204 574 1204 q 657 1220 642 1204 q 677 1253 672 1236 q 682 1272 682 1269 l 769 1272 q 762 1238 769 1263 q 736 1183 754 1213 q 688 1133 718 1154 q 611 1113 657 1113 z "},"Ṹ":{"ha":1044,"x_min":97,"x_max":949,"o":"m 522 -7 q 323 33 404 -7 q 192 143 242 74 q 120 301 143 213 q 97 486 97 390 l 97 986 l 253 986 l 253 486 q 267 355 253 418 q 311 242 281 292 q 394 163 342 192 q 522 133 446 133 q 652 163 600 133 q 734 244 704 193 q 778 357 764 294 q 792 486 792 419 l 792 986 l 949 986 l 949 486 q 924 295 949 385 q 849 138 900 206 q 718 32 799 71 q 522 -7 638 -7 m 611 1113 q 540 1128 569 1113 q 485 1158 510 1143 q 431 1172 461 1172 q 385 1157 400 1172 q 367 1125 371 1142 q 363 1106 363 1108 l 276 1106 q 283 1142 276 1117 q 308 1197 290 1168 q 353 1245 325 1225 q 425 1265 382 1265 q 494 1250 467 1265 q 548 1219 522 1235 q 607 1204 574 1204 q 657 1220 642 1204 q 677 1253 672 1236 q 682 1272 682 1269 l 769 1272 q 762 1238 769 1263 q 736 1183 754 1213 q 688 1133 718 1154 q 611 1113 657 1113 m 575 1376 l 475 1407 l 554 1560 l 700 1560 l 575 1376 z "},"V":{"ha":942,"x_min":8,"x_max":932,"o":"m 174 986 l 471 190 l 767 986 l 932 986 l 544 0 l 397 0 l 8 986 l 174 986 z "},"W":{"ha":1460,"x_min":6,"x_max":1454,"o":"m 461 982 l 607 982 l 729 647 l 853 982 l 999 982 l 829 543 l 976 181 l 1283 986 l 1454 986 l 1050 0 l 915 0 l 731 442 l 544 0 l 408 0 l 6 986 l 175 986 l 483 181 l 631 543 l 461 982 z "},"Ẃ":{"ha":1460,"x_min":6,"x_max":1454,"o":"m 461 982 l 607 982 l 729 647 l 853 982 l 999 982 l 829 543 l 976 181 l 1283 986 l 1454 986 l 1050 0 l 915 0 l 731 442 l 544 0 l 408 0 l 6 986 l 175 986 l 483 181 l 631 543 l 461 982 m 781 1089 l 681 1119 l 760 1272 l 906 1272 l 781 1089 z "},"Ŵ":{"ha":1460,"x_min":6,"x_max":1454,"o":"m 461 982 l 607 982 l 729 647 l 853 982 l 999 982 l 829 543 l 976 181 l 1283 986 l 1454 986 l 1050 0 l 915 0 l 731 442 l 544 0 l 408 0 l 6 986 l 175 986 l 483 181 l 631 543 l 461 982 m 529 1140 l 674 1272 l 783 1272 l 928 1140 l 846 1101 l 728 1189 l 610 1101 l 529 1140 z "},"Ẅ":{"ha":1460,"x_min":6,"x_max":1454,"o":"m 461 982 l 607 982 l 729 647 l 853 982 l 999 982 l 829 543 l 976 181 l 1283 986 l 1454 986 l 1050 0 l 915 0 l 731 442 l 544 0 l 408 0 l 6 986 l 175 986 l 483 181 l 631 543 l 461 982 m 543 1114 l 543 1267 l 671 1267 l 671 1114 l 543 1114 m 789 1114 l 789 1267 l 917 1267 l 917 1114 l 789 1114 z "},"Ẁ":{"ha":1460,"x_min":6,"x_max":1454,"o":"m 461 982 l 607 982 l 729 647 l 853 982 l 999 982 l 829 543 l 976 181 l 1283 986 l 1454 986 l 1050 0 l 915 0 l 731 442 l 544 0 l 408 0 l 6 986 l 175 986 l 483 181 l 631 543 l 461 982 m 571 1272 l 717 1272 l 796 1119 l 699 1089 l 571 1272 z "},"X":{"ha":890,"x_min":0,"x_max":890,"o":"m 174 986 l 446 599 l 718 986 l 890 986 l 535 486 l 879 0 l 707 0 l 446 374 l 185 0 l 11 0 l 356 486 l 0 986 l 174 986 z "},"Y":{"ha":913,"x_min":13,"x_max":901,"o":"m 183 986 l 456 496 l 731 986 l 901 986 l 533 353 l 533 0 l 378 0 l 378 356 l 13 986 l 183 986 z "},"Ý":{"ha":913,"x_min":13,"x_max":901,"o":"m 183 986 l 456 496 l 731 986 l 901 986 l 533 353 l 533 0 l 378 0 l 378 356 l 13 986 l 183 986 m 508 1089 l 408 1119 l 488 1272 l 633 1272 l 508 1089 z "},"Ŷ":{"ha":913,"x_min":13,"x_max":901,"o":"m 183 986 l 456 496 l 731 986 l 901 986 l 533 353 l 533 0 l 378 0 l 378 356 l 13 986 l 183 986 m 257 1140 l 401 1272 l 511 1272 l 656 1140 l 574 1101 l 456 1189 l 338 1101 l 257 1140 z "},"Ÿ":{"ha":913,"x_min":13,"x_max":901,"o":"m 183 986 l 456 496 l 731 986 l 901 986 l 533 353 l 533 0 l 378 0 l 378 356 l 13 986 l 183 986 m 269 1114 l 269 1267 l 397 1267 l 397 1114 l 269 1114 m 515 1114 l 515 1267 l 643 1267 l 643 1114 l 515 1114 z "},"Ẏ":{"ha":913,"x_min":13,"x_max":901,"o":"m 183 986 l 456 496 l 731 986 l 901 986 l 533 353 l 533 0 l 378 0 l 378 356 l 13 986 l 183 986 m 386 1113 l 386 1272 l 524 1272 l 524 1113 l 386 1113 z "},"Ỵ":{"ha":913,"x_min":13,"x_max":901,"o":"m 183 986 l 456 496 l 731 986 l 901 986 l 533 353 l 533 0 l 378 0 l 378 356 l 13 986 l 183 986 m 388 -268 l 388 -107 l 525 -107 l 525 -268 l 388 -268 z "},"Ỳ":{"ha":913,"x_min":13,"x_max":901,"o":"m 183 986 l 456 496 l 731 986 l 901 986 l 533 353 l 533 0 l 378 0 l 378 356 l 13 986 l 183 986 m 297 1272 l 443 1272 l 522 1119 l 425 1089 l 297 1272 z "},"Ỷ":{"ha":913,"x_min":13,"x_max":901,"o":"m 183 986 l 456 496 l 731 986 l 901 986 l 533 353 l 533 0 l 378 0 l 378 356 l 13 986 l 183 986 m 389 1219 l 338 1269 q 399 1313 368 1299 q 468 1326 431 1326 q 547 1297 519 1326 q 574 1229 574 1268 q 553 1164 574 1196 q 490 1097 533 1132 l 450 1143 q 483 1180 474 1164 q 493 1213 493 1196 q 482 1240 493 1229 q 454 1251 471 1251 q 422 1244 436 1251 q 389 1219 408 1238 z "},"Ȳ":{"ha":913,"x_min":13,"x_max":901,"o":"m 183 986 l 456 496 l 731 986 l 901 986 l 533 353 l 533 0 l 378 0 l 378 356 l 13 986 l 183 986 m 251 1153 l 251 1250 l 663 1250 l 663 1153 l 251 1153 z "},"Ỹ":{"ha":913,"x_min":13,"x_max":901,"o":"m 183 986 l 456 496 l 731 986 l 901 986 l 533 353 l 533 0 l 378 0 l 378 356 l 13 986 l 183 986 m 544 1113 q 473 1128 503 1113 q 419 1158 443 1143 q 364 1172 394 1172 q 319 1157 333 1172 q 300 1125 304 1142 q 296 1106 296 1108 l 210 1106 q 217 1142 210 1117 q 241 1197 224 1168 q 287 1245 258 1225 q 358 1265 315 1265 q 428 1250 400 1265 q 481 1219 456 1235 q 540 1204 507 1204 q 590 1220 575 1204 q 610 1253 606 1236 q 615 1272 615 1269 l 703 1272 q 695 1238 703 1263 q 669 1183 688 1213 q 621 1133 651 1154 q 544 1113 590 1113 z "},"Z":{"ha":874,"x_min":43,"x_max":825,"o":"m 43 119 l 639 849 l 57 849 l 57 986 l 824 986 l 824 867 l 243 138 l 825 138 l 825 0 l 43 0 l 43 119 z "},"Ź":{"ha":874,"x_min":43,"x_max":825,"o":"m 43 119 l 639 849 l 57 849 l 57 986 l 824 986 l 824 867 l 243 138 l 825 138 l 825 0 l 43 0 l 43 119 m 508 1089 l 408 1119 l 488 1272 l 633 1272 l 508 1089 z "},"Ž":{"ha":874,"x_min":43,"x_max":825,"o":"m 43 119 l 639 849 l 57 849 l 57 986 l 824 986 l 824 867 l 243 138 l 825 138 l 825 0 l 43 0 l 43 119 m 338 1272 l 456 1185 l 574 1272 l 656 1233 l 511 1101 l 401 1101 l 257 1233 l 338 1272 z "},"Ż":{"ha":874,"x_min":43,"x_max":825,"o":"m 43 119 l 639 849 l 57 849 l 57 986 l 824 986 l 824 867 l 243 138 l 825 138 l 825 0 l 43 0 l 43 119 m 388 1113 l 388 1272 l 525 1272 l 525 1113 l 388 1113 z "},"Ẓ":{"ha":874,"x_min":43,"x_max":825,"o":"m 43 119 l 639 849 l 57 849 l 57 986 l 824 986 l 824 867 l 243 138 l 825 138 l 825 0 l 43 0 l 43 119 m 368 -268 l 368 -107 l 506 -107 l 506 -268 l 368 -268 z "},"a":{"ha":783,"x_min":39,"x_max":731,"o":"m 39 213 q 78 334 39 282 q 188 415 118 386 q 349 443 257 443 q 448 436 397 443 q 538 414 499 429 l 538 460 q 492 579 538 536 q 360 622 446 622 q 244 601 299 622 q 129 540 190 579 l 78 643 q 223 715 150 692 q 376 739 296 739 q 606 662 522 739 q 690 443 690 585 l 690 172 q 699 135 690 146 q 731 122 708 124 l 731 0 q 693 -6 710 -4 q 665 -7 676 -7 q 592 17 617 -7 q 563 72 567 40 l 558 114 q 438 19 511 53 q 289 -14 364 -14 q 160 16 217 -14 q 71 97 103 46 q 39 213 39 149 m 501 168 q 528 204 518 186 q 538 236 538 222 l 538 319 q 456 342 499 335 q 371 350 413 350 q 235 317 288 350 q 183 225 183 283 q 201 164 183 193 q 251 117 218 135 q 332 99 283 99 q 428 118 382 99 q 501 168 474 138 z "},"á":{"ha":783,"x_min":39,"x_max":731,"o":"m 39 213 q 78 334 39 282 q 188 415 118 386 q 349 443 257 443 q 448 436 397 443 q 538 414 499 429 l 538 460 q 492 579 538 536 q 360 622 446 622 q 244 601 299 622 q 129 540 190 579 l 78 643 q 223 715 150 692 q 376 739 296 739 q 606 662 522 739 q 690 443 690 585 l 690 172 q 699 135 690 146 q 731 122 708 124 l 731 0 q 693 -6 710 -4 q 665 -7 676 -7 q 592 17 617 -7 q 563 72 567 40 l 558 114 q 438 19 511 53 q 289 -14 364 -14 q 160 16 217 -14 q 71 97 103 46 q 39 213 39 149 m 501 168 q 528 204 518 186 q 538 236 538 222 l 538 319 q 456 342 499 335 q 371 350 413 350 q 235 317 288 350 q 183 225 183 283 q 201 164 183 193 q 251 117 218 135 q 332 99 283 99 q 428 118 382 99 q 501 168 474 138 m 426 831 l 326 861 l 406 1014 l 551 1014 l 426 831 z "},"ă":{"ha":783,"x_min":39,"x_max":731,"o":"m 39 213 q 78 334 39 282 q 188 415 118 386 q 349 443 257 443 q 448 436 397 443 q 538 414 499 429 l 538 460 q 492 579 538 536 q 360 622 446 622 q 244 601 299 622 q 129 540 190 579 l 78 643 q 223 715 150 692 q 376 739 296 739 q 606 662 522 739 q 690 443 690 585 l 690 172 q 699 135 690 146 q 731 122 708 124 l 731 0 q 693 -6 710 -4 q 665 -7 676 -7 q 592 17 617 -7 q 563 72 567 40 l 558 114 q 438 19 511 53 q 289 -14 364 -14 q 160 16 217 -14 q 71 97 103 46 q 39 213 39 149 m 501 168 q 528 204 518 186 q 538 236 538 222 l 538 319 q 456 342 499 335 q 371 350 413 350 q 235 317 288 350 q 183 225 183 283 q 201 164 183 193 q 251 117 218 135 q 332 99 283 99 q 428 118 382 99 q 501 168 474 138 m 374 915 q 427 944 404 915 q 454 1014 450 972 l 539 1014 q 492 893 539 942 q 374 844 444 844 q 256 893 303 844 q 208 1014 208 942 l 293 1014 q 317 945 293 975 q 374 915 342 915 z "},"ắ":{"ha":783,"x_min":39,"x_max":731,"o":"m 39 213 q 78 334 39 282 q 188 415 118 386 q 349 443 257 443 q 448 436 397 443 q 538 414 499 429 l 538 460 q 492 579 538 536 q 360 622 446 622 q 244 601 299 622 q 129 540 190 579 l 78 643 q 223 715 150 692 q 376 739 296 739 q 606 662 522 739 q 690 443 690 585 l 690 172 q 699 135 690 146 q 731 122 708 124 l 731 0 q 693 -6 710 -4 q 665 -7 676 -7 q 592 17 617 -7 q 563 72 567 40 l 558 114 q 438 19 511 53 q 289 -14 364 -14 q 160 16 217 -14 q 71 97 103 46 q 39 213 39 149 m 501 168 q 528 204 518 186 q 538 236 538 222 l 538 319 q 456 342 499 335 q 371 350 413 350 q 235 317 288 350 q 183 225 183 283 q 201 164 183 193 q 251 117 218 135 q 332 99 283 99 q 428 118 382 99 q 501 168 474 138 z "},"ặ":{"ha":783,"x_min":39,"x_max":731,"o":"m 39 213 q 78 334 39 282 q 188 415 118 386 q 349 443 257 443 q 448 436 397 443 q 538 414 499 429 l 538 460 q 492 579 538 536 q 360 622 446 622 q 244 601 299 622 q 129 540 190 579 l 78 643 q 223 715 150 692 q 376 739 296 739 q 606 662 522 739 q 690 443 690 585 l 690 172 q 699 135 690 146 q 731 122 708 124 l 731 0 q 693 -6 710 -4 q 665 -7 676 -7 q 592 17 617 -7 q 563 72 567 40 l 558 114 q 438 19 511 53 q 289 -14 364 -14 q 160 16 217 -14 q 71 97 103 46 q 39 213 39 149 m 501 168 q 528 204 518 186 q 538 236 538 222 l 538 319 q 456 342 499 335 q 371 350 413 350 q 235 317 288 350 q 183 225 183 283 q 201 164 183 193 q 251 117 218 135 q 332 99 283 99 q 428 118 382 99 q 501 168 474 138 m 346 -268 l 346 -107 l 483 -107 l 483 -268 l 346 -268 m 374 915 q 427 944 404 915 q 454 1014 450 972 l 539 1014 q 492 893 539 942 q 374 844 444 844 q 256 893 303 844 q 208 1014 208 942 l 293 1014 q 317 945 293 975 q 374 915 342 915 z "},"ằ":{"ha":783,"x_min":39,"x_max":731,"o":"m 39 213 q 78 334 39 282 q 188 415 118 386 q 349 443 257 443 q 448 436 397 443 q 538 414 499 429 l 538 460 q 492 579 538 536 q 360 622 446 622 q 244 601 299 622 q 129 540 190 579 l 78 643 q 223 715 150 692 q 376 739 296 739 q 606 662 522 739 q 690 443 690 585 l 690 172 q 699 135 690 146 q 731 122 708 124 l 731 0 q 693 -6 710 -4 q 665 -7 676 -7 q 592 17 617 -7 q 563 72 567 40 l 558 114 q 438 19 511 53 q 289 -14 364 -14 q 160 16 217 -14 q 71 97 103 46 q 39 213 39 149 m 501 168 q 528 204 518 186 q 538 236 538 222 l 538 319 q 456 342 499 335 q 371 350 413 350 q 235 317 288 350 q 183 225 183 283 q 201 164 183 193 q 251 117 218 135 q 332 99 283 99 q 428 118 382 99 q 501 168 474 138 z "},"ẳ":{"ha":783,"x_min":39,"x_max":731,"o":"m 39 213 q 78 334 39 282 q 188 415 118 386 q 349 443 257 443 q 448 436 397 443 q 538 414 499 429 l 538 460 q 492 579 538 536 q 360 622 446 622 q 244 601 299 622 q 129 540 190 579 l 78 643 q 223 715 150 692 q 376 739 296 739 q 606 662 522 739 q 690 443 690 585 l 690 172 q 699 135 690 146 q 731 122 708 124 l 731 0 q 693 -6 710 -4 q 665 -7 676 -7 q 592 17 617 -7 q 563 72 567 40 l 558 114 q 438 19 511 53 q 289 -14 364 -14 q 160 16 217 -14 q 71 97 103 46 q 39 213 39 149 m 501 168 q 528 204 518 186 q 538 236 538 222 l 538 319 q 456 342 499 335 q 371 350 413 350 q 235 317 288 350 q 183 225 183 283 q 201 164 183 193 q 251 117 218 135 q 332 99 283 99 q 428 118 382 99 q 501 168 474 138 z "},"ẵ":{"ha":783,"x_min":39,"x_max":731,"o":"m 39 213 q 78 334 39 282 q 188 415 118 386 q 349 443 257 443 q 448 436 397 443 q 538 414 499 429 l 538 460 q 492 579 538 536 q 360 622 446 622 q 244 601 299 622 q 129 540 190 579 l 78 643 q 223 715 150 692 q 376 739 296 739 q 606 662 522 739 q 690 443 690 585 l 690 172 q 699 135 690 146 q 731 122 708 124 l 731 0 q 693 -6 710 -4 q 665 -7 676 -7 q 592 17 617 -7 q 563 72 567 40 l 558 114 q 438 19 511 53 q 289 -14 364 -14 q 160 16 217 -14 q 71 97 103 46 q 39 213 39 149 m 501 168 q 528 204 518 186 q 538 236 538 222 l 538 319 q 456 342 499 335 q 371 350 413 350 q 235 317 288 350 q 183 225 183 283 q 201 164 183 193 q 251 117 218 135 q 332 99 283 99 q 428 118 382 99 q 501 168 474 138 z "},"â":{"ha":783,"x_min":39,"x_max":731,"o":"m 39 213 q 78 334 39 282 q 188 415 118 386 q 349 443 257 443 q 448 436 397 443 q 538 414 499 429 l 538 460 q 492 579 538 536 q 360 622 446 622 q 244 601 299 622 q 129 540 190 579 l 78 643 q 223 715 150 692 q 376 739 296 739 q 606 662 522 739 q 690 443 690 585 l 690 172 q 699 135 690 146 q 731 122 708 124 l 731 0 q 693 -6 710 -4 q 665 -7 676 -7 q 592 17 617 -7 q 563 72 567 40 l 558 114 q 438 19 511 53 q 289 -14 364 -14 q 160 16 217 -14 q 71 97 103 46 q 39 213 39 149 m 501 168 q 528 204 518 186 q 538 236 538 222 l 538 319 q 456 342 499 335 q 371 350 413 350 q 235 317 288 350 q 183 225 183 283 q 201 164 183 193 q 251 117 218 135 q 332 99 283 99 q 428 118 382 99 q 501 168 474 138 m 175 882 l 319 1014 l 429 1014 l 574 882 l 492 843 l 374 931 l 256 843 l 175 882 z "},"ấ":{"ha":783,"x_min":39,"x_max":731,"o":"m 39 213 q 78 334 39 282 q 188 415 118 386 q 349 443 257 443 q 448 436 397 443 q 538 414 499 429 l 538 460 q 492 579 538 536 q 360 622 446 622 q 244 601 299 622 q 129 540 190 579 l 78 643 q 223 715 150 692 q 376 739 296 739 q 606 662 522 739 q 690 443 690 585 l 690 172 q 699 135 690 146 q 731 122 708 124 l 731 0 q 693 -6 710 -4 q 665 -7 676 -7 q 592 17 617 -7 q 563 72 567 40 l 558 114 q 438 19 511 53 q 289 -14 364 -14 q 160 16 217 -14 q 71 97 103 46 q 39 213 39 149 m 501 168 q 528 204 518 186 q 538 236 538 222 l 538 319 q 456 342 499 335 q 371 350 413 350 q 235 317 288 350 q 183 225 183 283 q 201 164 183 193 q 251 117 218 135 q 332 99 283 99 q 428 118 382 99 q 501 168 474 138 z "},"ậ":{"ha":783,"x_min":39,"x_max":731,"o":"m 39 213 q 78 334 39 282 q 188 415 118 386 q 349 443 257 443 q 448 436 397 443 q 538 414 499 429 l 538 460 q 492 579 538 536 q 360 622 446 622 q 244 601 299 622 q 129 540 190 579 l 78 643 q 223 715 150 692 q 376 739 296 739 q 606 662 522 739 q 690 443 690 585 l 690 172 q 699 135 690 146 q 731 122 708 124 l 731 0 q 693 -6 710 -4 q 665 -7 676 -7 q 592 17 617 -7 q 563 72 567 40 l 558 114 q 438 19 511 53 q 289 -14 364 -14 q 160 16 217 -14 q 71 97 103 46 q 39 213 39 149 m 501 168 q 528 204 518 186 q 538 236 538 222 l 538 319 q 456 342 499 335 q 371 350 413 350 q 235 317 288 350 q 183 225 183 283 q 201 164 183 193 q 251 117 218 135 q 332 99 283 99 q 428 118 382 99 q 501 168 474 138 m 346 -268 l 346 -107 l 483 -107 l 483 -268 l 346 -268 m 175 882 l 319 1014 l 429 1014 l 574 882 l 492 843 l 374 931 l 256 843 l 175 882 z "},"ầ":{"ha":783,"x_min":15,"x_max":731,"o":"m 39 213 q 78 334 39 282 q 188 415 118 386 q 349 443 257 443 q 448 436 397 443 q 538 414 499 429 l 538 460 q 492 579 538 536 q 360 622 446 622 q 244 601 299 622 q 129 540 190 579 l 78 643 q 223 715 150 692 q 376 739 296 739 q 606 662 522 739 q 690 443 690 585 l 690 172 q 699 135 690 146 q 731 122 708 124 l 731 0 q 693 -6 710 -4 q 665 -7 676 -7 q 592 17 617 -7 q 563 72 567 40 l 558 114 q 438 19 511 53 q 289 -14 364 -14 q 160 16 217 -14 q 71 97 103 46 q 39 213 39 149 m 501 168 q 528 204 518 186 q 538 236 538 222 l 538 319 q 456 342 499 335 q 371 350 413 350 q 235 317 288 350 q 183 225 183 283 q 201 164 183 193 q 251 117 218 135 q 332 99 283 99 q 428 118 382 99 q 501 168 474 138 z "},"ẩ":{"ha":783,"x_min":39,"x_max":731,"o":"m 39 213 q 78 334 39 282 q 188 415 118 386 q 349 443 257 443 q 448 436 397 443 q 538 414 499 429 l 538 460 q 492 579 538 536 q 360 622 446 622 q 244 601 299 622 q 129 540 190 579 l 78 643 q 223 715 150 692 q 376 739 296 739 q 606 662 522 739 q 690 443 690 585 l 690 172 q 699 135 690 146 q 731 122 708 124 l 731 0 q 693 -6 710 -4 q 665 -7 676 -7 q 592 17 617 -7 q 563 72 567 40 l 558 114 q 438 19 511 53 q 289 -14 364 -14 q 160 16 217 -14 q 71 97 103 46 q 39 213 39 149 m 501 168 q 528 204 518 186 q 538 236 538 222 l 538 319 q 456 342 499 335 q 371 350 413 350 q 235 317 288 350 q 183 225 183 283 q 201 164 183 193 q 251 117 218 135 q 332 99 283 99 q 428 118 382 99 q 501 168 474 138 z "},"ẫ":{"ha":783,"x_min":39,"x_max":731,"o":"m 39 213 q 78 334 39 282 q 188 415 118 386 q 349 443 257 443 q 448 436 397 443 q 538 414 499 429 l 538 460 q 492 579 538 536 q 360 622 446 622 q 244 601 299 622 q 129 540 190 579 l 78 643 q 223 715 150 692 q 376 739 296 739 q 606 662 522 739 q 690 443 690 585 l 690 172 q 699 135 690 146 q 731 122 708 124 l 731 0 q 693 -6 710 -4 q 665 -7 676 -7 q 592 17 617 -7 q 563 72 567 40 l 558 114 q 438 19 511 53 q 289 -14 364 -14 q 160 16 217 -14 q 71 97 103 46 q 39 213 39 149 m 501 168 q 528 204 518 186 q 538 236 538 222 l 538 319 q 456 342 499 335 q 371 350 413 350 q 235 317 288 350 q 183 225 183 283 q 201 164 183 193 q 251 117 218 135 q 332 99 283 99 q 428 118 382 99 q 501 168 474 138 z "},"ȁ":{"ha":783,"x_min":39,"x_max":731,"o":"m 39 213 q 78 334 39 282 q 188 415 118 386 q 349 443 257 443 q 448 436 397 443 q 538 414 499 429 l 538 460 q 492 579 538 536 q 360 622 446 622 q 244 601 299 622 q 129 540 190 579 l 78 643 q 223 715 150 692 q 376 739 296 739 q 606 662 522 739 q 690 443 690 585 l 690 172 q 699 135 690 146 q 731 122 708 124 l 731 0 q 693 -6 710 -4 q 665 -7 676 -7 q 592 17 617 -7 q 563 72 567 40 l 558 114 q 438 19 511 53 q 289 -14 364 -14 q 160 16 217 -14 q 71 97 103 46 q 39 213 39 149 m 501 168 q 528 204 518 186 q 538 236 538 222 l 538 319 q 456 342 499 335 q 371 350 413 350 q 235 317 288 350 q 183 225 183 283 q 201 164 183 193 q 251 117 218 135 q 332 99 283 99 q 428 118 382 99 q 501 168 474 138 m 336 1015 l 460 1015 l 531 863 l 454 832 l 336 1015 m 131 1015 l 256 1015 l 326 863 l 249 832 l 131 1015 z "},"ä":{"ha":783,"x_min":39,"x_max":731,"o":"m 39 213 q 78 334 39 282 q 188 415 118 386 q 349 443 257 443 q 448 436 397 443 q 538 414 499 429 l 538 460 q 492 579 538 536 q 360 622 446 622 q 244 601 299 622 q 129 540 190 579 l 78 643 q 223 715 150 692 q 376 739 296 739 q 606 662 522 739 q 690 443 690 585 l 690 172 q 699 135 690 146 q 731 122 708 124 l 731 0 q 693 -6 710 -4 q 665 -7 676 -7 q 592 17 617 -7 q 563 72 567 40 l 558 114 q 438 19 511 53 q 289 -14 364 -14 q 160 16 217 -14 q 71 97 103 46 q 39 213 39 149 m 501 168 q 528 204 518 186 q 538 236 538 222 l 538 319 q 456 342 499 335 q 371 350 413 350 q 235 317 288 350 q 183 225 183 283 q 201 164 183 193 q 251 117 218 135 q 332 99 283 99 q 428 118 382 99 q 501 168 474 138 m 188 856 l 188 1008 l 315 1008 l 315 856 l 188 856 m 433 856 l 433 1008 l 561 1008 l 561 856 l 433 856 z "},"ạ":{"ha":783,"x_min":39,"x_max":731,"o":"m 39 213 q 78 334 39 282 q 188 415 118 386 q 349 443 257 443 q 448 436 397 443 q 538 414 499 429 l 538 460 q 492 579 538 536 q 360 622 446 622 q 244 601 299 622 q 129 540 190 579 l 78 643 q 223 715 150 692 q 376 739 296 739 q 606 662 522 739 q 690 443 690 585 l 690 172 q 699 135 690 146 q 731 122 708 124 l 731 0 q 693 -6 710 -4 q 665 -7 676 -7 q 592 17 617 -7 q 563 72 567 40 l 558 114 q 438 19 511 53 q 289 -14 364 -14 q 160 16 217 -14 q 71 97 103 46 q 39 213 39 149 m 501 168 q 528 204 518 186 q 538 236 538 222 l 538 319 q 456 342 499 335 q 371 350 413 350 q 235 317 288 350 q 183 225 183 283 q 201 164 183 193 q 251 117 218 135 q 332 99 283 99 q 428 118 382 99 q 501 168 474 138 m 346 -268 l 346 -107 l 483 -107 l 483 -268 l 346 -268 z "},"à":{"ha":783,"x_min":39,"x_max":731,"o":"m 39 213 q 78 334 39 282 q 188 415 118 386 q 349 443 257 443 q 448 436 397 443 q 538 414 499 429 l 538 460 q 492 579 538 536 q 360 622 446 622 q 244 601 299 622 q 129 540 190 579 l 78 643 q 223 715 150 692 q 376 739 296 739 q 606 662 522 739 q 690 443 690 585 l 690 172 q 699 135 690 146 q 731 122 708 124 l 731 0 q 693 -6 710 -4 q 665 -7 676 -7 q 592 17 617 -7 q 563 72 567 40 l 558 114 q 438 19 511 53 q 289 -14 364 -14 q 160 16 217 -14 q 71 97 103 46 q 39 213 39 149 m 501 168 q 528 204 518 186 q 538 236 538 222 l 538 319 q 456 342 499 335 q 371 350 413 350 q 235 317 288 350 q 183 225 183 283 q 201 164 183 193 q 251 117 218 135 q 332 99 283 99 q 428 118 382 99 q 501 168 474 138 m 215 1015 l 361 1015 l 440 863 l 343 832 l 215 1015 z "},"ả":{"ha":783,"x_min":39,"x_max":731,"o":"m 39 213 q 78 334 39 282 q 188 415 118 386 q 349 443 257 443 q 448 436 397 443 q 538 414 499 429 l 538 460 q 492 579 538 536 q 360 622 446 622 q 244 601 299 622 q 129 540 190 579 l 78 643 q 223 715 150 692 q 376 739 296 739 q 606 662 522 739 q 690 443 690 585 l 690 172 q 699 135 690 146 q 731 122 708 124 l 731 0 q 693 -6 710 -4 q 665 -7 676 -7 q 592 17 617 -7 q 563 72 567 40 l 558 114 q 438 19 511 53 q 289 -14 364 -14 q 160 16 217 -14 q 71 97 103 46 q 39 213 39 149 m 501 168 q 528 204 518 186 q 538 236 538 222 l 538 319 q 456 342 499 335 q 371 350 413 350 q 235 317 288 350 q 183 225 183 283 q 201 164 183 193 q 251 117 218 135 q 332 99 283 99 q 428 118 382 99 q 501 168 474 138 m 307 961 l 256 1011 q 317 1054 286 1040 q 386 1068 349 1068 q 465 1039 438 1068 q 492 971 492 1010 q 472 906 492 938 q 408 839 451 874 l 368 885 q 401 922 392 906 q 411 954 411 938 q 400 982 411 971 q 372 993 389 993 q 340 986 354 993 q 307 961 326 979 z "},"ȃ":{"ha":783,"x_min":39,"x_max":731,"o":"m 39 213 q 78 334 39 282 q 188 415 118 386 q 349 443 257 443 q 448 436 397 443 q 538 414 499 429 l 538 460 q 492 579 538 536 q 360 622 446 622 q 244 601 299 622 q 129 540 190 579 l 78 643 q 223 715 150 692 q 376 739 296 739 q 606 662 522 739 q 690 443 690 585 l 690 172 q 699 135 690 146 q 731 122 708 124 l 731 0 q 693 -6 710 -4 q 665 -7 676 -7 q 592 17 617 -7 q 563 72 567 40 l 558 114 q 438 19 511 53 q 289 -14 364 -14 q 160 16 217 -14 q 71 97 103 46 q 39 213 39 149 m 501 168 q 528 204 518 186 q 538 236 538 222 l 538 319 q 456 342 499 335 q 371 350 413 350 q 235 317 288 350 q 183 225 183 283 q 201 164 183 193 q 251 117 218 135 q 332 99 283 99 q 428 118 382 99 q 501 168 474 138 m 374 943 q 317 913 342 943 q 293 844 293 883 l 208 844 q 256 965 208 917 q 374 1014 303 1014 q 492 965 444 1014 q 539 844 539 917 l 454 844 q 427 915 450 886 q 374 943 404 943 z "},"ā":{"ha":783,"x_min":39,"x_max":731,"o":"m 39 213 q 78 334 39 282 q 188 415 118 386 q 349 443 257 443 q 448 436 397 443 q 538 414 499 429 l 538 460 q 492 579 538 536 q 360 622 446 622 q 244 601 299 622 q 129 540 190 579 l 78 643 q 223 715 150 692 q 376 739 296 739 q 606 662 522 739 q 690 443 690 585 l 690 172 q 699 135 690 146 q 731 122 708 124 l 731 0 q 693 -6 710 -4 q 665 -7 676 -7 q 592 17 617 -7 q 563 72 567 40 l 558 114 q 438 19 511 53 q 289 -14 364 -14 q 160 16 217 -14 q 71 97 103 46 q 39 213 39 149 m 501 168 q 528 204 518 186 q 538 236 538 222 l 538 319 q 456 342 499 335 q 371 350 413 350 q 235 317 288 350 q 183 225 183 283 q 201 164 183 193 q 251 117 218 135 q 332 99 283 99 q 428 118 382 99 q 501 168 474 138 m 169 894 l 169 992 l 581 992 l 581 894 l 169 894 z "},"ą":{"ha":783,"x_min":39,"x_max":731,"o":"m 39 213 q 78 334 39 282 q 188 415 118 386 q 349 443 257 443 q 448 436 397 443 q 538 414 499 429 l 538 460 q 492 579 538 536 q 360 622 446 622 q 244 601 299 622 q 129 540 190 579 l 78 643 q 223 715 150 692 q 376 739 296 739 q 606 662 522 739 q 690 443 690 585 l 690 172 q 699 135 690 146 q 731 122 708 124 l 731 0 q 693 -6 710 -4 q 665 -7 676 -7 q 592 17 617 -7 q 563 72 567 40 l 558 114 q 438 19 511 53 q 289 -14 364 -14 q 160 16 217 -14 q 71 97 103 46 q 39 213 39 149 m 501 168 q 528 204 518 186 q 538 236 538 222 l 538 319 q 456 342 499 335 q 371 350 413 350 q 235 317 288 350 q 183 225 183 283 q 201 164 183 193 q 251 117 218 135 q 332 99 283 99 q 428 118 382 99 q 501 168 474 138 m 525 -151 q 558 -60 525 -104 q 661 28 592 -15 l 706 28 l 732 0 q 651 -70 676 -39 q 625 -126 625 -101 q 653 -165 625 -153 q 731 -179 681 -176 l 699 -269 q 592 -245 629 -264 q 540 -201 554 -226 q 525 -151 525 -176 z "},"å":{"ha":783,"x_min":39,"x_max":731,"o":"m 39 213 q 78 334 39 282 q 188 415 118 386 q 349 443 257 443 q 448 436 397 443 q 538 414 499 429 l 538 460 q 492 579 538 536 q 360 622 446 622 q 244 601 299 622 q 129 540 190 579 l 78 643 q 223 715 150 692 q 376 739 296 739 q 606 662 522 739 q 690 443 690 585 l 690 172 q 699 135 690 146 q 731 122 708 124 l 731 0 q 693 -6 710 -4 q 665 -7 676 -7 q 592 17 617 -7 q 563 72 567 40 l 558 114 q 438 19 511 53 q 289 -14 364 -14 q 160 16 217 -14 q 71 97 103 46 q 39 213 39 149 m 501 168 q 528 204 518 186 q 538 236 538 222 l 538 319 q 456 342 499 335 q 371 350 413 350 q 235 317 288 350 q 183 225 183 283 q 201 164 183 193 q 251 117 218 135 q 332 99 283 99 q 428 118 382 99 q 501 168 474 138 m 236 917 q 275 1008 236 974 q 374 1042 314 1042 q 474 1008 436 1042 q 513 917 513 974 q 474 828 513 861 q 374 796 436 796 q 275 828 314 796 q 236 917 236 861 m 375 981 q 330 964 349 981 q 311 918 311 947 q 329 873 311 892 q 375 854 347 854 q 419 872 400 854 q 439 917 439 890 q 420 964 439 947 q 375 981 401 981 z "},"ǻ":{"ha":783,"x_min":39,"x_max":731,"o":"m 39 213 q 78 334 39 282 q 188 415 118 386 q 349 443 257 443 q 448 436 397 443 q 538 414 499 429 l 538 460 q 492 579 538 536 q 360 622 446 622 q 244 601 299 622 q 129 540 190 579 l 78 643 q 223 715 150 692 q 376 739 296 739 q 606 662 522 739 q 690 443 690 585 l 690 172 q 699 135 690 146 q 731 122 708 124 l 731 0 q 693 -6 710 -4 q 665 -7 676 -7 q 592 17 617 -7 q 563 72 567 40 l 558 114 q 438 19 511 53 q 289 -14 364 -14 q 160 16 217 -14 q 71 97 103 46 q 39 213 39 149 m 501 168 q 528 204 518 186 q 538 236 538 222 l 538 319 q 456 342 499 335 q 371 350 413 350 q 235 317 288 350 q 183 225 183 283 q 201 164 183 193 q 251 117 218 135 q 332 99 283 99 q 428 118 382 99 q 501 168 474 138 m 236 917 q 275 1008 236 974 q 374 1042 314 1042 q 474 1008 436 1042 q 513 917 513 974 q 474 828 513 861 q 374 796 436 796 q 275 828 314 796 q 236 917 236 861 m 375 981 q 330 964 349 981 q 311 918 311 947 q 329 873 311 892 q 375 854 347 854 q 419 872 400 854 q 439 917 439 890 q 420 964 439 947 q 375 981 401 981 m 439 1089 l 339 1119 l 418 1272 l 564 1272 l 439 1089 z "},"ã":{"ha":783,"x_min":39,"x_max":731,"o":"m 39 213 q 78 334 39 282 q 188 415 118 386 q 349 443 257 443 q 448 436 397 443 q 538 414 499 429 l 538 460 q 492 579 538 536 q 360 622 446 622 q 244 601 299 622 q 129 540 190 579 l 78 643 q 223 715 150 692 q 376 739 296 739 q 606 662 522 739 q 690 443 690 585 l 690 172 q 699 135 690 146 q 731 122 708 124 l 731 0 q 693 -6 710 -4 q 665 -7 676 -7 q 592 17 617 -7 q 563 72 567 40 l 558 114 q 438 19 511 53 q 289 -14 364 -14 q 160 16 217 -14 q 71 97 103 46 q 39 213 39 149 m 501 168 q 528 204 518 186 q 538 236 538 222 l 538 319 q 456 342 499 335 q 371 350 413 350 q 235 317 288 350 q 183 225 183 283 q 201 164 183 193 q 251 117 218 135 q 332 99 283 99 q 428 118 382 99 q 501 168 474 138 m 463 854 q 391 869 421 854 q 337 899 361 885 q 282 914 313 914 q 237 899 251 914 q 218 867 222 883 q 214 847 214 850 l 128 847 q 135 884 128 858 q 159 938 142 910 q 205 987 176 967 q 276 1007 233 1007 q 346 992 318 1007 q 399 961 374 976 q 458 946 425 946 q 508 962 493 946 q 528 994 524 978 q 533 1014 533 1011 l 621 1014 q 613 979 621 1004 q 588 925 606 954 q 539 875 569 896 q 463 854 508 854 z "},"æ":{"ha":1299,"x_min":39,"x_max":1265,"o":"m 283 -14 q 158 16 214 -14 q 71 98 103 46 q 39 214 39 150 q 78 333 39 282 q 186 414 117 385 q 344 443 256 443 q 436 436 392 443 q 517 415 481 429 q 523 456 519 435 q 532 493 526 476 q 481 594 525 558 q 358 631 436 631 q 245 610 301 631 q 129 547 189 589 l 81 644 q 372 739 224 739 q 524 708 460 739 q 625 621 588 676 q 739 706 671 674 q 890 739 807 739 q 1088 688 1004 739 q 1219 551 1172 636 q 1265 363 1265 465 q 1264 337 1265 351 q 1261 313 1263 322 l 668 313 q 706 201 674 249 q 788 126 738 153 q 899 99 839 99 q 1015 129 960 99 q 1089 210 1069 160 l 1219 172 q 1148 77 1196 119 q 1035 10 1100 35 q 893 -14 971 -14 q 714 28 793 -14 q 586 140 635 71 q 503 51 554 85 q 394 2 451 18 q 283 -14 336 -14 m 325 99 q 431 119 382 99 q 508 175 481 140 q 538 224 535 199 q 523 276 528 246 q 517 331 518 307 q 444 349 483 342 q 369 356 406 356 q 235 319 288 356 q 182 226 182 283 q 201 162 182 192 q 252 115 219 132 q 325 99 285 99 m 1113 410 q 1077 523 1107 474 q 999 599 1047 572 q 888 626 950 626 q 778 599 828 626 q 699 522 729 571 q 665 410 669 474 l 1113 410 z "},"ǽ":{"ha":1299,"x_min":39,"x_max":1265,"o":"m 283 -14 q 158 16 214 -14 q 71 98 103 46 q 39 214 39 150 q 78 333 39 282 q 186 414 117 385 q 344 443 256 443 q 436 436 392 443 q 517 415 481 429 q 523 456 519 435 q 532 493 526 476 q 481 594 525 558 q 358 631 436 631 q 245 610 301 631 q 129 547 189 589 l 81 644 q 372 739 224 739 q 524 708 460 739 q 625 621 588 676 q 739 706 671 674 q 890 739 807 739 q 1088 688 1004 739 q 1219 551 1172 636 q 1265 363 1265 465 q 1264 337 1265 351 q 1261 313 1263 322 l 668 313 q 706 201 674 249 q 788 126 738 153 q 899 99 839 99 q 1015 129 960 99 q 1089 210 1069 160 l 1219 172 q 1148 77 1196 119 q 1035 10 1100 35 q 893 -14 971 -14 q 714 28 793 -14 q 586 140 635 71 q 503 51 554 85 q 394 2 451 18 q 283 -14 336 -14 m 325 99 q 431 119 382 99 q 508 175 481 140 q 538 224 535 199 q 523 276 528 246 q 517 331 518 307 q 444 349 483 342 q 369 356 406 356 q 235 319 288 356 q 182 226 182 283 q 201 162 182 192 q 252 115 219 132 q 325 99 285 99 m 1113 410 q 1077 523 1107 474 q 999 599 1047 572 q 888 626 950 626 q 778 599 828 626 q 699 522 729 571 q 665 410 669 474 l 1113 410 m 699 831 l 599 861 l 678 1014 l 824 1014 l 699 831 z "},"b":{"ha":872,"x_min":92,"x_max":826,"o":"m 483 -14 q 333 26 400 -14 q 226 132 265 65 l 226 0 l 92 0 l 92 1014 l 244 1014 l 244 589 q 352 699 288 658 q 504 739 417 739 q 636 708 576 739 q 738 625 696 678 q 803 504 781 572 q 826 360 826 436 q 801 215 826 283 q 728 96 775 147 q 619 15 681 44 q 483 -14 557 -14 m 443 117 q 535 137 493 117 q 607 190 576 157 q 653 268 638 224 q 669 360 669 313 q 642 482 669 425 q 567 574 615 539 q 454 608 518 608 q 368 587 408 608 q 297 530 328 565 q 244 451 265 494 l 244 260 q 274 202 253 228 q 322 158 294 176 q 382 128 350 139 q 443 117 414 117 z "},"c":{"ha":776,"x_min":44,"x_max":742,"o":"m 421 -14 q 267 16 336 -14 q 149 99 199 46 q 72 219 99 151 q 44 364 44 288 q 91 551 44 467 q 222 688 138 636 q 421 739 306 739 q 615 690 532 739 q 736 558 697 640 l 588 511 q 517 583 563 557 q 418 608 472 608 q 308 577 357 608 q 230 491 258 546 q 201 364 201 436 q 231 238 201 294 q 309 149 260 182 q 419 117 358 117 q 492 130 457 117 q 554 166 528 143 q 592 217 581 189 l 742 172 q 672 76 718 118 q 562 10 625 35 q 421 -14 499 -14 z "},"ć":{"ha":776,"x_min":44,"x_max":742,"o":"m 421 -14 q 267 16 336 -14 q 149 99 199 46 q 72 219 99 151 q 44 364 44 288 q 91 551 44 467 q 222 688 138 636 q 421 739 306 739 q 615 690 532 739 q 736 558 697 640 l 588 511 q 517 583 563 557 q 418 608 472 608 q 308 577 357 608 q 230 491 258 546 q 201 364 201 436 q 231 238 201 294 q 309 149 260 182 q 419 117 358 117 q 492 130 457 117 q 554 166 528 143 q 592 217 581 189 l 742 172 q 672 76 718 118 q 562 10 625 35 q 421 -14 499 -14 m 471 831 l 371 861 l 450 1014 l 596 1014 l 471 831 z "},"č":{"ha":776,"x_min":44,"x_max":742,"o":"m 421 -14 q 267 16 336 -14 q 149 99 199 46 q 72 219 99 151 q 44 364 44 288 q 91 551 44 467 q 222 688 138 636 q 421 739 306 739 q 615 690 532 739 q 736 558 697 640 l 588 511 q 517 583 563 557 q 418 608 472 608 q 308 577 357 608 q 230 491 258 546 q 201 364 201 436 q 231 238 201 294 q 309 149 260 182 q 419 117 358 117 q 492 130 457 117 q 554 166 528 143 q 592 217 581 189 l 742 172 q 672 76 718 118 q 562 10 625 35 q 421 -14 499 -14 m 300 1014 l 418 926 l 536 1014 l 618 975 l 474 843 l 364 843 l 219 975 l 300 1014 z "},"ç":{"ha":776,"x_min":44,"x_max":742,"o":"m 421 -14 q 267 16 336 -14 q 149 99 199 46 q 72 219 99 151 q 44 364 44 288 q 91 551 44 467 q 222 688 138 636 q 421 739 306 739 q 615 690 532 739 q 736 558 697 640 l 588 511 q 517 583 563 557 q 418 608 472 608 q 308 577 357 608 q 230 491 258 546 q 201 364 201 436 q 231 238 201 294 q 309 149 260 182 q 419 117 358 117 q 492 130 457 117 q 554 166 528 143 q 592 217 581 189 l 742 172 q 672 76 718 118 q 562 10 625 35 q 421 -14 499 -14 m 404 -268 q 324 -258 367 -268 q 240 -228 281 -249 l 279 -146 q 327 -167 304 -160 q 378 -175 350 -175 q 439 -158 417 -175 q 461 -110 461 -142 q 439 -52 461 -78 q 375 0 417 -26 l 428 36 q 520 -40 485 0 q 556 -137 556 -79 q 516 -232 556 -196 q 404 -268 476 -268 z "},"ḉ":{"ha":776,"x_min":44,"x_max":742,"o":"m 421 -14 q 267 16 336 -14 q 149 99 199 46 q 72 219 99 151 q 44 364 44 288 q 91 551 44 467 q 222 688 138 636 q 421 739 306 739 q 615 690 532 739 q 736 558 697 640 l 588 511 q 517 583 563 557 q 418 608 472 608 q 308 577 357 608 q 230 491 258 546 q 201 364 201 436 q 231 238 201 294 q 309 149 260 182 q 419 117 358 117 q 492 130 457 117 q 554 166 528 143 q 592 217 581 189 l 742 172 q 672 76 718 118 q 562 10 625 35 q 421 -14 499 -14 m 404 -268 q 324 -258 367 -268 q 240 -228 281 -249 l 279 -146 q 327 -167 304 -160 q 378 -175 350 -175 q 439 -158 417 -175 q 461 -110 461 -142 q 439 -52 461 -78 q 375 0 417 -26 l 428 36 q 520 -40 485 0 q 556 -137 556 -79 q 516 -232 556 -196 q 404 -268 476 -268 m 471 831 l 371 861 l 450 1014 l 596 1014 l 471 831 z "},"ĉ":{"ha":776,"x_min":44,"x_max":742,"o":"m 421 -14 q 267 16 336 -14 q 149 99 199 46 q 72 219 99 151 q 44 364 44 288 q 91 551 44 467 q 222 688 138 636 q 421 739 306 739 q 615 690 532 739 q 736 558 697 640 l 588 511 q 517 583 563 557 q 418 608 472 608 q 308 577 357 608 q 230 491 258 546 q 201 364 201 436 q 231 238 201 294 q 309 149 260 182 q 419 117 358 117 q 492 130 457 117 q 554 166 528 143 q 592 217 581 189 l 742 172 q 672 76 718 118 q 562 10 625 35 q 421 -14 499 -14 m 219 882 l 364 1014 l 474 1014 l 618 882 l 536 843 l 418 931 l 300 843 l 219 882 z "},"ċ":{"ha":776,"x_min":44,"x_max":742,"o":"m 421 -14 q 267 16 336 -14 q 149 99 199 46 q 72 219 99 151 q 44 364 44 288 q 91 551 44 467 q 222 688 138 636 q 421 739 306 739 q 615 690 532 739 q 736 558 697 640 l 588 511 q 517 583 563 557 q 418 608 472 608 q 308 577 357 608 q 230 491 258 546 q 201 364 201 436 q 231 238 201 294 q 309 149 260 182 q 419 117 358 117 q 492 130 457 117 q 554 166 528 143 q 592 217 581 189 l 742 172 q 672 76 718 118 q 562 10 625 35 q 421 -14 499 -14 m 350 854 l 350 1014 l 488 1014 l 488 854 l 350 854 z "},"d":{"ha":885,"x_min":46,"x_max":824,"o":"m 46 363 q 88 552 46 467 q 204 688 131 638 q 374 739 278 739 q 524 696 457 739 q 629 589 592 653 l 629 1014 l 782 1014 l 782 172 q 792 135 782 146 q 824 122 801 124 l 824 0 q 757 -7 781 -7 q 684 18 714 -7 q 653 78 654 43 l 651 132 q 539 24 610 63 q 392 -14 468 -14 q 253 15 317 -14 q 144 97 190 44 q 72 218 97 150 q 46 363 46 286 m 629 261 l 629 451 q 580 531 614 496 q 503 588 546 567 q 419 608 461 608 q 331 588 371 608 q 263 532 292 567 q 219 453 235 497 q 204 360 204 408 q 221 266 204 310 q 269 188 238 222 q 341 135 300 154 q 431 117 382 117 q 492 128 461 117 q 552 158 524 139 q 601 204 581 178 q 629 261 621 231 z "},"ð":{"ha":846,"x_min":49,"x_max":796,"o":"m 796 403 q 767 228 796 306 q 685 97 738 151 q 565 15 633 43 q 417 -14 496 -14 q 231 31 315 -14 q 98 152 147 75 q 49 324 49 229 q 75 452 49 392 q 147 558 101 513 q 254 631 193 604 q 386 657 315 657 q 533 622 465 657 q 639 528 601 586 q 599 657 626 594 q 524 780 572 719 q 403 899 476 840 q 225 1014 331 958 l 429 1014 q 599 885 529 958 q 712 728 668 811 q 776 563 756 646 q 796 403 796 479 m 206 324 q 234 219 206 267 q 310 144 263 172 q 419 117 358 117 q 531 146 482 117 q 610 224 581 175 q 639 331 639 274 q 610 434 639 389 q 533 506 582 479 q 424 533 485 533 q 313 506 363 533 q 235 431 264 478 q 206 324 206 383 m 715 928 l 565 843 l 518 826 l 356 732 l 311 794 l 469 886 l 515 899 l 671 990 l 715 928 z "},"ď":{"ha":885,"x_min":46,"x_max":1049,"o":"m 46 363 q 88 552 46 467 q 204 688 131 638 q 374 739 278 739 q 524 696 457 739 q 629 589 592 653 l 629 1014 l 782 1014 l 782 172 q 792 135 782 146 q 824 122 801 124 l 824 0 q 757 -7 781 -7 q 684 18 714 -7 q 653 78 654 43 l 651 132 q 539 24 610 63 q 392 -14 468 -14 q 253 15 317 -14 q 144 97 190 44 q 72 218 97 150 q 46 363 46 286 m 629 261 l 629 451 q 580 531 614 496 q 503 588 546 567 q 419 608 461 608 q 331 588 371 608 q 263 532 292 567 q 219 453 235 497 q 204 360 204 408 q 221 266 204 310 q 269 188 238 222 q 341 135 300 154 q 431 117 382 117 q 492 128 461 117 q 552 158 524 139 q 601 204 581 178 q 629 261 621 231 m 924 831 l 824 861 l 903 1014 l 1049 1014 l 924 831 z "},"đ":{"ha":885,"x_min":46,"x_max":874,"o":"m 483 839 l 483 933 l 874 933 l 874 839 l 483 839 m 46 363 q 88 552 46 467 q 204 688 131 638 q 374 739 278 739 q 524 696 457 739 q 629 589 592 653 l 629 1014 l 782 1014 l 782 172 q 792 135 782 146 q 824 122 801 124 l 824 0 q 757 -7 781 -7 q 684 18 714 -7 q 653 78 654 43 l 651 132 q 539 24 610 63 q 392 -14 468 -14 q 253 15 317 -14 q 144 97 190 44 q 72 218 97 150 q 46 363 46 286 m 629 261 l 629 451 q 580 531 614 496 q 503 588 546 567 q 419 608 461 608 q 331 588 371 608 q 263 532 292 567 q 219 453 235 497 q 204 360 204 408 q 221 266 204 310 q 269 188 238 222 q 341 135 300 154 q 431 117 382 117 q 492 128 461 117 q 552 158 524 139 q 601 204 581 178 q 629 261 621 231 z "},"ḍ":{"ha":885,"x_min":46,"x_max":824,"o":"m 46 363 q 88 552 46 467 q 204 688 131 638 q 374 739 278 739 q 524 696 457 739 q 629 589 592 653 l 629 1014 l 782 1014 l 782 172 q 792 135 782 146 q 824 122 801 124 l 824 0 q 757 -7 781 -7 q 684 18 714 -7 q 653 78 654 43 l 651 132 q 539 24 610 63 q 392 -14 468 -14 q 253 15 317 -14 q 144 97 190 44 q 72 218 97 150 q 46 363 46 286 m 629 261 l 629 451 q 580 531 614 496 q 503 588 546 567 q 419 608 461 608 q 331 588 371 608 q 263 532 292 567 q 219 453 235 497 q 204 360 204 408 q 221 266 204 310 q 269 188 238 222 q 341 135 300 154 q 431 117 382 117 q 492 128 461 117 q 552 158 524 139 q 601 204 581 178 q 629 261 621 231 m 374 -268 l 374 -107 l 511 -107 l 511 -268 l 374 -268 z "},"ḏ":{"ha":885,"x_min":46,"x_max":824,"o":"m 46 363 q 88 552 46 467 q 204 688 131 638 q 374 739 278 739 q 524 696 457 739 q 629 589 592 653 l 629 1014 l 782 1014 l 782 172 q 792 135 782 146 q 824 122 801 124 l 824 0 q 757 -7 781 -7 q 684 18 714 -7 q 653 78 654 43 l 651 132 q 539 24 610 63 q 392 -14 468 -14 q 253 15 317 -14 q 144 97 190 44 q 72 218 97 150 q 46 363 46 286 m 629 261 l 629 451 q 580 531 614 496 q 503 588 546 567 q 419 608 461 608 q 331 588 371 608 q 263 532 292 567 q 219 453 235 497 q 204 360 204 408 q 221 266 204 310 q 269 188 238 222 q 341 135 300 154 q 431 117 382 117 q 492 128 461 117 q 552 158 524 139 q 601 204 581 178 q 629 261 621 231 m 238 -211 l 238 -115 l 649 -115 l 649 -211 l 238 -211 z "},"e":{"ha":826,"x_min":44,"x_max":793,"o":"m 421 -14 q 267 16 336 -14 q 149 98 199 46 q 72 217 99 150 q 44 361 44 285 q 92 549 44 464 q 224 687 139 635 q 422 739 308 739 q 619 687 536 739 q 747 550 701 635 q 793 368 793 465 q 792 337 793 351 q 789 313 790 322 l 207 313 q 242 201 211 249 q 322 126 274 153 q 426 99 371 99 q 542 129 488 99 q 617 210 597 160 l 747 172 q 676 77 724 119 q 563 10 628 35 q 421 -14 497 -14 m 203 414 l 642 414 q 606 524 638 476 q 527 599 575 572 q 421 626 479 626 q 316 599 364 626 q 238 524 268 572 q 203 414 207 476 z "},"é":{"ha":826,"x_min":44,"x_max":793,"o":"m 421 -14 q 267 16 336 -14 q 149 98 199 46 q 72 217 99 150 q 44 361 44 285 q 92 549 44 464 q 224 687 139 635 q 422 739 308 739 q 619 687 536 739 q 747 550 701 635 q 793 368 793 465 q 792 337 793 351 q 789 313 790 322 l 207 313 q 242 201 211 249 q 322 126 274 153 q 426 99 371 99 q 542 129 488 99 q 617 210 597 160 l 747 172 q 676 77 724 119 q 563 10 628 35 q 421 -14 497 -14 m 203 414 l 642 414 q 606 524 638 476 q 527 599 575 572 q 421 626 479 626 q 316 599 364 626 q 238 524 268 572 q 203 414 207 476 m 469 831 l 369 861 l 449 1014 l 594 1014 l 469 831 z "},"ĕ":{"ha":826,"x_min":44,"x_max":793,"o":"m 421 -14 q 267 16 336 -14 q 149 98 199 46 q 72 217 99 150 q 44 361 44 285 q 92 549 44 464 q 224 687 139 635 q 422 739 308 739 q 619 687 536 739 q 747 550 701 635 q 793 368 793 465 q 792 337 793 351 q 789 313 790 322 l 207 313 q 242 201 211 249 q 322 126 274 153 q 426 99 371 99 q 542 129 488 99 q 617 210 597 160 l 747 172 q 676 77 724 119 q 563 10 628 35 q 421 -14 497 -14 m 203 414 l 642 414 q 606 524 638 476 q 527 599 575 572 q 421 626 479 626 q 316 599 364 626 q 238 524 268 572 q 203 414 207 476 m 418 915 q 472 944 449 915 q 499 1014 494 972 l 583 1014 q 536 893 583 942 q 418 844 489 844 q 300 893 347 844 q 253 1014 253 942 l 338 1014 q 362 945 338 975 q 418 915 386 915 z "},"ě":{"ha":826,"x_min":44,"x_max":793,"o":"m 421 -14 q 267 16 336 -14 q 149 98 199 46 q 72 217 99 150 q 44 361 44 285 q 92 549 44 464 q 224 687 139 635 q 422 739 308 739 q 619 687 536 739 q 747 550 701 635 q 793 368 793 465 q 792 337 793 351 q 789 313 790 322 l 207 313 q 242 201 211 249 q 322 126 274 153 q 426 99 371 99 q 542 129 488 99 q 617 210 597 160 l 747 172 q 676 77 724 119 q 563 10 628 35 q 421 -14 497 -14 m 203 414 l 642 414 q 606 524 638 476 q 527 599 575 572 q 421 626 479 626 q 316 599 364 626 q 238 524 268 572 q 203 414 207 476 m 299 1014 l 417 926 l 535 1014 l 617 975 l 472 843 l 363 843 l 218 975 l 299 1014 z "},"ḝ":{"ha":826,"x_min":44,"x_max":793,"o":"m 421 -14 q 267 16 336 -14 q 149 98 199 46 q 72 217 99 150 q 44 361 44 285 q 92 549 44 464 q 224 687 139 635 q 422 739 308 739 q 619 687 536 739 q 747 550 701 635 q 793 368 793 465 q 792 337 793 351 q 789 313 790 322 l 207 313 q 242 201 211 249 q 322 126 274 153 q 426 99 371 99 q 542 129 488 99 q 617 210 597 160 l 747 172 q 676 77 724 119 q 563 10 628 35 q 421 -14 497 -14 m 203 414 l 642 414 q 606 524 638 476 q 527 599 575 572 q 421 626 479 626 q 316 599 364 626 q 238 524 268 572 q 203 414 207 476 m 403 -268 q 322 -258 365 -268 q 239 -228 279 -249 l 278 -146 q 326 -167 303 -160 q 376 -175 349 -175 q 438 -158 415 -175 q 460 -110 460 -142 q 438 -52 460 -78 q 374 0 415 -26 l 426 36 q 519 -40 483 0 q 554 -137 554 -79 q 515 -232 554 -196 q 403 -268 475 -268 m 418 915 q 472 944 449 915 q 499 1014 494 972 l 583 1014 q 536 893 583 942 q 418 844 489 844 q 300 893 347 844 q 253 1014 253 942 l 338 1014 q 362 945 338 975 q 418 915 386 915 z "},"ê":{"ha":826,"x_min":44,"x_max":793,"o":"m 421 -14 q 267 16 336 -14 q 149 98 199 46 q 72 217 99 150 q 44 361 44 285 q 92 549 44 464 q 224 687 139 635 q 422 739 308 739 q 619 687 536 739 q 747 550 701 635 q 793 368 793 465 q 792 337 793 351 q 789 313 790 322 l 207 313 q 242 201 211 249 q 322 126 274 153 q 426 99 371 99 q 542 129 488 99 q 617 210 597 160 l 747 172 q 676 77 724 119 q 563 10 628 35 q 421 -14 497 -14 m 203 414 l 642 414 q 606 524 638 476 q 527 599 575 572 q 421 626 479 626 q 316 599 364 626 q 238 524 268 572 q 203 414 207 476 m 218 882 l 363 1014 l 472 1014 l 617 882 l 535 843 l 417 931 l 299 843 l 218 882 z "},"ế":{"ha":826,"x_min":44,"x_max":793,"o":"m 421 -14 q 267 16 336 -14 q 149 98 199 46 q 72 217 99 150 q 44 361 44 285 q 92 549 44 464 q 224 687 139 635 q 422 739 308 739 q 619 687 536 739 q 747 550 701 635 q 793 368 793 465 q 792 337 793 351 q 789 313 790 322 l 207 313 q 242 201 211 249 q 322 126 274 153 q 426 99 371 99 q 542 129 488 99 q 617 210 597 160 l 747 172 q 676 77 724 119 q 563 10 628 35 q 421 -14 497 -14 m 203 414 l 642 414 q 606 524 638 476 q 527 599 575 572 q 421 626 479 626 q 316 599 364 626 q 238 524 268 572 q 203 414 207 476 z "},"ệ":{"ha":826,"x_min":44,"x_max":793,"o":"m 421 -14 q 267 16 336 -14 q 149 98 199 46 q 72 217 99 150 q 44 361 44 285 q 92 549 44 464 q 224 687 139 635 q 422 739 308 739 q 619 687 536 739 q 747 550 701 635 q 793 368 793 465 q 792 337 793 351 q 789 313 790 322 l 207 313 q 242 201 211 249 q 322 126 274 153 q 426 99 371 99 q 542 129 488 99 q 617 210 597 160 l 747 172 q 676 77 724 119 q 563 10 628 35 q 421 -14 497 -14 m 203 414 l 642 414 q 606 524 638 476 q 527 599 575 572 q 421 626 479 626 q 316 599 364 626 q 238 524 268 572 q 203 414 207 476 m 351 -268 l 351 -107 l 489 -107 l 489 -268 l 351 -268 m 218 882 l 363 1014 l 472 1014 l 617 882 l 535 843 l 417 931 l 299 843 l 218 882 z "},"ề":{"ha":826,"x_min":44,"x_max":793,"o":"m 421 -14 q 267 16 336 -14 q 149 98 199 46 q 72 217 99 150 q 44 361 44 285 q 92 549 44 464 q 224 687 139 635 q 422 739 308 739 q 619 687 536 739 q 747 550 701 635 q 793 368 793 465 q 792 337 793 351 q 789 313 790 322 l 207 313 q 242 201 211 249 q 322 126 274 153 q 426 99 371 99 q 542 129 488 99 q 617 210 597 160 l 747 172 q 676 77 724 119 q 563 10 628 35 q 421 -14 497 -14 m 203 414 l 642 414 q 606 524 638 476 q 527 599 575 572 q 421 626 479 626 q 316 599 364 626 q 238 524 268 572 q 203 414 207 476 z "},"ể":{"ha":826,"x_min":44,"x_max":793,"o":"m 421 -14 q 267 16 336 -14 q 149 98 199 46 q 72 217 99 150 q 44 361 44 285 q 92 549 44 464 q 224 687 139 635 q 422 739 308 739 q 619 687 536 739 q 747 550 701 635 q 793 368 793 465 q 792 337 793 351 q 789 313 790 322 l 207 313 q 242 201 211 249 q 322 126 274 153 q 426 99 371 99 q 542 129 488 99 q 617 210 597 160 l 747 172 q 676 77 724 119 q 563 10 628 35 q 421 -14 497 -14 m 203 414 l 642 414 q 606 524 638 476 q 527 599 575 572 q 421 626 479 626 q 316 599 364 626 q 238 524 268 572 q 203 414 207 476 z "},"ễ":{"ha":826,"x_min":44,"x_max":793,"o":"m 421 -14 q 267 16 336 -14 q 149 98 199 46 q 72 217 99 150 q 44 361 44 285 q 92 549 44 464 q 224 687 139 635 q 422 739 308 739 q 619 687 536 739 q 747 550 701 635 q 793 368 793 465 q 792 337 793 351 q 789 313 790 322 l 207 313 q 242 201 211 249 q 322 126 274 153 q 426 99 371 99 q 542 129 488 99 q 617 210 597 160 l 747 172 q 676 77 724 119 q 563 10 628 35 q 421 -14 497 -14 m 203 414 l 642 414 q 606 524 638 476 q 527 599 575 572 q 421 626 479 626 q 316 599 364 626 q 238 524 268 572 q 203 414 207 476 z "},"ȅ":{"ha":826,"x_min":44,"x_max":793,"o":"m 421 -14 q 267 16 336 -14 q 149 98 199 46 q 72 217 99 150 q 44 361 44 285 q 92 549 44 464 q 224 687 139 635 q 422 739 308 739 q 619 687 536 739 q 747 550 701 635 q 793 368 793 465 q 792 337 793 351 q 789 313 790 322 l 207 313 q 242 201 211 249 q 322 126 274 153 q 426 99 371 99 q 542 129 488 99 q 617 210 597 160 l 747 172 q 676 77 724 119 q 563 10 628 35 q 421 -14 497 -14 m 203 414 l 642 414 q 606 524 638 476 q 527 599 575 572 q 421 626 479 626 q 316 599 364 626 q 238 524 268 572 q 203 414 207 476 m 381 1015 l 504 1015 l 575 863 l 499 832 l 381 1015 m 175 1015 l 300 1015 l 371 863 l 293 832 l 175 1015 z "},"ë":{"ha":826,"x_min":44,"x_max":793,"o":"m 421 -14 q 267 16 336 -14 q 149 98 199 46 q 72 217 99 150 q 44 361 44 285 q 92 549 44 464 q 224 687 139 635 q 422 739 308 739 q 619 687 536 739 q 747 550 701 635 q 793 368 793 465 q 792 337 793 351 q 789 313 790 322 l 207 313 q 242 201 211 249 q 322 126 274 153 q 426 99 371 99 q 542 129 488 99 q 617 210 597 160 l 747 172 q 676 77 724 119 q 563 10 628 35 q 421 -14 497 -14 m 203 414 l 642 414 q 606 524 638 476 q 527 599 575 572 q 421 626 479 626 q 316 599 364 626 q 238 524 268 572 q 203 414 207 476 m 231 856 l 231 1008 l 358 1008 l 358 856 l 231 856 m 476 856 l 476 1008 l 604 1008 l 604 856 l 476 856 z "},"ė":{"ha":826,"x_min":44,"x_max":793,"o":"m 421 -14 q 267 16 336 -14 q 149 98 199 46 q 72 217 99 150 q 44 361 44 285 q 92 549 44 464 q 224 687 139 635 q 422 739 308 739 q 619 687 536 739 q 747 550 701 635 q 793 368 793 465 q 792 337 793 351 q 789 313 790 322 l 207 313 q 242 201 211 249 q 322 126 274 153 q 426 99 371 99 q 542 129 488 99 q 617 210 597 160 l 747 172 q 676 77 724 119 q 563 10 628 35 q 421 -14 497 -14 m 203 414 l 642 414 q 606 524 638 476 q 527 599 575 572 q 421 626 479 626 q 316 599 364 626 q 238 524 268 572 q 203 414 207 476 m 349 854 l 349 1014 l 486 1014 l 486 854 l 349 854 z "},"ẹ":{"ha":826,"x_min":44,"x_max":793,"o":"m 421 -14 q 267 16 336 -14 q 149 98 199 46 q 72 217 99 150 q 44 361 44 285 q 92 549 44 464 q 224 687 139 635 q 422 739 308 739 q 619 687 536 739 q 747 550 701 635 q 793 368 793 465 q 792 337 793 351 q 789 313 790 322 l 207 313 q 242 201 211 249 q 322 126 274 153 q 426 99 371 99 q 542 129 488 99 q 617 210 597 160 l 747 172 q 676 77 724 119 q 563 10 628 35 q 421 -14 497 -14 m 203 414 l 642 414 q 606 524 638 476 q 527 599 575 572 q 421 626 479 626 q 316 599 364 626 q 238 524 268 572 q 203 414 207 476 m 351 -268 l 351 -107 l 489 -107 l 489 -268 l 351 -268 z "},"è":{"ha":826,"x_min":44,"x_max":793,"o":"m 421 -14 q 267 16 336 -14 q 149 98 199 46 q 72 217 99 150 q 44 361 44 285 q 92 549 44 464 q 224 687 139 635 q 422 739 308 739 q 619 687 536 739 q 747 550 701 635 q 793 368 793 465 q 792 337 793 351 q 789 313 790 322 l 207 313 q 242 201 211 249 q 322 126 274 153 q 426 99 371 99 q 542 129 488 99 q 617 210 597 160 l 747 172 q 676 77 724 119 q 563 10 628 35 q 421 -14 497 -14 m 203 414 l 642 414 q 606 524 638 476 q 527 599 575 572 q 421 626 479 626 q 316 599 364 626 q 238 524 268 572 q 203 414 207 476 m 258 1015 l 404 1015 l 483 863 l 386 832 l 258 1015 z "},"ẻ":{"ha":826,"x_min":44,"x_max":793,"o":"m 421 -14 q 267 16 336 -14 q 149 98 199 46 q 72 217 99 150 q 44 361 44 285 q 92 549 44 464 q 224 687 139 635 q 422 739 308 739 q 619 687 536 739 q 747 550 701 635 q 793 368 793 465 q 792 337 793 351 q 789 313 790 322 l 207 313 q 242 201 211 249 q 322 126 274 153 q 426 99 371 99 q 542 129 488 99 q 617 210 597 160 l 747 172 q 676 77 724 119 q 563 10 628 35 q 421 -14 497 -14 m 203 414 l 642 414 q 606 524 638 476 q 527 599 575 572 q 421 626 479 626 q 316 599 364 626 q 238 524 268 572 q 203 414 207 476 m 350 961 l 299 1011 q 360 1054 329 1040 q 429 1068 392 1068 q 508 1039 481 1068 q 535 971 535 1010 q 515 906 535 938 q 451 839 494 874 l 411 885 q 444 922 435 906 q 454 954 454 938 q 443 982 454 971 q 415 993 432 993 q 383 986 397 993 q 350 961 369 979 z "},"ȇ":{"ha":826,"x_min":44,"x_max":793,"o":"m 421 -14 q 267 16 336 -14 q 149 98 199 46 q 72 217 99 150 q 44 361 44 285 q 92 549 44 464 q 224 687 139 635 q 422 739 308 739 q 619 687 536 739 q 747 550 701 635 q 793 368 793 465 q 792 337 793 351 q 789 313 790 322 l 207 313 q 242 201 211 249 q 322 126 274 153 q 426 99 371 99 q 542 129 488 99 q 617 210 597 160 l 747 172 q 676 77 724 119 q 563 10 628 35 q 421 -14 497 -14 m 203 414 l 642 414 q 606 524 638 476 q 527 599 575 572 q 421 626 479 626 q 316 599 364 626 q 238 524 268 572 q 203 414 207 476 m 418 943 q 362 913 386 943 q 338 844 338 883 l 253 844 q 300 965 253 917 q 418 1014 347 1014 q 536 965 489 1014 q 583 844 583 917 l 499 844 q 472 915 494 886 q 418 943 449 943 z "},"ē":{"ha":826,"x_min":44,"x_max":793,"o":"m 421 -14 q 267 16 336 -14 q 149 98 199 46 q 72 217 99 150 q 44 361 44 285 q 92 549 44 464 q 224 687 139 635 q 422 739 308 739 q 619 687 536 739 q 747 550 701 635 q 793 368 793 465 q 792 337 793 351 q 789 313 790 322 l 207 313 q 242 201 211 249 q 322 126 274 153 q 426 99 371 99 q 542 129 488 99 q 617 210 597 160 l 747 172 q 676 77 724 119 q 563 10 628 35 q 421 -14 497 -14 m 203 414 l 642 414 q 606 524 638 476 q 527 599 575 572 q 421 626 479 626 q 316 599 364 626 q 238 524 268 572 q 203 414 207 476 m 214 894 l 214 992 l 625 992 l 625 894 l 214 894 z "},"ḗ":{"ha":826,"x_min":44,"x_max":793,"o":"m 421 -14 q 267 16 336 -14 q 149 98 199 46 q 72 217 99 150 q 44 361 44 285 q 92 549 44 464 q 224 687 139 635 q 422 739 308 739 q 619 687 536 739 q 747 550 701 635 q 793 368 793 465 q 792 337 793 351 q 789 313 790 322 l 207 313 q 242 201 211 249 q 322 126 274 153 q 426 99 371 99 q 542 129 488 99 q 617 210 597 160 l 747 172 q 676 77 724 119 q 563 10 628 35 q 421 -14 497 -14 m 203 414 l 642 414 q 606 524 638 476 q 527 599 575 572 q 421 626 479 626 q 316 599 364 626 q 238 524 268 572 q 203 414 207 476 m 214 894 l 214 992 l 625 992 l 625 894 l 214 894 m 471 1096 l 371 1126 l 450 1279 l 596 1279 l 471 1096 z "},"ḕ":{"ha":826,"x_min":44,"x_max":793,"o":"m 421 -14 q 267 16 336 -14 q 149 98 199 46 q 72 217 99 150 q 44 361 44 285 q 92 549 44 464 q 224 687 139 635 q 422 739 308 739 q 619 687 536 739 q 747 550 701 635 q 793 368 793 465 q 792 337 793 351 q 789 313 790 322 l 207 313 q 242 201 211 249 q 322 126 274 153 q 426 99 371 99 q 542 129 488 99 q 617 210 597 160 l 747 172 q 676 77 724 119 q 563 10 628 35 q 421 -14 497 -14 m 203 414 l 642 414 q 606 524 638 476 q 527 599 575 572 q 421 626 479 626 q 316 599 364 626 q 238 524 268 572 q 203 414 207 476 m 214 894 l 214 992 l 625 992 l 625 894 l 214 894 m 260 1281 l 406 1281 l 485 1128 l 388 1097 l 260 1281 z "},"ę":{"ha":826,"x_min":44,"x_max":793,"o":"m 421 -14 q 267 16 336 -14 q 149 98 199 46 q 72 217 99 150 q 44 361 44 285 q 92 549 44 464 q 224 687 139 635 q 422 739 308 739 q 619 687 536 739 q 747 550 701 635 q 793 368 793 465 q 792 337 793 351 q 789 313 790 322 l 207 313 q 242 201 211 249 q 322 126 274 153 q 426 99 371 99 q 542 129 488 99 q 617 210 597 160 l 747 172 q 676 77 724 119 q 563 10 628 35 q 421 -14 497 -14 m 203 414 l 642 414 q 606 524 638 476 q 527 599 575 572 q 421 626 479 626 q 316 599 364 626 q 238 524 268 572 q 203 414 207 476 m 321 -151 q 354 -60 321 -104 q 457 28 388 -15 l 501 28 l 528 0 q 447 -70 472 -39 q 421 -126 421 -101 q 449 -165 421 -153 q 526 -179 476 -176 l 494 -269 q 388 -245 425 -264 q 335 -201 350 -226 q 321 -151 321 -176 z "},"ẽ":{"ha":826,"x_min":44,"x_max":793,"o":"m 421 -14 q 267 16 336 -14 q 149 98 199 46 q 72 217 99 150 q 44 361 44 285 q 92 549 44 464 q 224 687 139 635 q 422 739 308 739 q 619 687 536 739 q 747 550 701 635 q 793 368 793 465 q 792 337 793 351 q 789 313 790 322 l 207 313 q 242 201 211 249 q 322 126 274 153 q 426 99 371 99 q 542 129 488 99 q 617 210 597 160 l 747 172 q 676 77 724 119 q 563 10 628 35 q 421 -14 497 -14 m 203 414 l 642 414 q 606 524 638 476 q 527 599 575 572 q 421 626 479 626 q 316 599 364 626 q 238 524 268 572 q 203 414 207 476 m 507 854 q 435 869 465 854 q 381 899 406 885 q 326 914 357 914 q 281 899 296 914 q 263 867 267 883 q 258 847 258 850 l 172 847 q 179 884 172 858 q 203 938 186 910 q 249 987 221 967 q 321 1007 278 1007 q 390 992 363 1007 q 444 961 418 976 q 503 946 469 946 q 553 962 538 946 q 573 994 568 978 q 578 1014 578 1011 l 665 1014 q 658 979 665 1004 q 632 925 650 954 q 583 875 614 896 q 507 854 553 854 z "},"ə":{"ha":826,"x_min":33,"x_max":782,"o":"m 408 -14 q 211 38 296 -14 q 81 175 126 89 q 33 363 35 261 q 35 388 33 374 q 38 413 36 403 l 619 413 q 583 525 614 478 q 505 599 553 572 q 400 625 457 625 q 285 595 339 625 q 210 515 231 565 l 78 553 q 152 649 104 607 q 265 715 200 692 q 407 739 329 739 q 560 709 492 739 q 678 627 629 679 q 755 507 728 575 q 782 363 782 439 q 736 174 782 260 q 606 38 690 89 q 408 -14 522 -14 m 411 99 q 515 126 469 99 q 590 203 561 154 q 622 315 618 251 l 188 315 q 224 201 193 250 q 304 126 256 153 q 411 99 353 99 z "},"f":{"ha":494,"x_min":36,"x_max":535,"o":"m 133 0 l 133 590 l 36 590 l 36 708 l 133 708 l 133 738 q 162 892 133 826 q 242 992 190 957 q 365 1028 294 1028 q 453 1016 410 1028 q 535 983 496 1004 l 501 869 q 452 891 481 883 q 397 899 424 899 q 315 858 344 899 q 286 742 286 818 l 286 708 l 472 708 l 472 590 l 286 590 l 286 0 l 133 0 z "},"g":{"ha":874,"x_min":47,"x_max":782,"o":"m 379 -7 q 244 23 306 -7 q 140 104 183 53 q 72 222 96 156 q 47 363 47 289 q 72 508 47 440 q 142 628 97 576 q 249 710 188 681 q 385 739 310 739 q 538 697 472 739 q 647 589 604 656 l 647 726 l 782 726 l 782 21 q 731 -158 782 -85 q 593 -271 681 -232 q 396 -310 506 -310 q 196 -268 275 -310 q 61 -154 117 -226 l 147 -74 q 255 -162 189 -132 q 396 -193 321 -193 q 512 -170 458 -193 q 597 -99 565 -147 q 629 21 629 -51 l 629 132 q 522 30 590 67 q 379 -7 454 -7 m 429 117 q 496 128 464 117 q 555 160 528 140 q 601 206 582 181 q 629 261 621 232 l 629 451 q 578 534 611 499 q 503 589 544 569 q 418 608 461 608 q 328 587 368 608 q 261 530 289 565 q 218 450 233 494 q 203 358 203 406 q 220 265 203 308 q 268 188 238 222 q 340 135 299 154 q 429 117 382 117 z "},"ğ":{"ha":874,"x_min":47,"x_max":782,"o":"m 379 -7 q 244 23 306 -7 q 140 104 183 53 q 72 222 96 156 q 47 363 47 289 q 72 508 47 440 q 142 628 97 576 q 249 710 188 681 q 385 739 310 739 q 538 697 472 739 q 647 589 604 656 l 647 726 l 782 726 l 782 21 q 731 -158 782 -85 q 593 -271 681 -232 q 396 -310 506 -310 q 196 -268 275 -310 q 61 -154 117 -226 l 147 -74 q 255 -162 189 -132 q 396 -193 321 -193 q 512 -170 458 -193 q 597 -99 565 -147 q 629 21 629 -51 l 629 132 q 522 30 590 67 q 379 -7 454 -7 m 429 117 q 496 128 464 117 q 555 160 528 140 q 601 206 582 181 q 629 261 621 232 l 629 451 q 578 534 611 499 q 503 589 544 569 q 418 608 461 608 q 328 587 368 608 q 261 530 289 565 q 218 450 233 494 q 203 358 203 406 q 220 265 203 308 q 268 188 238 222 q 340 135 299 154 q 429 117 382 117 m 426 915 q 480 944 457 915 q 507 1014 503 972 l 592 1014 q 544 893 592 942 q 426 844 497 844 q 308 893 356 844 q 261 1014 261 942 l 346 1014 q 370 945 346 975 q 426 915 394 915 z "},"ǧ":{"ha":874,"x_min":47,"x_max":782,"o":"m 379 -7 q 244 23 306 -7 q 140 104 183 53 q 72 222 96 156 q 47 363 47 289 q 72 508 47 440 q 142 628 97 576 q 249 710 188 681 q 385 739 310 739 q 538 697 472 739 q 647 589 604 656 l 647 726 l 782 726 l 782 21 q 731 -158 782 -85 q 593 -271 681 -232 q 396 -310 506 -310 q 196 -268 275 -310 q 61 -154 117 -226 l 147 -74 q 255 -162 189 -132 q 396 -193 321 -193 q 512 -170 458 -193 q 597 -99 565 -147 q 629 21 629 -51 l 629 132 q 522 30 590 67 q 379 -7 454 -7 m 429 117 q 496 128 464 117 q 555 160 528 140 q 601 206 582 181 q 629 261 621 232 l 629 451 q 578 534 611 499 q 503 589 544 569 q 418 608 461 608 q 328 587 368 608 q 261 530 289 565 q 218 450 233 494 q 203 358 203 406 q 220 265 203 308 q 268 188 238 222 q 340 135 299 154 q 429 117 382 117 m 307 1014 l 425 926 l 543 1014 l 625 975 l 481 843 l 371 843 l 226 975 l 307 1014 z "},"ĝ":{"ha":874,"x_min":47,"x_max":782,"o":"m 379 -7 q 244 23 306 -7 q 140 104 183 53 q 72 222 96 156 q 47 363 47 289 q 72 508 47 440 q 142 628 97 576 q 249 710 188 681 q 385 739 310 739 q 538 697 472 739 q 647 589 604 656 l 647 726 l 782 726 l 782 21 q 731 -158 782 -85 q 593 -271 681 -232 q 396 -310 506 -310 q 196 -268 275 -310 q 61 -154 117 -226 l 147 -74 q 255 -162 189 -132 q 396 -193 321 -193 q 512 -170 458 -193 q 597 -99 565 -147 q 629 21 629 -51 l 629 132 q 522 30 590 67 q 379 -7 454 -7 m 429 117 q 496 128 464 117 q 555 160 528 140 q 601 206 582 181 q 629 261 621 232 l 629 451 q 578 534 611 499 q 503 589 544 569 q 418 608 461 608 q 328 587 368 608 q 261 530 289 565 q 218 450 233 494 q 203 358 203 406 q 220 265 203 308 q 268 188 238 222 q 340 135 299 154 q 429 117 382 117 m 226 882 l 371 1014 l 481 1014 l 625 882 l 543 843 l 425 931 l 307 843 l 226 882 z "},"ģ":{"ha":874,"x_min":47,"x_max":782,"o":"m 379 -7 q 244 23 306 -7 q 140 104 183 53 q 72 222 96 156 q 47 363 47 289 q 72 508 47 440 q 142 628 97 576 q 249 710 188 681 q 385 739 310 739 q 538 697 472 739 q 647 589 604 656 l 647 726 l 782 726 l 782 21 q 731 -158 782 -85 q 593 -271 681 -232 q 396 -310 506 -310 q 196 -268 275 -310 q 61 -154 117 -226 l 147 -74 q 255 -162 189 -132 q 396 -193 321 -193 q 512 -170 458 -193 q 597 -99 565 -147 q 629 21 629 -51 l 629 132 q 522 30 590 67 q 379 -7 454 -7 m 429 117 q 496 128 464 117 q 555 160 528 140 q 601 206 582 181 q 629 261 621 232 l 629 451 q 578 534 611 499 q 503 589 544 569 q 418 608 461 608 q 328 587 368 608 q 261 530 289 565 q 218 450 233 494 q 203 358 203 406 q 220 265 203 308 q 268 188 238 222 q 340 135 299 154 q 429 117 382 117 m 479 1014 l 447 925 l 490 925 l 490 814 l 358 814 l 358 925 l 408 1014 l 479 1014 z "},"ġ":{"ha":874,"x_min":47,"x_max":782,"o":"m 379 -7 q 244 23 306 -7 q 140 104 183 53 q 72 222 96 156 q 47 363 47 289 q 72 508 47 440 q 142 628 97 576 q 249 710 188 681 q 385 739 310 739 q 538 697 472 739 q 647 589 604 656 l 647 726 l 782 726 l 782 21 q 731 -158 782 -85 q 593 -271 681 -232 q 396 -310 506 -310 q 196 -268 275 -310 q 61 -154 117 -226 l 147 -74 q 255 -162 189 -132 q 396 -193 321 -193 q 512 -170 458 -193 q 597 -99 565 -147 q 629 21 629 -51 l 629 132 q 522 30 590 67 q 379 -7 454 -7 m 429 117 q 496 128 464 117 q 555 160 528 140 q 601 206 582 181 q 629 261 621 232 l 629 451 q 578 534 611 499 q 503 589 544 569 q 418 608 461 608 q 328 587 368 608 q 261 530 289 565 q 218 450 233 494 q 203 358 203 406 q 220 265 203 308 q 268 188 238 222 q 340 135 299 154 q 429 117 382 117 m 357 854 l 357 1014 l 494 1014 l 494 854 l 357 854 z "},"ḡ":{"ha":874,"x_min":47,"x_max":782,"o":"m 379 -7 q 244 23 306 -7 q 140 104 183 53 q 72 222 96 156 q 47 363 47 289 q 72 508 47 440 q 142 628 97 576 q 249 710 188 681 q 385 739 310 739 q 538 697 472 739 q 647 589 604 656 l 647 726 l 782 726 l 782 21 q 731 -158 782 -85 q 593 -271 681 -232 q 396 -310 506 -310 q 196 -268 275 -310 q 61 -154 117 -226 l 147 -74 q 255 -162 189 -132 q 396 -193 321 -193 q 512 -170 458 -193 q 597 -99 565 -147 q 629 21 629 -51 l 629 132 q 522 30 590 67 q 379 -7 454 -7 m 429 117 q 496 128 464 117 q 555 160 528 140 q 601 206 582 181 q 629 261 621 232 l 629 451 q 578 534 611 499 q 503 589 544 569 q 418 608 461 608 q 328 587 368 608 q 261 530 289 565 q 218 450 233 494 q 203 358 203 406 q 220 265 203 308 q 268 188 238 222 q 340 135 299 154 q 429 117 382 117 m 222 894 l 222 992 l 633 992 l 633 894 l 222 894 z "},"h":{"ha":829,"x_min":92,"x_max":743,"o":"m 743 0 l 590 0 l 590 407 q 554 554 590 506 q 453 603 518 603 q 369 581 413 603 q 293 520 326 558 q 244 432 260 482 l 244 0 l 92 0 l 92 1014 l 244 1014 l 244 581 q 358 697 286 654 q 514 739 431 739 q 626 715 582 739 q 697 651 671 692 q 733 556 722 610 q 743 443 743 503 l 743 0 z "},"ħ":{"ha":829,"x_min":22,"x_max":743,"o":"m 22 839 l 22 933 l 413 933 l 413 839 l 22 839 m 743 0 l 590 0 l 590 407 q 554 554 590 506 q 453 603 518 603 q 369 581 413 603 q 293 520 326 558 q 244 432 260 482 l 244 0 l 92 0 l 92 1014 l 244 1014 l 244 581 q 358 697 286 654 q 514 739 431 739 q 626 715 582 739 q 697 651 671 692 q 733 556 722 610 q 743 443 743 503 l 743 0 z "},"ḫ":{"ha":829,"x_min":92,"x_max":743,"o":"m 743 0 l 590 0 l 590 407 q 554 554 590 506 q 453 603 518 603 q 369 581 413 603 q 293 520 326 558 q 244 432 260 482 l 244 0 l 92 0 l 92 1014 l 244 1014 l 244 581 q 358 697 286 654 q 514 739 431 739 q 626 715 582 739 q 697 651 671 692 q 733 556 722 610 q 743 443 743 503 l 743 0 m 415 -174 q 469 -145 446 -174 q 496 -75 492 -117 l 581 -75 q 533 -196 581 -147 q 415 -244 486 -244 q 297 -196 344 -244 q 250 -75 250 -147 l 335 -75 q 359 -144 335 -114 q 415 -174 383 -174 z "},"ĥ":{"ha":829,"x_min":92,"x_max":743,"o":"m 743 0 l 590 0 l 590 407 q 554 554 590 506 q 453 603 518 603 q 369 581 413 603 q 293 520 326 558 q 244 432 260 482 l 244 0 l 92 0 l 92 1014 l 244 1014 l 244 581 q 358 697 286 654 q 514 739 431 739 q 626 715 582 739 q 697 651 671 692 q 733 556 722 610 q 743 443 743 503 l 743 0 m 242 1142 l 386 1274 l 496 1274 l 640 1142 l 558 1103 l 440 1190 l 322 1103 l 242 1142 z "},"ḥ":{"ha":829,"x_min":92,"x_max":743,"o":"m 743 0 l 590 0 l 590 407 q 554 554 590 506 q 453 603 518 603 q 369 581 413 603 q 293 520 326 558 q 244 432 260 482 l 244 0 l 92 0 l 92 1014 l 244 1014 l 244 581 q 358 697 286 654 q 514 739 431 739 q 626 715 582 739 q 697 651 671 692 q 733 556 722 610 q 743 443 743 503 l 743 0 m 346 -268 l 346 -107 l 483 -107 l 483 -268 l 346 -268 z "},"i":{"ha":336,"x_min":92,"x_max":244,"o":"m 92 0 l 92 726 l 244 726 l 244 0 l 92 0 m 92 846 l 92 1014 l 244 1014 l 244 846 l 92 846 z "},"ı":{"ha":336,"x_min":92,"x_max":244,"o":"m 92 0 l 92 726 l 244 726 l 244 0 l 92 0 z "},"í":{"ha":336,"x_min":92,"x_max":346,"o":"m 92 0 l 92 726 l 244 726 l 244 0 l 92 0 m 221 831 l 121 861 l 200 1014 l 346 1014 l 221 831 z "},"ĭ":{"ha":336,"x_min":3,"x_max":333,"o":"m 92 0 l 92 726 l 244 726 l 244 0 l 92 0 m 168 915 q 222 944 199 915 q 249 1014 244 972 l 333 1014 q 286 893 333 942 q 168 844 239 844 q 50 893 97 844 q 3 1014 3 942 l 88 1014 q 112 945 88 975 q 168 915 136 915 z "},"î":{"ha":336,"x_min":-31,"x_max":367,"o":"m 92 0 l 92 726 l 244 726 l 244 0 l 92 0 m -31 882 l 114 1014 l 224 1014 l 368 882 l 286 843 l 168 931 l 50 843 l -31 882 z "},"ȉ":{"ha":336,"x_min":-75,"x_max":326,"o":"m 92 0 l 92 726 l 244 726 l 244 0 l 92 0 m 131 1015 l 254 1015 l 325 863 l 249 832 l 131 1015 m -75 1015 l 50 1015 l 121 863 l 43 832 l -75 1015 z "},"ï":{"ha":336,"x_min":-18,"x_max":354,"o":"m 92 0 l 92 726 l 244 726 l 244 0 l 92 0 m -18 856 l -18 1008 l 110 1008 l 110 856 l -18 856 m 228 856 l 228 1008 l 356 1008 l 356 856 l 228 856 z "},"ḯ":{"ha":336,"x_min":-18,"x_max":354,"o":"m 92 0 l 92 726 l 244 726 l 244 0 l 92 0 m -18 856 l -18 1008 l 110 1008 l 110 856 l -18 856 m 228 856 l 228 1008 l 356 1008 l 356 856 l 228 856 m 221 1106 l 121 1136 l 200 1289 l 346 1289 l 221 1106 z "},"ị":{"ha":336,"x_min":92,"x_max":244,"o":"m 92 0 l 92 726 l 244 726 l 244 0 l 92 0 m 92 846 l 92 1014 l 244 1014 l 244 846 l 92 846 m 99 -268 l 99 -107 l 236 -107 l 236 -268 l 99 -268 z "},"ì":{"ha":336,"x_min":10,"x_max":244,"o":"m 92 0 l 92 726 l 244 726 l 244 0 l 92 0 m 10 1015 l 156 1015 l 235 863 l 138 832 l 10 1015 z "},"ỉ":{"ha":336,"x_min":14,"x_max":250,"o":"m 92 0 l 92 726 l 244 726 l 244 0 l 92 0 m 64 924 l 13 974 q 74 1017 43 1003 q 143 1031 106 1031 q 222 1001 194 1031 q 249 933 249 972 q 228 868 249 900 q 165 801 208 836 l 125 847 q 158 884 149 868 q 168 917 168 900 q 157 944 168 933 q 129 956 146 956 q 97 949 111 956 q 64 924 83 942 z "},"ȋ":{"ha":336,"x_min":3,"x_max":333,"o":"m 92 0 l 92 726 l 244 726 l 244 0 l 92 0 m 168 943 q 112 913 136 943 q 88 844 88 883 l 3 844 q 50 965 3 917 q 168 1014 97 1014 q 286 965 239 1014 q 333 844 333 917 l 249 844 q 222 915 244 886 q 168 943 199 943 z "},"ī":{"ha":336,"x_min":-36,"x_max":375,"o":"m 92 0 l 92 726 l 244 726 l 244 0 l 92 0 m -36 894 l -36 992 l 375 992 l 375 894 l -36 894 z "},"į":{"ha":336,"x_min":39,"x_max":244,"o":"m 92 0 l 92 726 l 244 726 l 244 0 l 92 0 m 92 846 l 92 1014 l 244 1014 l 244 846 l 92 846 m 39 -151 q 72 -60 39 -104 q 175 28 106 -15 l 219 28 l 246 0 q 165 -70 190 -39 q 139 -126 139 -101 q 167 -165 139 -153 q 244 -179 194 -176 l 213 -269 q 106 -245 143 -264 q 53 -201 68 -226 q 39 -151 39 -176 z "},"ĩ":{"ha":336,"x_min":-78,"x_max":415,"o":"m 92 0 l 92 726 l 244 726 l 244 0 l 92 0 m 257 854 q 185 869 215 854 q 131 899 156 885 q 76 914 107 914 q 31 899 46 914 q 13 867 17 883 q 8 847 8 850 l -78 847 q -71 884 -78 858 q -47 938 -64 910 q -1 987 -29 967 q 71 1007 28 1007 q 140 992 113 1007 q 194 961 168 976 q 253 946 219 946 q 303 962 288 946 q 323 994 318 978 q 328 1014 328 1011 l 415 1014 q 408 979 415 1004 q 382 925 400 954 q 333 875 364 896 q 257 854 303 854 z "},"j":{"ha":344,"x_min":-160,"x_max":253,"o":"m 15 -265 q -80 -250 -35 -265 q -160 -203 -125 -235 l -92 -100 q -51 -124 -75 -117 q -3 -132 -26 -132 q 48 -118 25 -132 q 85 -80 71 -104 q 100 -26 100 -56 l 100 726 l 253 726 l 253 -15 q 220 -144 253 -87 q 134 -233 188 -201 q 15 -265 81 -265 m 100 846 l 100 1014 l 253 1014 l 253 846 l 100 846 z "},"ȷ":{"ha":336,"x_min":-169,"x_max":244,"o":"m 7 -265 q -88 -250 -43 -265 q -169 -203 -133 -235 l -101 -100 q -59 -124 -83 -117 q -11 -132 -35 -132 q 40 -118 17 -132 q 77 -80 63 -104 q 92 -26 92 -56 l 92 726 l 244 726 l 244 -15 q 212 -144 244 -87 q 125 -233 179 -201 q 7 -265 71 -265 z "},"ĵ":{"ha":336,"x_min":-169,"x_max":367,"o":"m 7 -265 q -88 -250 -43 -265 q -169 -203 -133 -235 l -101 -100 q -59 -124 -83 -117 q -11 -132 -35 -132 q 40 -118 17 -132 q 77 -80 63 -104 q 92 -26 92 -56 l 92 726 l 244 726 l 244 -15 q 212 -144 244 -87 q 125 -233 179 -201 q 7 -265 71 -265 m -31 882 l 114 1014 l 224 1014 l 368 882 l 286 843 l 168 931 l 50 843 l -31 882 z "},"k":{"ha":761,"x_min":92,"x_max":760,"o":"m 597 0 l 364 335 l 244 221 l 244 0 l 92 0 l 92 1014 l 244 1014 l 244 375 l 581 725 l 744 725 l 463 421 l 760 0 l 597 0 z "},"ķ":{"ha":761,"x_min":92,"x_max":760,"o":"m 597 0 l 364 335 l 244 221 l 244 0 l 92 0 l 92 1014 l 244 1014 l 244 375 l 581 725 l 744 725 l 463 421 l 760 0 l 597 0 m 336 -296 l 368 -189 l 324 -189 l 324 -67 l 456 -67 l 456 -189 l 407 -296 l 336 -296 z "},"ĸ":{"ha":761,"x_min":92,"x_max":760,"o":"m 597 0 l 365 335 l 244 221 l 244 0 l 92 0 l 92 726 l 244 726 l 244 371 l 578 725 l 744 725 l 463 421 l 760 0 l 597 0 z "},"l":{"ha":418,"x_min":93,"x_max":421,"o":"m 93 1014 l 246 1014 l 246 210 q 263 139 246 154 q 304 124 279 124 q 356 129 332 124 q 399 143 381 135 l 421 22 q 342 -1 388 8 q 260 -11 296 -11 q 138 33 182 -11 q 93 154 93 76 l 93 1014 z "},"ĺ":{"ha":418,"x_min":93,"x_max":421,"o":"m 93 1014 l 246 1014 l 246 210 q 263 139 246 154 q 304 124 279 124 q 356 129 332 124 q 399 143 381 135 l 421 22 q 342 -1 388 8 q 260 -11 296 -11 q 138 33 182 -11 q 93 154 93 76 l 93 1014 m 221 1090 l 121 1121 l 200 1274 l 346 1274 l 221 1090 z "},"ľ":{"ha":418,"x_min":93,"x_max":528,"o":"m 93 1014 l 246 1014 l 246 210 q 263 139 246 154 q 304 124 279 124 q 356 129 332 124 q 399 143 381 135 l 421 22 q 342 -1 388 8 q 260 -11 296 -11 q 138 33 182 -11 q 93 154 93 76 l 93 1014 m 403 831 l 303 861 l 382 1014 l 528 1014 l 403 831 z "},"ļ":{"ha":418,"x_min":93,"x_max":421,"o":"m 93 1014 l 246 1014 l 246 210 q 263 139 246 154 q 304 124 279 124 q 356 129 332 124 q 399 143 381 135 l 421 22 q 342 -1 388 8 q 260 -11 296 -11 q 138 33 182 -11 q 93 154 93 76 l 93 1014 m 197 -296 l 229 -189 l 185 -189 l 185 -67 l 317 -67 l 317 -189 l 268 -296 l 197 -296 z "},"ŀ":{"ha":510,"x_min":93,"x_max":486,"o":"m 93 1014 l 246 1014 l 246 210 q 263 139 246 154 q 304 124 279 124 q 356 129 332 124 q 399 143 381 135 l 421 22 q 342 -1 388 8 q 260 -11 296 -11 q 138 33 182 -11 q 93 154 93 76 l 93 1014 m 360 338 l 360 528 l 486 528 l 486 338 l 360 338 z "},"ḷ":{"ha":418,"x_min":93,"x_max":421,"o":"m 93 1014 l 246 1014 l 246 210 q 263 139 246 154 q 304 124 279 124 q 356 129 332 124 q 399 143 381 135 l 421 22 q 342 -1 388 8 q 260 -11 296 -11 q 138 33 182 -11 q 93 154 93 76 l 93 1014 m 186 -268 l 186 -107 l 324 -107 l 324 -268 l 186 -268 z "},"ḻ":{"ha":418,"x_min":50,"x_max":461,"o":"m 93 1014 l 246 1014 l 246 210 q 263 139 246 154 q 304 124 279 124 q 356 129 332 124 q 399 143 381 135 l 421 22 q 342 -1 388 8 q 260 -11 296 -11 q 138 33 182 -11 q 93 154 93 76 l 93 1014 m 50 -211 l 50 -115 l 461 -115 l 461 -211 l 50 -211 z "},"ł":{"ha":451,"x_min":6,"x_max":453,"o":"m 47 383 l 6 468 l 397 726 l 440 643 l 47 383 m 124 1014 l 276 1014 l 276 210 q 293 139 276 154 q 336 124 310 124 q 388 129 363 124 q 431 143 413 135 l 453 22 q 373 -1 418 8 q 292 -11 328 -11 q 168 33 213 -11 q 124 154 124 76 l 124 1014 z "},"m":{"ha":1288,"x_min":92,"x_max":1203,"o":"m 1203 0 l 1050 0 l 1050 407 q 1017 556 1050 508 q 919 603 983 603 q 801 555 856 603 q 724 431 746 507 l 724 0 l 571 0 l 571 407 q 538 556 571 508 q 442 603 504 603 q 323 556 378 603 q 244 432 268 508 l 244 0 l 92 0 l 92 726 l 231 726 l 231 581 q 344 698 274 657 q 504 739 414 739 q 647 692 594 739 q 711 574 699 644 q 827 697 758 654 q 985 739 896 739 q 1092 715 1049 739 q 1158 651 1135 692 q 1192 556 1182 610 q 1203 443 1203 503 l 1203 0 z "},"ṃ":{"ha":1288,"x_min":92,"x_max":1203,"o":"m 1203 0 l 1050 0 l 1050 407 q 1017 556 1050 508 q 919 603 983 603 q 801 555 856 603 q 724 431 746 507 l 724 0 l 571 0 l 571 407 q 538 556 571 508 q 442 603 504 603 q 323 556 378 603 q 244 432 268 508 l 244 0 l 92 0 l 92 726 l 231 726 l 231 581 q 344 698 274 657 q 504 739 414 739 q 647 692 594 739 q 711 574 699 644 q 827 697 758 654 q 985 739 896 739 q 1092 715 1049 739 q 1158 651 1135 692 q 1192 556 1182 610 q 1203 443 1203 503 l 1203 0 m 575 -268 l 575 -107 l 713 -107 l 713 -268 l 575 -268 z "},"n":{"ha":829,"x_min":92,"x_max":743,"o":"m 743 0 l 590 0 l 590 407 q 558 556 590 508 q 461 603 525 603 q 373 581 417 603 q 294 520 329 558 q 244 432 260 482 l 244 0 l 92 0 l 92 726 l 231 726 l 231 581 q 303 665 258 629 q 406 719 349 700 q 526 739 463 739 q 634 715 592 739 q 701 651 676 692 q 734 556 725 610 q 743 443 743 503 l 743 0 z "},"ń":{"ha":829,"x_min":92,"x_max":743,"o":"m 743 0 l 590 0 l 590 407 q 558 556 590 508 q 461 603 525 603 q 373 581 417 603 q 294 520 329 558 q 244 432 260 482 l 244 0 l 92 0 l 92 726 l 231 726 l 231 581 q 303 665 258 629 q 406 719 349 700 q 526 739 463 739 q 634 715 592 739 q 701 651 676 692 q 734 556 725 610 q 743 443 743 503 l 743 0 m 482 831 l 382 861 l 461 1014 l 607 1014 l 482 831 z "},"ň":{"ha":829,"x_min":92,"x_max":743,"o":"m 743 0 l 590 0 l 590 407 q 558 556 590 508 q 461 603 525 603 q 373 581 417 603 q 294 520 329 558 q 244 432 260 482 l 244 0 l 92 0 l 92 726 l 231 726 l 231 581 q 303 665 258 629 q 406 719 349 700 q 526 739 463 739 q 634 715 592 739 q 701 651 676 692 q 734 556 725 610 q 743 443 743 503 l 743 0 m 311 1014 l 429 926 l 547 1014 l 629 975 l 485 843 l 375 843 l 231 975 l 311 1014 z "},"ņ":{"ha":829,"x_min":92,"x_max":743,"o":"m 743 0 l 590 0 l 590 407 q 558 556 590 508 q 461 603 525 603 q 373 581 417 603 q 294 520 329 558 q 244 432 260 482 l 244 0 l 92 0 l 92 726 l 231 726 l 231 581 q 303 665 258 629 q 406 719 349 700 q 526 739 463 739 q 634 715 592 739 q 701 651 676 692 q 734 556 725 610 q 743 443 743 503 l 743 0 m 356 -296 l 388 -189 l 343 -189 l 343 -67 l 475 -67 l 475 -189 l 426 -296 l 356 -296 z "},"ṅ":{"ha":829,"x_min":92,"x_max":743,"o":"m 743 0 l 590 0 l 590 407 q 558 556 590 508 q 461 603 525 603 q 373 581 417 603 q 294 520 329 558 q 244 432 260 482 l 244 0 l 92 0 l 92 726 l 231 726 l 231 581 q 303 665 258 629 q 406 719 349 700 q 526 739 463 739 q 634 715 592 739 q 701 651 676 692 q 734 556 725 610 q 743 443 743 503 l 743 0 m 361 854 l 361 1014 l 499 1014 l 499 854 l 361 854 z "},"ṇ":{"ha":829,"x_min":92,"x_max":743,"o":"m 743 0 l 590 0 l 590 407 q 558 556 590 508 q 461 603 525 603 q 373 581 417 603 q 294 520 329 558 q 244 432 260 482 l 244 0 l 92 0 l 92 726 l 231 726 l 231 581 q 303 665 258 629 q 406 719 349 700 q 526 739 463 739 q 634 715 592 739 q 701 651 676 692 q 734 556 725 610 q 743 443 743 503 l 743 0 m 344 -268 l 344 -107 l 482 -107 l 482 -268 l 344 -268 z "},"ŋ":{"ha":828,"x_min":92,"x_max":743,"o":"m 506 -265 q 410 -250 456 -265 q 329 -203 365 -235 l 397 -100 q 440 -124 415 -117 q 488 -132 464 -132 q 538 -118 515 -132 q 576 -80 561 -104 q 590 -26 590 -56 l 590 407 q 558 556 590 508 q 461 603 525 603 q 373 581 417 603 q 294 520 329 558 q 244 432 260 482 l 244 0 l 92 0 l 92 726 l 231 726 l 231 581 q 303 665 258 629 q 406 719 349 700 q 526 739 463 739 q 634 715 592 739 q 700 651 676 692 q 733 556 724 610 q 743 443 743 503 l 743 -15 q 710 -144 743 -87 q 624 -233 678 -201 q 506 -265 569 -265 z "},"ṉ":{"ha":829,"x_min":92,"x_max":743,"o":"m 743 0 l 590 0 l 590 407 q 558 556 590 508 q 461 603 525 603 q 373 581 417 603 q 294 520 329 558 q 244 432 260 482 l 244 0 l 92 0 l 92 726 l 231 726 l 231 581 q 303 665 258 629 q 406 719 349 700 q 526 739 463 739 q 634 715 592 739 q 701 651 676 692 q 734 556 725 610 q 743 443 743 503 l 743 0 m 208 -211 l 208 -115 l 619 -115 l 619 -211 l 208 -211 z "},"ñ":{"ha":829,"x_min":92,"x_max":743,"o":"m 743 0 l 590 0 l 590 407 q 558 556 590 508 q 461 603 525 603 q 373 581 417 603 q 294 520 329 558 q 244 432 260 482 l 244 0 l 92 0 l 92 726 l 231 726 l 231 581 q 303 665 258 629 q 406 719 349 700 q 526 739 463 739 q 634 715 592 739 q 701 651 676 692 q 734 556 725 610 q 743 443 743 503 l 743 0 m 518 854 q 447 869 476 854 q 392 899 417 885 q 338 914 368 914 q 292 899 307 914 q 274 867 278 883 q 269 847 269 850 l 183 847 q 190 884 183 858 q 215 938 197 910 q 260 987 232 967 q 332 1007 289 1007 q 401 992 374 1007 q 455 961 429 976 q 514 946 481 946 q 564 962 549 946 q 584 994 579 978 q 589 1014 589 1011 l 676 1014 q 669 979 676 1004 q 643 925 661 954 q 594 875 625 896 q 518 854 564 854 z "},"o":{"ha":836,"x_min":44,"x_max":792,"o":"m 418 -14 q 264 16 332 -14 q 147 99 196 46 q 71 219 97 151 q 44 363 44 286 q 71 507 44 439 q 147 627 97 575 q 265 709 196 679 q 418 739 333 739 q 572 709 503 739 q 690 627 640 679 q 765 507 739 575 q 792 363 792 439 q 765 219 792 286 q 690 99 739 151 q 572 16 640 46 q 418 -14 503 -14 m 201 361 q 231 236 201 292 q 308 149 260 181 q 418 117 357 117 q 527 149 478 117 q 606 238 576 182 q 635 363 635 294 q 606 488 635 432 q 527 576 576 543 q 418 608 478 608 q 308 575 357 608 q 231 487 260 542 q 201 361 201 432 z "},"ó":{"ha":836,"x_min":44,"x_max":792,"o":"m 418 -14 q 264 16 332 -14 q 147 99 196 46 q 71 219 97 151 q 44 363 44 286 q 71 507 44 439 q 147 627 97 575 q 265 709 196 679 q 418 739 333 739 q 572 709 503 739 q 690 627 640 679 q 765 507 739 575 q 792 363 792 439 q 765 219 792 286 q 690 99 739 151 q 572 16 640 46 q 418 -14 503 -14 m 201 361 q 231 236 201 292 q 308 149 260 181 q 418 117 357 117 q 527 149 478 117 q 606 238 576 182 q 635 363 635 294 q 606 488 635 432 q 527 576 576 543 q 418 608 478 608 q 308 575 357 608 q 231 487 260 542 q 201 361 201 432 m 469 831 l 369 861 l 449 1014 l 594 1014 l 469 831 z "},"ŏ":{"ha":836,"x_min":44,"x_max":792,"o":"m 418 -14 q 264 16 332 -14 q 147 99 196 46 q 71 219 97 151 q 44 363 44 286 q 71 507 44 439 q 147 627 97 575 q 265 709 196 679 q 418 739 333 739 q 572 709 503 739 q 690 627 640 679 q 765 507 739 575 q 792 363 792 439 q 765 219 792 286 q 690 99 739 151 q 572 16 640 46 q 418 -14 503 -14 m 201 361 q 231 236 201 292 q 308 149 260 181 q 418 117 357 117 q 527 149 478 117 q 606 238 576 182 q 635 363 635 294 q 606 488 635 432 q 527 576 576 543 q 418 608 478 608 q 308 575 357 608 q 231 487 260 542 q 201 361 201 432 m 418 915 q 472 944 449 915 q 499 1014 494 972 l 583 1014 q 536 893 583 942 q 418 844 489 844 q 300 893 347 844 q 253 1014 253 942 l 338 1014 q 362 945 338 975 q 418 915 386 915 z "},"ô":{"ha":836,"x_min":44,"x_max":792,"o":"m 418 -14 q 264 16 332 -14 q 147 99 196 46 q 71 219 97 151 q 44 363 44 286 q 71 507 44 439 q 147 627 97 575 q 265 709 196 679 q 418 739 333 739 q 572 709 503 739 q 690 627 640 679 q 765 507 739 575 q 792 363 792 439 q 765 219 792 286 q 690 99 739 151 q 572 16 640 46 q 418 -14 503 -14 m 201 361 q 231 236 201 292 q 308 149 260 181 q 418 117 357 117 q 527 149 478 117 q 606 238 576 182 q 635 363 635 294 q 606 488 635 432 q 527 576 576 543 q 418 608 478 608 q 308 575 357 608 q 231 487 260 542 q 201 361 201 432 m 218 882 l 363 1014 l 472 1014 l 617 882 l 535 843 l 417 931 l 299 843 l 218 882 z "},"ố":{"ha":836,"x_min":44,"x_max":792,"o":"m 418 -14 q 264 16 332 -14 q 147 99 196 46 q 71 219 97 151 q 44 363 44 286 q 71 507 44 439 q 147 627 97 575 q 265 709 196 679 q 418 739 333 739 q 572 709 503 739 q 690 627 640 679 q 765 507 739 575 q 792 363 792 439 q 765 219 792 286 q 690 99 739 151 q 572 16 640 46 q 418 -14 503 -14 m 201 361 q 231 236 201 292 q 308 149 260 181 q 418 117 357 117 q 527 149 478 117 q 606 238 576 182 q 635 363 635 294 q 606 488 635 432 q 527 576 576 543 q 418 608 478 608 q 308 575 357 608 q 231 487 260 542 q 201 361 201 432 z "},"ộ":{"ha":836,"x_min":44,"x_max":792,"o":"m 418 -14 q 264 16 332 -14 q 147 99 196 46 q 71 219 97 151 q 44 363 44 286 q 71 507 44 439 q 147 627 97 575 q 265 709 196 679 q 418 739 333 739 q 572 709 503 739 q 690 627 640 679 q 765 507 739 575 q 792 363 792 439 q 765 219 792 286 q 690 99 739 151 q 572 16 640 46 q 418 -14 503 -14 m 201 361 q 231 236 201 292 q 308 149 260 181 q 418 117 357 117 q 527 149 478 117 q 606 238 576 182 q 635 363 635 294 q 606 488 635 432 q 527 576 576 543 q 418 608 478 608 q 308 575 357 608 q 231 487 260 542 q 201 361 201 432 m 349 -268 l 349 -107 l 486 -107 l 486 -268 l 349 -268 m 218 882 l 363 1014 l 472 1014 l 617 882 l 535 843 l 417 931 l 299 843 l 218 882 z "},"ồ":{"ha":836,"x_min":44,"x_max":792,"o":"m 418 -14 q 264 16 332 -14 q 147 99 196 46 q 71 219 97 151 q 44 363 44 286 q 71 507 44 439 q 147 627 97 575 q 265 709 196 679 q 418 739 333 739 q 572 709 503 739 q 690 627 640 679 q 765 507 739 575 q 792 363 792 439 q 765 219 792 286 q 690 99 739 151 q 572 16 640 46 q 418 -14 503 -14 m 201 361 q 231 236 201 292 q 308 149 260 181 q 418 117 357 117 q 527 149 478 117 q 606 238 576 182 q 635 363 635 294 q 606 488 635 432 q 527 576 576 543 q 418 608 478 608 q 308 575 357 608 q 231 487 260 542 q 201 361 201 432 z "},"ổ":{"ha":836,"x_min":44,"x_max":792,"o":"m 418 -14 q 264 16 332 -14 q 147 99 196 46 q 71 219 97 151 q 44 363 44 286 q 71 507 44 439 q 147 627 97 575 q 265 709 196 679 q 418 739 333 739 q 572 709 503 739 q 690 627 640 679 q 765 507 739 575 q 792 363 792 439 q 765 219 792 286 q 690 99 739 151 q 572 16 640 46 q 418 -14 503 -14 m 201 361 q 231 236 201 292 q 308 149 260 181 q 418 117 357 117 q 527 149 478 117 q 606 238 576 182 q 635 363 635 294 q 606 488 635 432 q 527 576 576 543 q 418 608 478 608 q 308 575 357 608 q 231 487 260 542 q 201 361 201 432 z "},"ỗ":{"ha":836,"x_min":44,"x_max":792,"o":"m 418 -14 q 264 16 332 -14 q 147 99 196 46 q 71 219 97 151 q 44 363 44 286 q 71 507 44 439 q 147 627 97 575 q 265 709 196 679 q 418 739 333 739 q 572 709 503 739 q 690 627 640 679 q 765 507 739 575 q 792 363 792 439 q 765 219 792 286 q 690 99 739 151 q 572 16 640 46 q 418 -14 503 -14 m 201 361 q 231 236 201 292 q 308 149 260 181 q 418 117 357 117 q 527 149 478 117 q 606 238 576 182 q 635 363 635 294 q 606 488 635 432 q 527 576 576 543 q 418 608 478 608 q 308 575 357 608 q 231 487 260 542 q 201 361 201 432 z "},"ȍ":{"ha":836,"x_min":44,"x_max":792,"o":"m 418 -14 q 264 16 332 -14 q 147 99 196 46 q 71 219 97 151 q 44 363 44 286 q 71 507 44 439 q 147 627 97 575 q 265 709 196 679 q 418 739 333 739 q 572 709 503 739 q 690 627 640 679 q 765 507 739 575 q 792 363 792 439 q 765 219 792 286 q 690 99 739 151 q 572 16 640 46 q 418 -14 503 -14 m 201 361 q 231 236 201 292 q 308 149 260 181 q 418 117 357 117 q 527 149 478 117 q 606 238 576 182 q 635 363 635 294 q 606 488 635 432 q 527 576 576 543 q 418 608 478 608 q 308 575 357 608 q 231 487 260 542 q 201 361 201 432 m 381 1015 l 504 1015 l 575 863 l 499 832 l 381 1015 m 175 1015 l 300 1015 l 371 863 l 293 832 l 175 1015 z "},"ö":{"ha":836,"x_min":44,"x_max":792,"o":"m 418 -14 q 264 16 332 -14 q 147 99 196 46 q 71 219 97 151 q 44 363 44 286 q 71 507 44 439 q 147 627 97 575 q 265 709 196 679 q 418 739 333 739 q 572 709 503 739 q 690 627 640 679 q 765 507 739 575 q 792 363 792 439 q 765 219 792 286 q 690 99 739 151 q 572 16 640 46 q 418 -14 503 -14 m 201 361 q 231 236 201 292 q 308 149 260 181 q 418 117 357 117 q 527 149 478 117 q 606 238 576 182 q 635 363 635 294 q 606 488 635 432 q 527 576 576 543 q 418 608 478 608 q 308 575 357 608 q 231 487 260 542 q 201 361 201 432 m 231 856 l 231 1008 l 358 1008 l 358 856 l 231 856 m 476 856 l 476 1008 l 604 1008 l 604 856 l 476 856 z "},"ȫ":{"ha":836,"x_min":44,"x_max":792,"o":"m 418 -14 q 264 16 332 -14 q 147 99 196 46 q 71 219 97 151 q 44 363 44 286 q 71 507 44 439 q 147 627 97 575 q 265 709 196 679 q 418 739 333 739 q 572 709 503 739 q 690 627 640 679 q 765 507 739 575 q 792 363 792 439 q 765 219 792 286 q 690 99 739 151 q 572 16 640 46 q 418 -14 503 -14 m 201 361 q 231 236 201 292 q 308 149 260 181 q 418 117 357 117 q 527 149 478 117 q 606 238 576 182 q 635 363 635 294 q 606 488 635 432 q 527 576 576 543 q 418 608 478 608 q 308 575 357 608 q 231 487 260 542 q 201 361 201 432 m 231 856 l 231 1008 l 358 1008 l 358 856 l 231 856 m 476 856 l 476 1008 l 604 1008 l 604 856 l 476 856 m 214 1169 l 214 1267 l 625 1267 l 625 1169 l 214 1169 z "},"ȱ":{"ha":836,"x_min":44,"x_max":792,"o":"m 418 -14 q 264 16 332 -14 q 147 99 196 46 q 71 219 97 151 q 44 363 44 286 q 71 507 44 439 q 147 627 97 575 q 265 709 196 679 q 418 739 333 739 q 572 709 503 739 q 690 627 640 679 q 765 507 739 575 q 792 363 792 439 q 765 219 792 286 q 690 99 739 151 q 572 16 640 46 q 418 -14 503 -14 m 201 361 q 231 236 201 292 q 308 149 260 181 q 418 117 357 117 q 527 149 478 117 q 606 238 576 182 q 635 363 635 294 q 606 488 635 432 q 527 576 576 543 q 418 608 478 608 q 308 575 357 608 q 231 487 260 542 q 201 361 201 432 m 349 854 l 349 1014 l 486 1014 l 486 854 l 349 854 m 214 1182 l 214 1279 l 625 1279 l 625 1182 l 214 1182 z "},"ọ":{"ha":836,"x_min":44,"x_max":792,"o":"m 418 -14 q 264 16 332 -14 q 147 99 196 46 q 71 219 97 151 q 44 363 44 286 q 71 507 44 439 q 147 627 97 575 q 265 709 196 679 q 418 739 333 739 q 572 709 503 739 q 690 627 640 679 q 765 507 739 575 q 792 363 792 439 q 765 219 792 286 q 690 99 739 151 q 572 16 640 46 q 418 -14 503 -14 m 201 361 q 231 236 201 292 q 308 149 260 181 q 418 117 357 117 q 527 149 478 117 q 606 238 576 182 q 635 363 635 294 q 606 488 635 432 q 527 576 576 543 q 418 608 478 608 q 308 575 357 608 q 231 487 260 542 q 201 361 201 432 m 349 -268 l 349 -107 l 486 -107 l 486 -268 l 349 -268 z "},"ò":{"ha":836,"x_min":44,"x_max":792,"o":"m 418 -14 q 264 16 332 -14 q 147 99 196 46 q 71 219 97 151 q 44 363 44 286 q 71 507 44 439 q 147 627 97 575 q 265 709 196 679 q 418 739 333 739 q 572 709 503 739 q 690 627 640 679 q 765 507 739 575 q 792 363 792 439 q 765 219 792 286 q 690 99 739 151 q 572 16 640 46 q 418 -14 503 -14 m 201 361 q 231 236 201 292 q 308 149 260 181 q 418 117 357 117 q 527 149 478 117 q 606 238 576 182 q 635 363 635 294 q 606 488 635 432 q 527 576 576 543 q 418 608 478 608 q 308 575 357 608 q 231 487 260 542 q 201 361 201 432 m 258 1015 l 404 1015 l 483 863 l 386 832 l 258 1015 z "},"ỏ":{"ha":836,"x_min":44,"x_max":792,"o":"m 418 -14 q 264 16 332 -14 q 147 99 196 46 q 71 219 97 151 q 44 363 44 286 q 71 507 44 439 q 147 627 97 575 q 265 709 196 679 q 418 739 333 739 q 572 709 503 739 q 690 627 640 679 q 765 507 739 575 q 792 363 792 439 q 765 219 792 286 q 690 99 739 151 q 572 16 640 46 q 418 -14 503 -14 m 201 361 q 231 236 201 292 q 308 149 260 181 q 418 117 357 117 q 527 149 478 117 q 606 238 576 182 q 635 363 635 294 q 606 488 635 432 q 527 576 576 543 q 418 608 478 608 q 308 575 357 608 q 231 487 260 542 q 201 361 201 432 m 350 961 l 299 1011 q 360 1054 329 1040 q 429 1068 392 1068 q 508 1039 481 1068 q 535 971 535 1010 q 515 906 535 938 q 451 839 494 874 l 411 885 q 444 922 435 906 q 454 954 454 938 q 443 982 454 971 q 415 993 432 993 q 383 986 397 993 q 350 961 369 979 z "},"ơ":{"ha":836,"x_min":44,"x_max":792,"o":"m 418 -14 q 264 16 332 -14 q 147 99 196 46 q 71 219 97 151 q 44 363 44 286 q 71 507 44 439 q 147 627 97 575 q 265 709 196 679 q 418 739 333 739 q 572 709 503 739 q 690 627 640 679 q 765 507 739 575 q 792 363 792 439 q 765 219 792 286 q 690 99 739 151 q 572 16 640 46 q 418 -14 503 -14 m 201 361 q 231 236 201 292 q 308 149 260 181 q 418 117 357 117 q 527 149 478 117 q 606 238 576 182 q 635 363 635 294 q 606 488 635 432 q 527 576 576 543 q 418 608 478 608 q 308 575 357 608 q 231 487 260 542 q 201 361 201 432 m 503 619 l 506 728 q 581 735 554 728 q 622 760 607 743 q 641 799 638 778 q 646 847 644 821 l 763 847 q 758 792 763 819 q 742 737 753 764 q 710 686 732 710 q 658 650 690 665 q 587 627 626 635 q 503 619 547 619 z "},"ớ":{"ha":836,"x_min":44,"x_max":792,"o":"m 418 -14 q 264 16 332 -14 q 147 99 196 46 q 71 219 97 151 q 44 363 44 286 q 71 507 44 439 q 147 627 97 575 q 265 709 196 679 q 418 739 333 739 q 572 709 503 739 q 690 627 640 679 q 765 507 739 575 q 792 363 792 439 q 765 219 792 286 q 690 99 739 151 q 572 16 640 46 q 418 -14 503 -14 m 201 361 q 231 236 201 292 q 308 149 260 181 q 418 117 357 117 q 527 149 478 117 q 606 238 576 182 q 635 363 635 294 q 606 488 635 432 q 527 576 576 543 q 418 608 478 608 q 308 575 357 608 q 231 487 260 542 q 201 361 201 432 m 503 619 l 506 728 q 581 735 554 728 q 622 760 607 743 q 641 799 638 778 q 646 847 644 821 l 763 847 q 758 792 763 819 q 742 737 753 764 q 710 686 732 710 q 658 650 690 665 q 587 627 626 635 q 503 619 547 619 m 469 831 l 369 861 l 449 1014 l 594 1014 l 469 831 z "},"ợ":{"ha":836,"x_min":44,"x_max":792,"o":"m 418 -14 q 264 16 332 -14 q 147 99 196 46 q 71 219 97 151 q 44 363 44 286 q 71 507 44 439 q 147 627 97 575 q 265 709 196 679 q 418 739 333 739 q 572 709 503 739 q 690 627 640 679 q 765 507 739 575 q 792 363 792 439 q 765 219 792 286 q 690 99 739 151 q 572 16 640 46 q 418 -14 503 -14 m 201 361 q 231 236 201 292 q 308 149 260 181 q 418 117 357 117 q 527 149 478 117 q 606 238 576 182 q 635 363 635 294 q 606 488 635 432 q 527 576 576 543 q 418 608 478 608 q 308 575 357 608 q 231 487 260 542 q 201 361 201 432 m 503 619 l 506 728 q 581 735 554 728 q 622 760 607 743 q 641 799 638 778 q 646 847 644 821 l 763 847 q 758 792 763 819 q 742 737 753 764 q 710 686 732 710 q 658 650 690 665 q 587 627 626 635 q 503 619 547 619 m 349 -268 l 349 -107 l 486 -107 l 486 -268 l 349 -268 z "},"ờ":{"ha":836,"x_min":44,"x_max":792,"o":"m 418 -14 q 264 16 332 -14 q 147 99 196 46 q 71 219 97 151 q 44 363 44 286 q 71 507 44 439 q 147 627 97 575 q 265 709 196 679 q 418 739 333 739 q 572 709 503 739 q 690 627 640 679 q 765 507 739 575 q 792 363 792 439 q 765 219 792 286 q 690 99 739 151 q 572 16 640 46 q 418 -14 503 -14 m 201 361 q 231 236 201 292 q 308 149 260 181 q 418 117 357 117 q 527 149 478 117 q 606 238 576 182 q 635 363 635 294 q 606 488 635 432 q 527 576 576 543 q 418 608 478 608 q 308 575 357 608 q 231 487 260 542 q 201 361 201 432 m 503 619 l 506 728 q 581 735 554 728 q 622 760 607 743 q 641 799 638 778 q 646 847 644 821 l 763 847 q 758 792 763 819 q 742 737 753 764 q 710 686 732 710 q 658 650 690 665 q 587 627 626 635 q 503 619 547 619 m 258 1015 l 404 1015 l 483 863 l 386 832 l 258 1015 z "},"ở":{"ha":836,"x_min":44,"x_max":792,"o":"m 418 -14 q 264 16 332 -14 q 147 99 196 46 q 71 219 97 151 q 44 363 44 286 q 71 507 44 439 q 147 627 97 575 q 265 709 196 679 q 418 739 333 739 q 572 709 503 739 q 690 627 640 679 q 765 507 739 575 q 792 363 792 439 q 765 219 792 286 q 690 99 739 151 q 572 16 640 46 q 418 -14 503 -14 m 201 361 q 231 236 201 292 q 308 149 260 181 q 418 117 357 117 q 527 149 478 117 q 606 238 576 182 q 635 363 635 294 q 606 488 635 432 q 527 576 576 543 q 418 608 478 608 q 308 575 357 608 q 231 487 260 542 q 201 361 201 432 m 503 619 l 506 728 q 581 735 554 728 q 622 760 607 743 q 641 799 638 778 q 646 847 644 821 l 763 847 q 758 792 763 819 q 742 737 753 764 q 710 686 732 710 q 658 650 690 665 q 587 627 626 635 q 503 619 547 619 m 350 961 l 299 1011 q 360 1054 329 1040 q 429 1068 392 1068 q 508 1039 481 1068 q 535 971 535 1010 q 515 906 535 938 q 451 839 494 874 l 411 885 q 444 922 435 906 q 454 954 454 938 q 443 982 454 971 q 415 993 432 993 q 383 986 397 993 q 350 961 369 979 z "},"ỡ":{"ha":836,"x_min":44,"x_max":792,"o":"m 418 -14 q 264 16 332 -14 q 147 99 196 46 q 71 219 97 151 q 44 363 44 286 q 71 507 44 439 q 147 627 97 575 q 265 709 196 679 q 418 739 333 739 q 572 709 503 739 q 690 627 640 679 q 765 507 739 575 q 792 363 792 439 q 765 219 792 286 q 690 99 739 151 q 572 16 640 46 q 418 -14 503 -14 m 201 361 q 231 236 201 292 q 308 149 260 181 q 418 117 357 117 q 527 149 478 117 q 606 238 576 182 q 635 363 635 294 q 606 488 635 432 q 527 576 576 543 q 418 608 478 608 q 308 575 357 608 q 231 487 260 542 q 201 361 201 432 m 503 619 l 506 728 q 581 735 554 728 q 622 760 607 743 q 641 799 638 778 q 646 847 644 821 l 763 847 q 758 792 763 819 q 742 737 753 764 q 710 686 732 710 q 658 650 690 665 q 587 627 626 635 q 503 619 547 619 m 507 854 q 435 869 465 854 q 381 899 406 885 q 326 914 357 914 q 281 899 296 914 q 263 867 267 883 q 258 847 258 850 l 172 847 q 179 884 172 858 q 203 938 186 910 q 249 987 221 967 q 321 1007 278 1007 q 390 992 363 1007 q 444 961 418 976 q 503 946 469 946 q 553 962 538 946 q 573 994 568 978 q 578 1014 578 1011 l 665 1014 q 658 979 665 1004 q 632 925 650 954 q 583 875 614 896 q 507 854 553 854 z "},"ő":{"ha":836,"x_min":44,"x_max":792,"o":"m 418 -14 q 264 16 332 -14 q 147 99 196 46 q 71 219 97 151 q 44 363 44 286 q 71 507 44 439 q 147 627 97 575 q 265 709 196 679 q 418 739 333 739 q 572 709 503 739 q 690 627 640 679 q 765 507 739 575 q 792 363 792 439 q 765 219 792 286 q 690 99 739 151 q 572 16 640 46 q 418 -14 503 -14 m 201 361 q 231 236 201 292 q 308 149 260 181 q 418 117 357 117 q 527 149 478 117 q 606 238 576 182 q 635 363 635 294 q 606 488 635 432 q 527 576 576 543 q 418 608 478 608 q 308 575 357 608 q 231 487 260 542 q 201 361 201 432 m 329 832 l 253 863 l 324 1015 l 447 1015 l 329 832 m 535 832 l 457 863 l 528 1015 l 653 1015 l 535 832 z "},"ȏ":{"ha":836,"x_min":44,"x_max":792,"o":"m 418 -14 q 264 16 332 -14 q 147 99 196 46 q 71 219 97 151 q 44 363 44 286 q 71 507 44 439 q 147 627 97 575 q 265 709 196 679 q 418 739 333 739 q 572 709 503 739 q 690 627 640 679 q 765 507 739 575 q 792 363 792 439 q 765 219 792 286 q 690 99 739 151 q 572 16 640 46 q 418 -14 503 -14 m 201 361 q 231 236 201 292 q 308 149 260 181 q 418 117 357 117 q 527 149 478 117 q 606 238 576 182 q 635 363 635 294 q 606 488 635 432 q 527 576 576 543 q 418 608 478 608 q 308 575 357 608 q 231 487 260 542 q 201 361 201 432 m 418 943 q 362 913 386 943 q 338 844 338 883 l 253 844 q 300 965 253 917 q 418 1014 347 1014 q 536 965 489 1014 q 583 844 583 917 l 499 844 q 472 915 494 886 q 418 943 449 943 z "},"ō":{"ha":836,"x_min":44,"x_max":792,"o":"m 418 -14 q 264 16 332 -14 q 147 99 196 46 q 71 219 97 151 q 44 363 44 286 q 71 507 44 439 q 147 627 97 575 q 265 709 196 679 q 418 739 333 739 q 572 709 503 739 q 690 627 640 679 q 765 507 739 575 q 792 363 792 439 q 765 219 792 286 q 690 99 739 151 q 572 16 640 46 q 418 -14 503 -14 m 201 361 q 231 236 201 292 q 308 149 260 181 q 418 117 357 117 q 527 149 478 117 q 606 238 576 182 q 635 363 635 294 q 606 488 635 432 q 527 576 576 543 q 418 608 478 608 q 308 575 357 608 q 231 487 260 542 q 201 361 201 432 m 214 894 l 214 992 l 625 992 l 625 894 l 214 894 z "},"ṓ":{"ha":836,"x_min":44,"x_max":792,"o":"m 418 -14 q 264 16 332 -14 q 147 99 196 46 q 71 219 97 151 q 44 363 44 286 q 71 507 44 439 q 147 627 97 575 q 265 709 196 679 q 418 739 333 739 q 572 709 503 739 q 690 627 640 679 q 765 507 739 575 q 792 363 792 439 q 765 219 792 286 q 690 99 739 151 q 572 16 640 46 q 418 -14 503 -14 m 201 361 q 231 236 201 292 q 308 149 260 181 q 418 117 357 117 q 527 149 478 117 q 606 238 576 182 q 635 363 635 294 q 606 488 635 432 q 527 576 576 543 q 418 608 478 608 q 308 575 357 608 q 231 487 260 542 q 201 361 201 432 m 214 894 l 214 992 l 625 992 l 625 894 l 214 894 m 471 1096 l 371 1126 l 450 1279 l 596 1279 l 471 1096 z "},"ṑ":{"ha":836,"x_min":44,"x_max":792,"o":"m 418 -14 q 264 16 332 -14 q 147 99 196 46 q 71 219 97 151 q 44 363 44 286 q 71 507 44 439 q 147 627 97 575 q 265 709 196 679 q 418 739 333 739 q 572 709 503 739 q 690 627 640 679 q 765 507 739 575 q 792 363 792 439 q 765 219 792 286 q 690 99 739 151 q 572 16 640 46 q 418 -14 503 -14 m 201 361 q 231 236 201 292 q 308 149 260 181 q 418 117 357 117 q 527 149 478 117 q 606 238 576 182 q 635 363 635 294 q 606 488 635 432 q 527 576 576 543 q 418 608 478 608 q 308 575 357 608 q 231 487 260 542 q 201 361 201 432 m 214 894 l 214 992 l 625 992 l 625 894 l 214 894 m 260 1281 l 406 1281 l 485 1128 l 388 1097 l 260 1281 z "},"ǫ":{"ha":836,"x_min":44,"x_max":792,"o":"m 418 -14 q 264 16 332 -14 q 147 99 196 46 q 71 219 97 151 q 44 363 44 286 q 71 507 44 439 q 147 627 97 575 q 265 709 196 679 q 418 739 333 739 q 572 709 503 739 q 690 627 640 679 q 765 507 739 575 q 792 363 792 439 q 765 219 792 286 q 690 99 739 151 q 572 16 640 46 q 418 -14 503 -14 m 201 361 q 231 236 201 292 q 308 149 260 181 q 418 117 357 117 q 527 149 478 117 q 606 238 576 182 q 635 363 635 294 q 606 488 635 432 q 527 576 576 543 q 418 608 478 608 q 308 575 357 608 q 231 487 260 542 q 201 361 201 432 m 317 -151 q 350 -60 317 -104 q 453 28 383 -15 l 497 28 l 524 0 q 442 -70 468 -39 q 417 -126 417 -101 q 444 -165 417 -153 q 522 -179 472 -176 l 490 -269 q 383 -245 421 -264 q 331 -201 346 -226 q 317 -151 317 -176 z "},"ø":{"ha":836,"x_min":44,"x_max":792,"o":"m 418 -14 q 264 16 332 -14 q 147 99 196 46 q 71 219 97 151 q 44 363 44 288 q 71 506 44 438 q 147 627 97 575 q 265 709 196 679 q 418 739 333 739 q 572 709 503 739 q 690 627 640 679 q 765 506 739 575 q 792 363 792 438 q 765 219 792 288 q 690 99 739 151 q 572 16 640 46 q 418 -14 503 -14 m 418 117 q 527 149 478 117 q 606 238 576 182 q 635 363 635 294 q 606 488 635 432 q 527 576 576 543 q 418 608 478 608 q 308 576 357 608 q 231 488 260 543 q 201 361 201 432 q 231 236 201 292 q 308 149 260 181 q 418 117 357 117 m 75 -4 l 200 150 l 274 101 l 186 -4 l 75 -4 m 286 114 l 219 157 l 551 621 l 628 585 l 286 114 m 647 594 l 564 632 l 643 731 l 757 731 l 647 594 z "},"ǿ":{"ha":836,"x_min":44,"x_max":792,"o":"m 418 -14 q 264 16 332 -14 q 147 99 196 46 q 71 219 97 151 q 44 363 44 288 q 71 506 44 438 q 147 627 97 575 q 265 709 196 679 q 418 739 333 739 q 572 709 503 739 q 690 627 640 679 q 765 506 739 575 q 792 363 792 438 q 765 219 792 288 q 690 99 739 151 q 572 16 640 46 q 418 -14 503 -14 m 418 117 q 527 149 478 117 q 606 238 576 182 q 635 363 635 294 q 606 488 635 432 q 527 576 576 543 q 418 608 478 608 q 308 576 357 608 q 231 488 260 543 q 201 361 201 432 q 231 236 201 292 q 308 149 260 181 q 418 117 357 117 m 75 -4 l 200 150 l 274 101 l 186 -4 l 75 -4 m 286 114 l 219 157 l 551 621 l 628 585 l 286 114 m 647 594 l 564 632 l 643 731 l 757 731 l 647 594 m 408 831 l 308 861 l 388 1014 l 533 1014 l 408 831 z "},"õ":{"ha":836,"x_min":44,"x_max":792,"o":"m 418 -14 q 264 16 332 -14 q 147 99 196 46 q 71 219 97 151 q 44 363 44 286 q 71 507 44 439 q 147 627 97 575 q 265 709 196 679 q 418 739 333 739 q 572 709 503 739 q 690 627 640 679 q 765 507 739 575 q 792 363 792 439 q 765 219 792 286 q 690 99 739 151 q 572 16 640 46 q 418 -14 503 -14 m 201 361 q 231 236 201 292 q 308 149 260 181 q 418 117 357 117 q 527 149 478 117 q 606 238 576 182 q 635 363 635 294 q 606 488 635 432 q 527 576 576 543 q 418 608 478 608 q 308 575 357 608 q 231 487 260 542 q 201 361 201 432 m 507 854 q 435 869 465 854 q 381 899 406 885 q 326 914 357 914 q 281 899 296 914 q 263 867 267 883 q 258 847 258 850 l 172 847 q 179 884 172 858 q 203 938 186 910 q 249 987 221 967 q 321 1007 278 1007 q 390 992 363 1007 q 444 961 418 976 q 503 946 469 946 q 553 962 538 946 q 573 994 568 978 q 578 1014 578 1011 l 665 1014 q 658 979 665 1004 q 632 925 650 954 q 583 875 614 896 q 507 854 553 854 z "},"ṍ":{"ha":836,"x_min":44,"x_max":792,"o":"m 418 -14 q 264 16 332 -14 q 147 99 196 46 q 71 219 97 151 q 44 363 44 286 q 71 507 44 439 q 147 627 97 575 q 265 709 196 679 q 418 739 333 739 q 572 709 503 739 q 690 627 640 679 q 765 507 739 575 q 792 363 792 439 q 765 219 792 286 q 690 99 739 151 q 572 16 640 46 q 418 -14 503 -14 m 201 361 q 231 236 201 292 q 308 149 260 181 q 418 117 357 117 q 527 149 478 117 q 606 238 576 182 q 635 363 635 294 q 606 488 635 432 q 527 576 576 543 q 418 608 478 608 q 308 575 357 608 q 231 487 260 542 q 201 361 201 432 m 507 854 q 435 869 465 854 q 381 899 406 885 q 326 914 357 914 q 281 899 296 914 q 263 867 267 883 q 258 847 258 850 l 172 847 q 179 884 172 858 q 203 938 186 910 q 249 987 221 967 q 321 1007 278 1007 q 390 992 363 1007 q 444 961 418 976 q 503 946 469 946 q 553 962 538 946 q 573 994 568 978 q 578 1014 578 1011 l 665 1014 q 658 979 665 1004 q 632 925 650 954 q 583 875 614 896 q 507 854 553 854 m 469 1118 l 369 1149 l 449 1301 l 594 1301 l 469 1118 z "}}}
